SplineFontDB: 3.0
FontName: KiteOne-Regular
FullName: Kite One
FamilyName: Kite One
Weight: Book
Copyright: Copyright (c) 2012, Eduardo Tunni (http://www.tipo.net.ar), with Reserved Font Name 'Kite'
Version: 1.001
ItalicAngle: 0
UnderlinePosition: -25
UnderlineWidth: 50
Ascent: 800
Descent: 200
sfntRevision: 0x00010042
LayerCount: 2
Layer: 0 1 "Back"  1
Layer: 1 1 "Fore"  0
XUID: [1021 502 983903699 7809248]
FSType: 0
OS2Version: 3
OS2_WeightWidthSlopeOnly: 0
OS2_UseTypoMetrics: 1
CreationTime: 1342210440
ModificationTime: 1351616939
PfmFamily: 17
TTFWeight: 400
TTFWidth: 5
LineGap: 0
VLineGap: 0
Panose: 2 0 5 3 4 0 0 2 0 3
OS2TypoAscent: 1094
OS2TypoAOffset: 0
OS2TypoDescent: -351
OS2TypoDOffset: 0
OS2TypoLinegap: 0
OS2WinAscent: 1094
OS2WinAOffset: 0
OS2WinDescent: 351
OS2WinDOffset: 0
HheadAscent: 1094
HheadAOffset: 0
HheadDescent: -351
HheadDOffset: 0
OS2SubXSize: 650
OS2SubYSize: 600
OS2SubXOff: 0
OS2SubYOff: 75
OS2SupXSize: 650
OS2SupYSize: 600
OS2SupXOff: 0
OS2SupYOff: 350
OS2StrikeYSize: 50
OS2StrikeYPos: 295
OS2Vendor: 'TIPO'
OS2CodePages: 20000001.00000000
OS2UnicodeRanges: 800000af.4000204b.00000000.00000000
Lookup: 258 0 0 "'kern' Horizontal Kerning in Latin lookup 0"  {"'kern' Horizontal Kerning in Latin lookup 0 per glyph data 0"  "'kern' Horizontal Kerning in Latin lookup 0 per glyph data 1"  "'kern' Horizontal Kerning in Latin lookup 0 kerning class 2"  } ['kern' ('latn' <'dflt' > ) ]
DEI: 91125
KernClass2: 4+ 11 "'kern' Horizontal Kerning in Latin lookup 0 kerning class 2" 
 50 A Agrave Aacute Acircumflex Atilde Adieresis Aring
 18 Y Yacute Ydieresis
 8 L Lslash
 20 quotedbl quotesingle
 18 Y Yacute Ydieresis
 20 quotedbl quotesingle
 116 c d e o q s ccedilla egrave eacute ecircumflex edieresis ograve oacute ocircumflex otilde odieresis oslash oe scaron
 53 a agrave aacute acircumflex atilde adieresis aring ae
 40 u mu ugrave uacute ucircumflex udieresis
 39 i j igrave iacute icircumflex idieresis
 27 m n p r t z ntilde dotlessi

StartChar: exclam
Encoding: 33 33 7
Width: 295
GlyphClass: 2
Flags: W
LayerCount: 2
Fore
SplineSet
165 209 m 2,0,1
 162 185 162 185 132.5 185 c 128,-1,2
 103 185 103 185 103 203 c 0,3,4
 103 213 103 213 104 222 c 2,5,-1
 160 788 l 2,6,7
 163 827 163 827 206 827 c 128,-1,8
 249 827 249 827 249 795 c 0,9,10
 249 787 249 787 244 752 c 2,11,-1
 165 209 l 2,0,1
161 48 m 0,12,13
 161 -14 161 -14 104 -14 c 0,14,15
 59 -14 59 -14 59 24 c 0,16,17
 59 85 59 85 116 85 c 0,18,19
 161 85 161 85 161 48 c 0,12,13
EndSplineSet
EndChar

StartChar: quotedbl
Encoding: 34 34 8
Width: 430
GlyphClass: 2
Flags: W
LayerCount: 2
Fore
SplineSet
161 652 m 0,0,1
 155 628 155 628 127.5 628 c 128,-1,2
 100 628 100 628 100 644 c 128,-1,3
 100 660 100 660 121 874 c 0,4,5
 124 913 124 913 167 913 c 128,-1,6
 210 913 210 913 210 882 c 1,7,8
 207 863 207 863 161 652 c 0,0,1
321 652 m 0,9,10
 315 628 315 628 287.5 628 c 128,-1,11
 260 628 260 628 260 644 c 128,-1,12
 260 660 260 660 281 874 c 0,13,14
 284 913 284 913 327 913 c 128,-1,15
 370 913 370 913 370 882 c 1,16,17
 367 863 367 863 321 652 c 0,9,10
EndSplineSet
EndChar

StartChar: numbersign
Encoding: 35 35 9
Width: 831
GlyphClass: 2
Flags: W
LayerCount: 2
Fore
SplineSet
142 569 m 2,0,-1
 269 569 l 1,1,-1
 324 831 l 2,2,3
 330 857 330 857 371 857 c 0,4,5
 397 857 397 857 399 840 c 0,6,7
 399 834 399 834 396 819 c 2,8,-1
 343 569 l 1,9,-1
 549 569 l 1,10,-1
 604 831 l 2,11,12
 610 857 610 857 651 857 c 0,13,14
 677 857 677 857 679 840 c 0,15,16
 679 834 679 834 676 819 c 2,17,-1
 623 569 l 1,18,-1
 739 569 l 2,19,20
 766 569 766 569 766 538 c 0,21,22
 766 525 766 525 757.5 514 c 128,-1,23
 749 503 749 503 737 503 c 2,24,-1
 609 503 l 1,25,-1
 575 340 l 1,26,-1
 696 340 l 2,27,28
 705 340 705 340 711.5 331.5 c 128,-1,29
 718 323 718 323 718 310 c 128,-1,30
 718 297 718 297 710 285.5 c 128,-1,31
 702 274 702 274 687 274 c 2,32,-1
 561 274 l 1,33,-1
 506 11 l 2,34,35
 500 -14 500 -14 456 -14 c 0,36,37
 432 -14 432 -14 431 0 c 0,38,39
 431 1 431 1 434 19 c 2,40,-1
 487 274 l 1,41,-1
 281 274 l 1,42,-1
 226 11 l 2,43,44
 220 -14 220 -14 176 -14 c 0,45,46
 152 -14 152 -14 151 0 c 0,47,48
 151 1 151 1 154 19 c 2,49,-1
 207 274 l 1,50,-1
 86 274 l 2,51,52
 65 274 65 274 65 302 c 0,53,54
 65 317 65 317 73 328.5 c 128,-1,55
 81 340 81 340 94 340 c 2,56,-1
 221 340 l 1,57,-1
 255 503 l 1,58,-1
 133 503 l 2,59,60
 123 503 123 503 117.5 512.5 c 128,-1,61
 112 522 112 522 112 535 c 128,-1,62
 112 548 112 548 121 558.5 c 128,-1,63
 130 569 130 569 142 569 c 2,0,-1
329 503 m 1,64,-1
 295 340 l 1,65,-1
 501 340 l 1,66,-1
 535 503 l 1,67,-1
 329 503 l 1,64,-1
EndSplineSet
EndChar

StartChar: dollar
Encoding: 36 36 10
Width: 672
GlyphClass: 2
Flags: W
LayerCount: 2
Fore
SplineSet
214 -98 m 1,0,-1
 215 -87 l 1,1,-1
 228 -9 l 1,2,3
 155 4 155 4 104 48 c 0,4,5
 80 68 80 68 62.5 97.5 c 128,-1,6
 45 127 45 127 45 148 c 0,7,8
 45 189 45 189 77 189 c 0,9,10
 88 189 88 189 95.5 181.5 c 128,-1,11
 103 174 103 174 112.5 154 c 128,-1,12
 122 134 122 134 127 126 c 0,13,14
 170 64 170 64 239 53 c 1,15,-1
 304 418 l 1,16,17
 181 507 181 507 153 576 c 0,18,19
 140 608 140 608 140 645 c 0,20,21
 140 743 140 743 208 799.5 c 128,-1,22
 276 856 276 856 381 860 c 1,23,-1
 394 930 l 2,24,25
 398 951 398 951 404 957 c 128,-1,26
 410 963 410 963 427 963 c 128,-1,27
 444 963 444 963 448.5 957.5 c 128,-1,28
 453 952 453 952 453 930 c 1,29,-1
 440 856 l 1,30,31
 503 846 503 846 549.5 814 c 128,-1,32
 596 782 596 782 596 750.5 c 128,-1,33
 596 719 596 719 568 719 c 0,34,35
 555 719 555 719 514 751.5 c 128,-1,36
 473 784 473 784 429 793 c 1,37,-1
 372 467 l 1,38,39
 414 437 414 437 437.5 417.5 c 128,-1,40
 461 398 461 398 491 366 c 0,41,42
 549 306 549 306 549 225 c 0,43,44
 549 114 549 114 476.5 50.5 c 128,-1,45
 404 -13 404 -13 287 -14 c 1,46,-1
 274 -87 l 2,47,48
 270 -108 270 -108 264 -114 c 128,-1,49
 258 -120 258 -120 242 -120 c 128,-1,50
 226 -120 226 -120 220 -116 c 128,-1,51
 214 -112 214 -112 214 -98 c 1,0,-1
469 221 m 0,52,53
 469 265 469 265 439.5 302 c 128,-1,54
 410 339 410 339 356 379 c 1,55,-1
 298 50 l 1,56,57
 374 55 374 55 421.5 102 c 128,-1,58
 469 149 469 149 469 221 c 0,52,53
221 647 m 0,59,60
 221 608 221 608 246.5 574.5 c 128,-1,61
 272 541 272 541 319 505 c 1,62,-1
 370 796 l 1,63,64
 302 792 302 792 261.5 752 c 128,-1,65
 221 712 221 712 221 647 c 0,59,60
EndSplineSet
EndChar

StartChar: percent
Encoding: 37 37 11
Width: 1071
GlyphClass: 2
Flags: W
LayerCount: 2
Fore
SplineSet
409 -38 m 0,0,1
 385 -38 385 -38 385 -24 c 0,2,3
 385 -20 385 -20 390 -5 c 2,4,-1
 649 870 l 2,5,6
 657 896 657 896 698 896 c 0,7,8
 725 896 725 896 725 879 c 0,9,10
 725 875 725 875 720 858 c 2,11,-1
 461 -13 l 2,12,13
 453 -38 453 -38 409 -38 c 0,0,1
309 860 m 0,14,15
 397 860 397 860 435.5 801 c 128,-1,16
 474 742 474 742 474 650 c 0,17,18
 474 541 474 541 431 443 c 0,19,20
 409 393 409 393 366 362 c 128,-1,21
 323 331 323 331 265 331 c 0,22,23
 177 331 177 331 138.5 390 c 128,-1,24
 100 449 100 449 100 541 c 0,25,26
 100 650 100 650 144 748 c 0,27,28
 166 798 166 798 209 829 c 128,-1,29
 252 860 252 860 309 860 c 0,14,15
264 388 m 0,30,31
 306 388 306 388 336.5 417 c 128,-1,32
 367 446 367 446 382 492 c 0,33,34
 408 577 408 577 408 649 c 0,35,36
 408 803 408 803 307 803 c 0,37,38
 268 803 268 803 239.5 775.5 c 128,-1,39
 211 748 211 748 196 705 c 0,40,41
 167 622 167 622 167 537 c 0,42,43
 167 388 167 388 264 388 c 0,30,31
846 521 m 0,44,45
 934 521 934 521 972.5 462 c 128,-1,46
 1011 403 1011 403 1011 311 c 0,47,48
 1011 202 1011 202 968 104 c 0,49,50
 946 54 946 54 903 23 c 128,-1,51
 860 -8 860 -8 802 -8 c 0,52,53
 714 -8 714 -8 675.5 51 c 128,-1,54
 637 110 637 110 637 202 c 0,55,56
 637 311 637 311 680 408 c 0,57,58
 703 459 703 459 746 490 c 128,-1,59
 789 521 789 521 846 521 c 0,44,45
801 49 m 0,60,61
 843 49 843 49 873.5 78 c 128,-1,62
 904 107 904 107 918 154 c 1,63,64
 945 238 945 238 945 310 c 0,65,66
 945 464 945 464 844 464 c 0,67,68
 805 464 805 464 776.5 436.5 c 128,-1,69
 748 409 748 409 733 366 c 0,70,71
 704 283 704 283 704 198 c 0,72,73
 704 49 704 49 801 49 c 0,60,61
EndSplineSet
EndChar

StartChar: ampersand
Encoding: 38 38 12
Width: 735
GlyphClass: 2
Flags: W
LayerCount: 2
Fore
SplineSet
315 -14 m 0,0,1
 202 -14 202 -14 130.5 49 c 128,-1,2
 59 112 59 112 59 220 c 0,3,4
 59 367 59 367 213 459 c 2,5,-1
 263 489 l 1,6,7
 234 530 234 530 220 552 c 0,8,9
 182 614 182 614 182 678 c 0,10,11
 182 770 182 770 242 821 c 128,-1,12
 302 872 302 872 388 872 c 128,-1,13
 474 872 474 872 528 827.5 c 128,-1,14
 582 783 582 783 582 711 c 128,-1,15
 582 639 582 639 539.5 591.5 c 128,-1,16
 497 544 497 544 416 495 c 2,17,-1
 373 469 l 1,18,-1
 568 217 l 1,19,20
 604 283 604 283 614 332 c 0,21,22
 621 363 621 363 649 363 c 0,23,24
 688 363 688 363 688 329 c 0,25,26
 688 260 688 260 617 154 c 1,27,-1
 654 107 l 2,28,29
 672 83 672 83 690.5 68 c 128,-1,30
 709 53 709 53 719 49 c 0,31,32
 742 40 742 40 742 22.5 c 128,-1,33
 742 5 742 5 730 -4.5 c 128,-1,34
 718 -14 718 -14 703 -14 c 0,35,36
 657 -14 657 -14 595 65 c 2,37,-1
 572 94 l 1,38,39
 478 -14 478 -14 315 -14 c 0,0,1
191 98.5 m 128,-1,41
 243 52 243 52 314.5 52 c 128,-1,42
 386 52 386 52 440.5 79 c 128,-1,43
 495 106 495 106 527 151 c 1,44,-1
 306 432 l 1,45,-1
 256 402 l 2,46,47
 139 332 139 332 139 222 c 0,48,40
 139 145 139 145 191 98.5 c 128,-1,41
503 705 m 0,49,50
 503 750 503 750 472 778.5 c 128,-1,51
 441 807 441 807 386.5 807 c 128,-1,52
 332 807 332 807 296 772.5 c 128,-1,53
 260 738 260 738 260 678 c 0,54,55
 260 649 260 649 272 620 c 128,-1,56
 284 591 284 591 296.5 573.5 c 128,-1,57
 309 556 309 556 333 526 c 1,58,-1
 366 545 l 2,59,60
 469 604 469 604 492 654 c 0,61,62
 503 677 503 677 503 705 c 0,49,50
EndSplineSet
EndChar

StartChar: quotesingle
Encoding: 39 39 13
Width: 270
GlyphClass: 2
Flags: W
LayerCount: 2
Fore
SplineSet
161 652 m 0,0,1
 155 628 155 628 127.5 628 c 128,-1,2
 100 628 100 628 100 644 c 128,-1,3
 100 660 100 660 121 874 c 0,4,5
 124 913 124 913 167 913 c 128,-1,6
 210 913 210 913 210 882 c 1,7,8
 207 863 207 863 161 652 c 0,0,1
EndSplineSet
EndChar

StartChar: parenleft
Encoding: 40 40 14
Width: 434
GlyphClass: 2
Flags: W
LayerCount: 2
Fore
SplineSet
283 -34 m 0,0,1
 317 -34 317 -34 317 -70 c 0,2,3
 317 -85 317 -85 307 -94.5 c 128,-1,4
 297 -104 297 -104 282 -104 c 0,5,6
 223 -104 223 -104 180.5 -72 c 128,-1,7
 138 -40 138 -40 114 18 c 0,8,9
 69 125 69 125 69 299 c 0,10,11
 69 536 69 536 149 733 c 0,12,13
 188 829 188 829 253.5 888 c 128,-1,14
 319 947 319 947 402 947 c 0,15,16
 434 947 434 947 434 912 c 128,-1,17
 434 877 434 877 402 877 c 0,18,19
 338 877 338 877 287 821 c 128,-1,20
 236 765 236 765 208 676 c 0,21,22
 149 495 149 495 149 301 c 0,23,24
 149 68 149 68 219 -6 c 0,25,26
 246 -34 246 -34 283 -34 c 0,0,1
EndSplineSet
EndChar

StartChar: parenright
Encoding: 41 41 15
Width: 434
GlyphClass: 2
Flags: W
LayerCount: 2
Fore
SplineSet
151 876 m 0,0,1
 117 876 117 876 117 912 c 0,2,3
 117 927 117 927 127 936.5 c 128,-1,4
 137 946 137 946 152 946 c 0,5,6
 211 946 211 946 253.5 914 c 128,-1,7
 296 882 296 882 320 824 c 0,8,9
 365 717 365 717 365 543 c 0,10,11
 365 306 365 306 285 109 c 0,12,13
 246 13 246 13 180.5 -46 c 128,-1,14
 115 -105 115 -105 32 -105 c 0,15,16
 0 -105 0 -105 0 -70 c 128,-1,17
 0 -35 0 -35 32 -35 c 0,18,19
 96 -35 96 -35 147 21 c 128,-1,20
 198 77 198 77 226 166 c 0,21,22
 285 347 285 347 285 541 c 0,23,24
 285 774 285 774 215 848 c 0,25,26
 188 876 188 876 151 876 c 0,0,1
EndSplineSet
EndChar

StartChar: asterisk
Encoding: 42 42 16
Width: 570
GlyphClass: 2
Flags: W
LayerCount: 2
Fore
SplineSet
467 660 m 2,0,1
 474 663 474 663 487 663 c 128,-1,2
 500 663 500 663 510 649.5 c 128,-1,3
 520 636 520 636 520 614.5 c 128,-1,4
 520 593 520 593 498 587 c 2,5,-1
 360 553 l 1,6,-1
 448 446 l 2,7,8
 456 436 456 436 456 422.5 c 128,-1,9
 456 409 456 409 441.5 396 c 128,-1,10
 427 383 427 383 410 383 c 128,-1,11
 393 383 393 383 386 396 c 1,12,-1
 310 516 l 1,13,-1
 237 403 l 2,14,15
 225 384 225 384 207.5 384 c 128,-1,16
 190 384 190 384 176 397.5 c 128,-1,17
 162 411 162 411 162 424 c 128,-1,18
 162 437 162 437 168 444 c 2,19,-1
 260 554 l 1,20,-1
 131 587 l 2,21,22
 100 595 100 595 100 623 c 0,23,24
 100 636 100 636 110.5 651.5 c 128,-1,25
 121 667 121 667 132.5 667 c 128,-1,26
 144 667 144 667 147 666 c 2,27,-1
 279 612 l 1,28,-1
 273 689 l 2,29,30
 269 733 269 733 269 749 c 0,31,32
 269 785 269 785 308 785 c 128,-1,33
 347 785 347 785 347 751 c 2,34,-1
 347 748 l 2,35,36
 347 746 347 746 346.5 738 c 128,-1,37
 346 730 346 730 345.5 716 c 128,-1,38
 345 702 345 702 343.5 675 c 128,-1,39
 342 648 342 648 341 613 c 1,40,-1
 467 660 l 2,0,1
EndSplineSet
EndChar

StartChar: plus
Encoding: 43 43 17
Width: 672
GlyphClass: 2
Flags: W
LayerCount: 2
Fore
SplineSet
104 378 m 2,0,1
 84 378 84 378 84 411 c 128,-1,2
 84 444 84 444 111 444 c 2,3,-1
 307 444 l 1,4,-1
 330 645 l 2,5,6
 333 669 333 669 365 669 c 0,7,8
 377 669 377 669 386.5 663.5 c 128,-1,9
 396 658 396 658 396 652 c 128,-1,10
 396 646 396 646 372 444 c 1,11,-1
 566 444 l 2,12,13
 576 444 576 444 582 434.5 c 128,-1,14
 588 425 588 425 588 412 c 128,-1,15
 588 399 588 399 580 388.5 c 128,-1,16
 572 378 572 378 560 378 c 2,17,-1
 364 378 l 1,18,-1
 337 164 l 2,19,20
 334 141 334 141 303 141 c 128,-1,21
 272 141 272 141 272 161 c 0,22,23
 272 162 272 162 277 201 c 2,24,-1
 298 378 l 1,25,-1
 104 378 l 2,0,1
EndSplineSet
EndChar

StartChar: comma
Encoding: 44 44 18
Width: 231
GlyphClass: 2
Flags: W
LayerCount: 2
Fore
SplineSet
112 -178 m 0,0,1
 104 -202 104 -202 77 -202 c 128,-1,2
 50 -202 50 -202 50 -184 c 0,3,4
 50 -183 50 -183 50.5 -180.5 c 128,-1,5
 51 -178 51 -178 52 -171 c 128,-1,6
 53 -164 53 -164 55 -154.5 c 128,-1,7
 57 -145 57 -145 60.5 -126.5 c 128,-1,8
 64 -108 64 -108 68 -86.5 c 128,-1,9
 72 -65 72 -65 78.5 -30 c 128,-1,10
 85 5 85 5 92 44 c 128,-1,11
 99 83 99 83 140 83 c 128,-1,12
 181 83 181 83 181 53 c 0,13,14
 181 28 181 28 112 -178 c 0,0,1
EndSplineSet
EndChar

StartChar: hyphen
Encoding: 45 45 19
Width: 458
GlyphClass: 2
Flags: W
LayerCount: 2
Fore
SplineSet
94 297 m 2,0,-1
 365 297 l 2,1,2
 376 297 376 297 382 288.5 c 128,-1,3
 388 280 388 280 388 268.5 c 128,-1,4
 388 257 388 257 380.5 248 c 128,-1,5
 373 239 373 239 361 239 c 2,6,-1
 87 239 l 2,7,8
 68 239 68 239 68 268 c 128,-1,9
 68 297 68 297 94 297 c 2,0,-1
EndSplineSet
EndChar

StartChar: period
Encoding: 46 46 20
Width: 202
GlyphClass: 2
Flags: W
LayerCount: 2
Fore
SplineSet
152 48 m 0,0,1
 152 -14 152 -14 95 -14 c 0,2,3
 50 -14 50 -14 50 24 c 0,4,5
 50 85 50 85 107 85 c 0,6,7
 152 85 152 85 152 48 c 0,0,1
EndSplineSet
EndChar

StartChar: slash
Encoding: 47 47 21
Width: 482
GlyphClass: 2
Flags: W
LayerCount: 2
Fore
SplineSet
104 -38 m 0,0,1
 80 -38 80 -38 80 -24 c 0,2,3
 80 -20 80 -20 85 -5 c 2,4,-1
 344 870 l 2,5,6
 352 896 352 896 393 896 c 0,7,8
 420 896 420 896 420 879 c 0,9,10
 420 875 420 875 415 858 c 2,11,-1
 156 -13 l 2,12,13
 148 -38 148 -38 104 -38 c 0,0,1
EndSplineSet
EndChar

StartChar: zero
Encoding: 48 48 22
Width: 672
GlyphClass: 2
Flags: W
LayerCount: 2
Fore
SplineSet
231.5 822 m 128,-1,1
 292 857 292 857 366.5 857 c 128,-1,2
 441 857 441 857 494.5 829 c 128,-1,3
 548 801 548 801 578 751 c 0,4,5
 634 655 634 655 634 515 c 0,6,7
 634 365 634 365 590 237 c 0,8,9
 566 165 566 165 528.5 110.5 c 128,-1,10
 491 56 491 56 430.5 21 c 128,-1,11
 370 -14 370 -14 295 -14 c 128,-1,12
 220 -14 220 -14 166.5 14 c 128,-1,13
 113 42 113 42 84 92 c 1,14,15
 27 186 27 186 27 328 c 0,16,17
 27 478 27 478 71 605 c 0,18,19
 96 677 96 677 133.5 732 c 128,-1,0
 171 787 171 787 231.5 822 c 128,-1,1
291 53 m 0,20,21
 353 53 353 53 401 88.5 c 128,-1,22
 449 124 449 124 477 176.5 c 128,-1,23
 505 229 505 229 522 298 c 0,24,25
 552 416 552 416 552 539 c 0,26,27
 552 634 552 634 512 707 c 0,28,29
 492 745 492 745 453.5 767.5 c 128,-1,30
 415 790 415 790 361 790 c 128,-1,31
 307 790 307 790 262 757 c 128,-1,32
 217 724 217 724 189.5 674 c 128,-1,33
 162 624 162 624 144 559 c 0,34,35
 111 445 111 445 111 321 c 0,36,37
 111 53 111 53 291 53 c 0,20,21
EndSplineSet
EndChar

StartChar: one
Encoding: 49 49 23
Width: 672
GlyphClass: 2
Flags: W
LayerCount: 2
Fore
SplineSet
239.5 566 m 128,-1,1
 149 490 149 490 112.5 490 c 128,-1,2
 76 490 76 490 76 521 c 0,3,4
 76 538 76 538 97 552 c 0,5,6
 179 606 179 606 237.5 658.5 c 128,-1,7
 296 711 296 711 320 745.5 c 128,-1,8
 344 780 344 780 360.5 807.5 c 128,-1,9
 377 835 377 835 389.5 847.5 c 128,-1,10
 402 860 402 860 422 860 c 0,11,12
 462 860 462 860 462 830 c 0,13,14
 462 813 462 813 455 757 c 2,15,-1
 374 66 l 1,16,-1
 535 66 l 2,17,18
 570 66 570 66 570 35 c 0,19,20
 570 19 570 19 559.5 9.5 c 128,-1,21
 549 0 549 0 531 0 c 2,22,-1
 128 0 l 2,23,24
 93 0 93 0 93 31 c 0,25,26
 93 47 93 47 103.5 56.5 c 128,-1,27
 114 66 114 66 132 66 c 2,28,-1
 293 66 l 1,29,-1
 370 701 l 1,30,0
 330 642 330 642 239.5 566 c 128,-1,1
EndSplineSet
EndChar

StartChar: two
Encoding: 50 50 24
Width: 672
GlyphClass: 2
Flags: W
LayerCount: 2
Fore
SplineSet
500 634 m 0,0,1
 500 707 500 707 458 748.5 c 128,-1,2
 416 790 416 790 343 790 c 0,3,4
 299 790 299 790 265 774 c 128,-1,5
 231 758 231 758 215 740 c 0,6,7
 171 689 171 689 146 689 c 0,8,9
 113 689 113 689 113 725 c 128,-1,10
 113 761 113 761 179 809 c 128,-1,11
 245 857 245 857 348.5 857 c 128,-1,12
 452 857 452 857 517 798.5 c 128,-1,13
 582 740 582 740 582 640 c 0,14,15
 582 517 582 517 490 396 c 0,16,17
 445 337 445 337 404.5 295 c 128,-1,18
 364 253 364 253 306 199 c 2,19,-1
 165 69 l 1,20,-1
 545 69 l 2,21,22
 559 69 559 69 568 60.5 c 128,-1,23
 577 52 577 52 577 38 c 0,24,25
 577 0 577 0 535 0 c 2,26,-1
 90 0 l 2,27,28
 47 0 47 0 47 35 c 0,29,30
 47 57 47 57 62 71 c 2,31,-1
 255 251 l 2,32,33
 313 306 313 306 351 345.5 c 128,-1,34
 389 385 389 385 426 435 c 0,35,36
 500 533 500 533 500 634 c 0,0,1
EndSplineSet
EndChar

StartChar: three
Encoding: 51 51 25
Width: 672
GlyphClass: 2
Flags: W
LayerCount: 2
Fore
SplineSet
265 489 m 0,0,1
 344 489 344 489 412 536 c 128,-1,2
 480 583 480 583 480 662 c 0,3,4
 480 725 480 725 438.5 757.5 c 128,-1,5
 397 790 397 790 325.5 790 c 128,-1,6
 254 790 254 790 202 745 c 0,7,8
 166 715 166 715 153 715 c 0,9,10
 119 715 119 715 119 746 c 0,11,12
 119 766 119 766 139 784 c 1,13,14
 173 819 173 819 226 838 c 128,-1,15
 279 857 279 857 335 857 c 0,16,17
 435 857 435 857 500.5 806 c 128,-1,18
 566 755 566 755 566 662 c 0,19,20
 566 595 566 595 525 541.5 c 128,-1,21
 484 488 484 488 416 462 c 1,22,23
 482 438 482 438 526.5 378 c 128,-1,24
 571 318 571 318 571 249 c 0,25,26
 571 120 571 120 485.5 53 c 128,-1,27
 400 -14 400 -14 260 -14 c 0,28,29
 161 -14 161 -14 84.5 45 c 128,-1,30
 8 104 8 104 8 168 c 0,31,32
 8 184 8 184 17.5 193 c 128,-1,33
 27 202 27 202 47 202 c 128,-1,34
 67 202 67 202 73 183 c 1,35,36
 100 122 100 122 151.5 89.5 c 128,-1,37
 203 57 203 57 270 57 c 0,38,39
 362 57 362 57 425.5 109 c 128,-1,40
 489 161 489 161 489 247.5 c 128,-1,41
 489 334 489 334 423 378.5 c 128,-1,42
 357 423 357 423 260 423 c 0,43,44
 246 423 246 423 236 432 c 128,-1,45
 226 441 226 441 226 455 c 0,46,47
 226 489 226 489 265 489 c 0,0,1
EndSplineSet
EndChar

StartChar: four
Encoding: 52 52 26
Width: 672
GlyphClass: 2
Flags: W
LayerCount: 2
Fore
SplineSet
467 18 m 2,0,1
 463 -14 463 -14 427 -14 c 128,-1,2
 391 -14 391 -14 391 15 c 1,3,4
 392 32 392 32 417 238 c 1,5,-1
 75 238 l 2,6,7
 32 238 32 238 32 269 c 0,8,9
 32 280 32 280 44 309 c 2,10,-1
 193 639 l 2,11,12
 230 721 230 721 238.5 757.5 c 128,-1,13
 247 794 247 794 247 844 c 0,14,15
 247 872 247 872 278 872 c 0,16,17
 322 872 322 872 322 808 c 128,-1,18
 322 744 322 744 261 608 c 2,19,-1
 125 307 l 1,20,-1
 426 307 l 1,21,22
 444 460 444 460 490 828 c 0,23,24
 494 860 494 860 531 860 c 128,-1,25
 568 860 568 860 568 836 c 1,26,-1
 565 812 l 1,27,28
 535 581 535 581 502 307 c 1,29,-1
 579 307 l 2,30,31
 594 307 594 307 603.5 298.5 c 128,-1,32
 613 290 613 290 613 276 c 0,33,34
 613 238 613 238 573 238 c 2,35,-1
 494 238 l 1,36,-1
 467 18 l 2,0,1
EndSplineSet
EndChar

StartChar: five
Encoding: 53 53 27
Width: 672
GlyphClass: 2
Flags: W
LayerCount: 2
Fore
SplineSet
234 843 m 2,0,-1
 555 843 l 2,1,2
 589 843 589 843 589 815 c 0,3,4
 589 777 589 777 550 777 c 2,5,-1
 256 777 l 1,6,-1
 209 522 l 1,7,8
 584 522 584 522 584 265 c 0,9,10
 584 131 584 131 506.5 58.5 c 128,-1,11
 429 -14 429 -14 298 -14 c 0,12,13
 188 -14 188 -14 113.5 43.5 c 128,-1,14
 39 101 39 101 39 177 c 0,15,16
 39 213 39 213 76 213 c 0,17,18
 98 213 98 213 107 191 c 0,19,20
 137 122 137 122 181.5 89.5 c 128,-1,21
 226 57 226 57 308 57 c 128,-1,22
 390 57 390 57 445.5 109 c 128,-1,23
 501 161 501 161 501 255 c 0,24,25
 501 373 501 373 408 416 c 1,26,27
 324 453 324 453 195 453 c 0,28,29
 131 453 131 453 130 491 c 0,30,31
 130 498 130 498 131 502 c 2,32,-1
 186 802 l 2,33,34
 191 825 191 825 201 834 c 128,-1,35
 211 843 211 843 234 843 c 2,0,-1
EndSplineSet
EndChar

StartChar: six
Encoding: 54 54 28
Width: 672
GlyphClass: 2
Flags: W
LayerCount: 2
Fore
SplineSet
139 413 m 1,0,1
 134 360 134 360 134 313.5 c 128,-1,2
 134 267 134 267 142 224 c 128,-1,3
 150 181 150 181 168.5 140.5 c 128,-1,4
 187 100 187 100 223.5 76.5 c 128,-1,5
 260 53 260 53 312 53 c 0,6,7
 404 53 404 53 453.5 119 c 128,-1,8
 503 185 503 185 503 276 c 0,9,10
 503 459 503 459 335 459 c 0,11,12
 276 459 276 459 199 416 c 0,13,14
 174 402 174 402 160 402 c 128,-1,15
 146 402 146 402 139 413 c 1,0,1
342 529 m 0,16,17
 456 529 456 529 521.5 464.5 c 128,-1,18
 587 400 587 400 587 286 c 0,19,20
 587 150 587 150 512 68 c 128,-1,21
 437 -14 437 -14 305 -14 c 0,22,23
 236 -14 236 -14 184.5 13 c 128,-1,24
 133 40 133 40 104 88 c 0,25,26
 49 180 49 180 49 314 c 0,27,28
 49 477 49 477 90 604 c 0,29,30
 114 679 114 679 151.5 733 c 128,-1,31
 189 787 189 787 253 822 c 128,-1,32
 317 857 317 857 400 857 c 0,33,34
 452 857 452 857 503.5 840 c 128,-1,35
 555 823 555 823 582 796 c 128,-1,36
 609 769 609 769 609 750 c 0,37,38
 609 720 609 720 575 720 c 0,39,40
 562 720 562 720 540 738 c 0,41,42
 476 790 476 790 399 790 c 0,43,44
 184 790 184 790 141 451 c 1,45,46
 171 485 171 485 230.5 507 c 128,-1,47
 290 529 290 529 342 529 c 0,16,17
EndSplineSet
EndChar

StartChar: seven
Encoding: 55 55 29
Width: 672
GlyphClass: 2
Flags: W
LayerCount: 2
Fore
SplineSet
139 843 m 2,0,-1
 566 843 l 2,1,2
 609 843 609 843 609 812 c 0,3,4
 609 801 609 801 597 772 c 1,5,-1
 323 219 l 2,6,7
 283 138 283 138 273.5 101 c 128,-1,8
 264 64 264 64 264 14 c 0,9,10
 264 -14 264 -14 235.5 -14 c 128,-1,11
 207 -14 207 -14 198 0 c 128,-1,12
 189 14 189 14 189 44 c 0,13,14
 189 127 189 127 250 250 c 2,15,-1
 509 774 l 1,16,-1
 133 774 l 2,17,18
 118 774 118 774 108.5 782.5 c 128,-1,19
 99 791 99 791 99 805 c 0,20,21
 99 843 99 843 139 843 c 2,0,-1
EndSplineSet
EndChar

StartChar: eight
Encoding: 56 56 30
Width: 672
GlyphClass: 2
Flags: W
LayerCount: 2
Fore
SplineSet
594 239 m 0,0,1
 594 114 594 114 515 50 c 128,-1,2
 436 -14 436 -14 316.5 -14 c 128,-1,3
 197 -14 197 -14 119.5 44 c 128,-1,4
 42 102 42 102 42 202 c 0,5,6
 42 392 42 392 226 455 c 1,7,8
 116 520 116 520 116 638 c 0,9,10
 116 742 116 742 189.5 799.5 c 128,-1,11
 263 857 263 857 367 857 c 128,-1,12
 471 857 471 857 543.5 803.5 c 128,-1,13
 616 750 616 750 616 665 c 128,-1,14
 616 580 616 580 571 526 c 128,-1,15
 526 472 526 472 449 445 c 1,16,17
 512 414 512 414 553 359 c 128,-1,18
 594 304 594 304 594 239 c 0,0,1
533 655 m 0,19,20
 533 708 533 708 494 748.5 c 128,-1,21
 455 789 455 789 372 789 c 128,-1,22
 289 789 289 789 244 745.5 c 128,-1,23
 199 702 199 702 199 641.5 c 128,-1,24
 199 581 199 581 243.5 542.5 c 128,-1,25
 288 504 288 504 356 487 c 1,26,27
 533 527 533 527 533 655 c 0,19,20
508 234 m 0,28,29
 508 300 508 300 451.5 351.5 c 128,-1,30
 395 403 395 403 323 412 c 1,31,32
 233 399 233 399 178.5 347 c 128,-1,33
 124 295 124 295 124 217.5 c 128,-1,34
 124 140 124 140 175.5 95 c 128,-1,35
 227 50 227 50 310 50 c 128,-1,36
 393 50 393 50 450.5 100 c 128,-1,37
 508 150 508 150 508 234 c 0,28,29
EndSplineSet
EndChar

StartChar: nine
Encoding: 57 57 31
Width: 672
GlyphClass: 2
Flags: W
LayerCount: 2
Fore
SplineSet
519 430 m 1,0,1
 524 483 524 483 524 529.5 c 128,-1,2
 524 576 524 576 516 618.5 c 128,-1,3
 508 661 508 661 489.5 702 c 128,-1,4
 471 743 471 743 433.5 766.5 c 128,-1,5
 396 790 396 790 344 790 c 0,6,7
 252 790 252 790 203 724 c 128,-1,8
 154 658 154 658 154 568 c 0,9,10
 154 384 154 384 323 384 c 0,11,12
 384 384 384 384 458 429 c 0,13,14
 482 444 482 444 496 444 c 128,-1,15
 510 444 510 444 519 430 c 1,0,1
316 312 m 0,16,17
 202 312 202 312 136 377.5 c 128,-1,18
 70 443 70 443 70 557 c 0,19,20
 70 692 70 692 145.5 774.5 c 128,-1,21
 221 857 221 857 353 857 c 0,22,23
 422 857 422 857 473.5 830 c 128,-1,24
 525 803 525 803 554 756 c 1,25,26
 609 663 609 663 609 529 c 0,27,28
 609 366 609 366 568 238 c 0,29,30
 544 164 544 164 506.5 110 c 128,-1,31
 469 56 469 56 405 21 c 128,-1,32
 341 -14 341 -14 258 -14 c 0,33,34
 139 -14 139 -14 73 52 c 0,35,36
 50 75 50 75 50 93 c 0,37,38
 50 127 50 127 85 127 c 0,39,40
 99 127 99 127 142 90 c 0,41,42
 159 76 159 76 190 64.5 c 128,-1,43
 221 53 221 53 259 53 c 0,44,45
 474 53 474 53 517 392 c 1,46,47
 492 359 492 359 430 335.5 c 128,-1,48
 368 312 368 312 316 312 c 0,16,17
EndSplineSet
EndChar

StartChar: colon
Encoding: 58 58 32
Width: 202
GlyphClass: 2
Flags: W
LayerCount: 2
Fore
SplineSet
152 48 m 0,0,1
 152 -14 152 -14 95 -14 c 0,2,3
 50 -14 50 -14 50 24 c 0,4,5
 50 85 50 85 107 85 c 0,6,7
 152 85 152 85 152 48 c 0,0,1
195 402 m 0,8,9
 195 340 195 340 138 340 c 0,10,11
 93 340 93 340 93 378 c 0,12,13
 93 439 93 439 150 439 c 0,14,15
 195 439 195 439 195 402 c 0,8,9
EndSplineSet
EndChar

StartChar: semicolon
Encoding: 59 59 33
Width: 202
GlyphClass: 2
Flags: W
LayerCount: 2
Fore
SplineSet
195 402 m 0,0,1
 195 340 195 340 138 340 c 0,2,3
 93 340 93 340 93 378 c 0,4,5
 93 439 93 439 150 439 c 0,6,7
 195 439 195 439 195 402 c 0,0,1
78 -178 m 0,8,9
 70 -202 70 -202 43 -202 c 128,-1,10
 16 -202 16 -202 16 -184 c 0,11,12
 16 -183 16 -183 16.5 -180.5 c 128,-1,13
 17 -178 17 -178 18 -171 c 128,-1,14
 19 -164 19 -164 21 -154.5 c 128,-1,15
 23 -145 23 -145 26.5 -126.5 c 128,-1,16
 30 -108 30 -108 34 -86.5 c 128,-1,17
 38 -65 38 -65 44.5 -30 c 128,-1,18
 51 5 51 5 58 44 c 128,-1,19
 65 83 65 83 106 83 c 128,-1,20
 147 83 147 83 147 53 c 0,21,22
 147 28 147 28 78 -178 c 0,8,9
EndSplineSet
EndChar

StartChar: less
Encoding: 60 60 34
Width: 672
GlyphClass: 2
Flags: W
LayerCount: 2
Fore
SplineSet
528 260 m 2,0,1
 539 256 539 256 539 239.5 c 128,-1,2
 539 223 539 223 528 210.5 c 128,-1,3
 517 198 517 198 505.5 198 c 128,-1,4
 494 198 494 198 490 200 c 2,5,-1
 109 375 l 2,6,7
 83 387 83 387 83 406 c 128,-1,8
 83 425 83 425 89 432 c 128,-1,9
 95 439 95 439 117 448 c 2,10,-1
 540 624 l 2,11,12
 544 626 544 626 554.5 626 c 128,-1,13
 565 626 565 626 573.5 614.5 c 128,-1,14
 582 603 582 603 582 586 c 128,-1,15
 582 569 582 569 567 563 c 2,16,-1
 192 414 l 1,17,-1
 192 407 l 1,18,-1
 528 260 l 2,0,1
EndSplineSet
EndChar

StartChar: equal
Encoding: 61 61 35
Width: 672
GlyphClass: 2
Flags: W
LayerCount: 2
Fore
SplineSet
105 346 m 2,0,-1
 549 346 l 2,1,2
 558 346 558 346 564.5 337.5 c 128,-1,3
 571 329 571 329 571 316 c 128,-1,4
 571 303 571 303 563 291.5 c 128,-1,5
 555 280 555 280 540 280 c 2,6,-1
 97 280 l 2,7,8
 76 280 76 280 76 308 c 0,9,10
 76 323 76 323 84 334.5 c 128,-1,11
 92 346 92 346 105 346 c 2,0,-1
129 539 m 2,12,-1
 568 539 l 2,13,14
 595 539 595 539 595 508 c 0,15,16
 595 495 595 495 586.5 484 c 128,-1,17
 578 473 578 473 566 473 c 2,18,-1
 120 473 l 2,19,20
 110 473 110 473 104.5 482.5 c 128,-1,21
 99 492 99 492 99 505 c 128,-1,22
 99 518 99 518 108 528.5 c 128,-1,23
 117 539 117 539 129 539 c 2,12,-1
EndSplineSet
EndChar

StartChar: greater
Encoding: 62 62 36
Width: 672
GlyphClass: 2
Flags: W
LayerCount: 2
Fore
SplineSet
144 564 m 2,0,1
 133 568 133 568 133 584.5 c 128,-1,2
 133 601 133 601 144 613.5 c 128,-1,3
 155 626 155 626 166.5 626 c 128,-1,4
 178 626 178 626 182 624 c 2,5,-1
 563 449 l 2,6,7
 589 437 589 437 589 418 c 128,-1,8
 589 399 589 399 583 392 c 128,-1,9
 577 385 577 385 555 376 c 2,10,-1
 132 200 l 2,11,12
 128 198 128 198 117.5 198 c 128,-1,13
 107 198 107 198 98.5 209.5 c 128,-1,14
 90 221 90 221 90 238 c 128,-1,15
 90 255 90 255 105 261 c 2,16,-1
 480 410 l 1,17,-1
 480 417 l 1,18,-1
 144 564 l 2,0,1
EndSplineSet
EndChar

StartChar: question
Encoding: 63 63 37
Width: 511
GlyphClass: 2
Flags: W
LayerCount: 2
Fore
SplineSet
211 209 m 2,0,1
 208 185 208 185 179 185 c 128,-1,2
 150 185 150 185 150 207 c 0,3,4
 150 209 150 209 160 308 c 0,5,6
 164 352 164 352 188.5 390 c 128,-1,7
 213 428 213 428 244.5 455 c 128,-1,8
 276 482 276 482 307 508 c 0,9,10
 381 572 381 572 381 641 c 0,11,12
 381 696 381 696 347.5 726.5 c 128,-1,13
 314 757 314 757 258 757 c 0,14,15
 223 757 223 757 195.5 740.5 c 128,-1,16
 168 724 168 724 154 704.5 c 128,-1,17
 140 685 140 685 125.5 668.5 c 128,-1,18
 111 652 111 652 99 652 c 0,19,20
 64 652 64 652 64 688 c 128,-1,21
 64 724 64 724 124 775 c 128,-1,22
 184 826 184 826 265 826 c 128,-1,23
 346 826 346 826 402.5 778 c 128,-1,24
 459 730 459 730 459 645 c 0,25,26
 459 558 459 558 382 490 c 0,27,28
 350 462 350 462 317 436 c 0,29,30
 235 370 235 370 225 304 c 2,31,-1
 211 209 l 2,0,1
213 48 m 0,32,33
 213 -14 213 -14 156 -14 c 0,34,35
 111 -14 111 -14 111 24 c 0,36,37
 111 85 111 85 168 85 c 0,38,39
 213 85 213 85 213 48 c 0,32,33
EndSplineSet
EndChar

StartChar: at
Encoding: 64 64 38
Width: 886
GlyphClass: 2
Flags: W
LayerCount: 2
Fore
SplineSet
528 92 m 1,0,1
 477 -14 477 -14 361 -14 c 0,2,3
 289 -14 289 -14 249.5 35 c 128,-1,4
 210 84 210 84 210 161 c 0,5,6
 210 300 210 300 305.5 395 c 128,-1,7
 401 490 401 490 543 490 c 0,8,9
 590 490 590 490 611.5 483.5 c 128,-1,10
 633 477 633 477 633 455 c 0,11,12
 633 450 633 450 614.5 295 c 128,-1,13
 596 140 596 140 596 115 c 0,14,15
 596 39 596 39 651 39 c 0,16,17
 688 39 688 39 716.5 73 c 128,-1,18
 745 107 745 107 760 159 c 0,19,20
 791 261 791 261 791 354 c 0,21,22
 791 508 791 508 717.5 598.5 c 128,-1,23
 644 689 644 689 500 689 c 0,24,25
 403 689 403 689 324 642.5 c 128,-1,26
 245 596 245 596 196 519 c 0,27,28
 95 360 95 360 95 151 c 0,29,30
 95 -12 95 -12 177.5 -120 c 128,-1,31
 260 -228 260 -228 409 -228 c 0,32,33
 521 -228 521 -228 615 -190 c 0,34,35
 631 -183 631 -183 639.5 -183 c 128,-1,36
 648 -183 648 -183 654 -190.5 c 128,-1,37
 660 -198 660 -198 660 -209.5 c 128,-1,38
 660 -221 660 -221 641 -230 c 0,39,40
 545 -276 545 -276 400 -276 c 0,41,42
 228 -276 228 -276 134.5 -156 c 128,-1,43
 41 -36 41 -36 41 151 c 0,44,45
 41 266 41 266 72 370.5 c 128,-1,46
 103 475 103 475 160 556.5 c 128,-1,47
 217 638 217 638 307.5 686.5 c 128,-1,48
 398 735 398 735 508 735 c 0,49,50
 671 735 671 735 758.5 631.5 c 128,-1,51
 846 528 846 528 846 357 c 0,52,53
 846 181 846 181 780 72 c 0,54,55
 757 34 757 34 720.5 10 c 128,-1,56
 684 -14 684 -14 637 -14 c 128,-1,57
 590 -14 590 -14 559 15 c 128,-1,58
 528 44 528 44 528 92 c 1,0,1
382 50 m 0,59,60
 511 50 511 50 542 294 c 2,61,-1
 560 438 l 1,62,63
 555 441 555 441 535 441 c 0,64,65
 430 441 430 441 359 360 c 128,-1,66
 288 279 288 279 288 171 c 0,67,68
 288 119 288 119 312 84.5 c 128,-1,69
 336 50 336 50 382 50 c 0,59,60
EndSplineSet
EndChar

StartChar: A
Encoding: 65 65 39
Width: 700
GlyphClass: 2
Flags: W
LayerCount: 2
Fore
SplineSet
402 759 m 1,0,-1
 182 286 l 1,1,-1
 497 286 l 1,2,-1
 402 759 l 1,0,-1
357 843 m 2,3,4
 370 872 370 872 413.5 872 c 128,-1,5
 457 872 457 872 463 843 c 0,6,7
 636 12 636 12 636 11 c 0,8,9
 636 -14 636 -14 598 -14 c 128,-1,10
 560 -14 560 -14 554 15 c 2,11,-1
 510 225 l 1,12,-1
 153 225 l 1,13,-1
 87 80 l 1,14,15
 81 64 81 64 74.5 51 c 128,-1,16
 68 38 68 38 64 29.5 c 128,-1,17
 60 21 60 21 57.5 16.5 c 128,-1,18
 55 12 55 12 51.5 6 c 128,-1,19
 48 0 48 0 45 -3 c 128,-1,20
 42 -6 42 -6 39 -9 c 0,21,22
 34 -14 34 -14 21 -14 c 128,-1,23
 8 -14 8 -14 -6.5 -6 c 128,-1,24
 -21 2 -21 2 -21 18 c 128,-1,25
 -21 34 -21 34 28 139 c 2,26,-1
 357 843 l 2,3,4
EndSplineSet
EndChar

StartChar: B
Encoding: 66 66 40
Width: 713
GlyphClass: 2
Flags: W
LayerCount: 2
Fore
SplineSet
489 470 m 1,0,1
 654 399 654 399 654 246 c 0,2,3
 654 165 654 165 605 104 c 0,4,5
 511 -14 511 -14 301 -14 c 0,6,7
 192 -14 192 -14 117 -6 c 1,8,-1
 95 -3 l 1,9,10
 57 0 57 0 57 27 c 2,11,-1
 57 32 l 1,12,-1
 154 837 l 2,13,14
 159 872 159 872 381 872 c 0,15,16
 493 872 493 872 568.5 823.5 c 128,-1,17
 644 775 644 775 645 683 c 0,18,19
 645 611 645 611 604 556 c 128,-1,20
 563 501 563 501 489 470 c 1,0,1
337 440 m 2,21,-1
 185 440 l 1,22,-1
 140 62 l 1,23,24
 210 55 210 55 290 55 c 128,-1,25
 370 55 370 55 431 76.5 c 128,-1,26
 492 98 492 98 533 144 c 128,-1,27
 574 190 574 190 574 251 c 0,28,29
 574 327 574 327 504 383.5 c 128,-1,30
 434 440 434 440 337 440 c 2,21,-1
512.5 561.5 m 128,-1,32
 566 609 566 609 566 676.5 c 128,-1,33
 566 744 566 744 512 777.5 c 128,-1,34
 458 811 458 811 377 811 c 128,-1,35
 296 811 296 811 228 799 c 1,36,-1
 193 503 l 1,37,-1
 377 503 l 1,38,31
 459 514 459 514 512.5 561.5 c 128,-1,32
EndSplineSet
EndChar

StartChar: C
Encoding: 67 67 41
Width: 661
GlyphClass: 2
Flags: W
LayerCount: 2
Fore
SplineSet
424 872 m 0,0,1
 551 872 551 872 626 797 c 0,2,3
 662 761 662 761 662 741 c 0,4,5
 662 731 662 731 645.5 719.5 c 128,-1,6
 629 708 629 708 618.5 708 c 128,-1,7
 608 708 608 708 594.5 724 c 128,-1,8
 581 740 581 740 564.5 759.5 c 128,-1,9
 548 779 548 779 510 795 c 128,-1,10
 472 811 472 811 414.5 811 c 128,-1,11
 357 811 357 811 304.5 777 c 128,-1,12
 252 743 252 743 219 690.5 c 128,-1,13
 186 638 186 638 163 572 c 0,14,15
 122 453 122 453 122 325 c 0,16,17
 122 213 122 213 171 137 c 0,18,19
 196 98 196 98 239.5 75.5 c 128,-1,20
 283 53 283 53 340 53 c 0,21,22
 460 53 460 53 539 139 c 0,23,24
 542 142 542 142 552 155 c 0,25,26
 570 181 570 181 583 181 c 128,-1,27
 596 181 596 181 606 172.5 c 128,-1,28
 616 164 616 164 616 154 c 128,-1,29
 616 144 616 144 609 133 c 0,30,31
 563 61 563 61 491.5 23.5 c 128,-1,32
 420 -14 420 -14 333 -14 c 0,33,34
 182 -14 182 -14 112 80 c 128,-1,35
 42 174 42 174 42 330 c 0,36,37
 42 526 42 526 126 688 c 0,38,39
 168 771 168 771 245 821.5 c 128,-1,40
 322 872 322 872 424 872 c 0,0,1
EndSplineSet
EndChar

StartChar: D
Encoding: 68 68 42
Width: 774
GlyphClass: 2
Flags: W
LayerCount: 2
Fore
SplineSet
730 536 m 0,0,1
 730 304 730 304 634 151 c 0,2,3
 585 73 585 73 499.5 29.5 c 128,-1,4
 414 -14 414 -14 290 -14 c 128,-1,5
 166 -14 166 -14 94 -4 c 0,6,7
 56 1 56 1 56 24 c 0,8,9
 56 38 56 38 58 52 c 2,10,-1
 152 837 l 2,11,12
 153 847 153 847 162 853.5 c 128,-1,13
 171 860 171 860 181 861 c 0,14,15
 295 872 295 872 397 872 c 0,16,17
 563 872 563 872 646.5 784.5 c 128,-1,18
 730 697 730 697 730 536 c 0,0,1
650 547 m 0,19,20
 650 665 650 665 582 737 c 128,-1,21
 514 809 514 809 398.5 809 c 128,-1,22
 283 809 283 809 226 799 c 1,23,-1
 138 62 l 1,24,25
 202 53 202 53 297 53 c 128,-1,26
 392 53 392 53 462.5 95.5 c 128,-1,27
 533 138 533 138 572 210 c 0,28,29
 650 353 650 353 650 547 c 0,19,20
EndSplineSet
EndChar

StartChar: E
Encoding: 69 69 43
Width: 598
GlyphClass: 2
Flags: W
LayerCount: 2
Fore
SplineSet
181 860 m 2,0,-1
 567 860 l 2,1,2
 598 860 598 860 598 833 c 0,3,4
 598 813 598 813 590 805 c 128,-1,5
 582 797 582 797 561 797 c 2,6,-1
 225 797 l 1,7,-1
 192 484 l 1,8,-1
 469 484 l 2,9,10
 504 484 504 484 504 458 c 0,11,12
 504 438 504 438 495.5 429.5 c 128,-1,13
 487 421 487 421 466 421 c 2,14,-1
 183 421 l 1,15,-1
 139 64 l 1,16,-1
 496 64 l 2,17,18
 522 64 522 64 522 34 c 0,19,20
 522 19 522 19 514 9.5 c 128,-1,21
 506 0 506 0 494 0 c 2,22,-1
 90 0 l 2,23,24
 57 0 57 0 57 26 c 0,25,26
 57 32 57 32 58 41 c 2,27,-1
 153 826 l 1,28,29
 156 860 156 860 181 860 c 2,0,-1
EndSplineSet
EndChar

StartChar: F
Encoding: 70 70 44
Width: 553
GlyphClass: 2
Flags: W
LayerCount: 2
Fore
SplineSet
182 860 m 2,0,-1
 568 860 l 2,1,2
 599 860 599 860 599 833 c 0,3,4
 599 813 599 813 591.5 805 c 128,-1,5
 584 797 584 797 563 797 c 2,6,-1
 227 797 l 1,7,-1
 193 484 l 1,8,-1
 504 484 l 2,9,10
 539 484 539 484 539 458 c 0,11,12
 539 438 539 438 530.5 429.5 c 128,-1,13
 522 421 522 421 501 421 c 2,14,-1
 185 421 l 1,15,-1
 134 18 l 2,16,17
 130 -14 130 -14 93.5 -14 c 128,-1,18
 57 -14 57 -14 57 14 c 1,19,-1
 154 826 l 2,20,21
 159 860 159 860 182 860 c 2,0,-1
EndSplineSet
EndChar

StartChar: G
Encoding: 71 71 45
Width: 728
GlyphClass: 2
Flags: W
LayerCount: 2
Fore
SplineSet
281.5 840 m 128,-1,1
 347 872 347 872 416.5 872 c 128,-1,2
 486 872 486 872 538.5 851.5 c 128,-1,3
 591 831 591 831 616 808.5 c 128,-1,4
 641 786 641 786 641 773 c 128,-1,5
 641 760 641 760 626 746 c 128,-1,6
 611 732 611 732 596 732 c 0,7,8
 593 732 593 732 581 744.5 c 128,-1,9
 569 757 569 757 552 771.5 c 128,-1,10
 535 786 535 786 500.5 798.5 c 128,-1,11
 466 811 466 811 424 811 c 0,12,13
 348 811 348 811 287.5 764 c 128,-1,14
 227 717 227 717 192 642 c 0,15,16
 122 489 122 489 122 325 c 0,17,18
 122 169 122 169 218 93 c 0,19,20
 268 53 268 53 343 53 c 128,-1,21
 418 53 418 53 482.5 102.5 c 128,-1,22
 547 152 547 152 557 225 c 2,23,-1
 578 389 l 1,24,-1
 326 389 l 2,25,26
 300 389 300 389 300 420 c 0,27,28
 300 434 300 434 308 443 c 128,-1,29
 316 452 316 452 328 452 c 2,30,-1
 631 452 l 2,31,32
 662 452 662 452 662 425 c 0,33,34
 662 417 662 417 612 14 c 0,35,36
 610 -3 610 -3 601 -8.5 c 128,-1,37
 592 -14 592 -14 573 -14 c 0,38,39
 530 -14 530 -14 530 11 c 0,40,41
 530 15 530 15 539 70 c 1,42,43
 458 -14 458 -14 329 -14 c 0,44,45
 182 -14 182 -14 112 80 c 128,-1,46
 42 174 42 174 42 330 c 0,47,48
 42 499 42 499 98 632 c 0,49,50
 128 703 128 703 172 755.5 c 128,-1,0
 216 808 216 808 281.5 840 c 128,-1,1
EndSplineSet
EndChar

StartChar: H
Encoding: 72 72 46
Width: 764
GlyphClass: 2
Flags: W
LayerCount: 2
Fore
SplineSet
236 848 m 0,0,1
 236 846 236 846 192 491 c 1,2,-1
 587 491 l 1,3,4
 593 558 593 558 630 840 c 0,5,6
 634 872 634 872 671 872 c 128,-1,7
 708 872 708 872 708 848 c 0,8,9
 708 845 708 845 606 18 c 0,10,11
 602 -14 602 -14 565.5 -14 c 128,-1,12
 529 -14 529 -14 529 14 c 0,13,14
 529 17 529 17 579 428 c 1,15,-1
 185 428 l 1,16,-1
 134 18 l 2,17,18
 130 -14 130 -14 93.5 -14 c 128,-1,19
 57 -14 57 -14 57 14 c 0,20,21
 57 17 57 17 158 840 c 0,22,23
 162 872 162 872 199 872 c 128,-1,24
 236 872 236 872 236 848 c 0,0,1
EndSplineSet
EndChar

StartChar: I
Encoding: 73 73 47
Width: 293
GlyphClass: 2
Flags: W
LayerCount: 2
Fore
SplineSet
134 18 m 0,0,1
 130 -14 130 -14 93.5 -14 c 128,-1,2
 57 -14 57 -14 57 14 c 0,3,4
 57 17 57 17 158 840 c 0,5,6
 162 872 162 872 199 872 c 128,-1,7
 236 872 236 872 236 848 c 0,8,9
 236 845 236 845 134 18 c 0,0,1
EndSplineSet
EndChar

StartChar: J
Encoding: 74 74 48
Width: 431
GlyphClass: 2
Flags: W
LayerCount: 2
Fore
SplineSet
132 -119 m 128,-1,1
 76 -141 76 -141 15 -141 c 0,2,3
 -113 -141 -113 -141 -113 -90 c 0,4,5
 -113 -78 -113 -78 -104.5 -68.5 c 128,-1,6
 -96 -59 -96 -59 -84 -59 c 128,-1,7
 -72 -59 -72 -59 -53.5 -64 c 128,-1,8
 -35 -69 -35 -69 -11 -69 c 0,9,10
 119 -69 119 -69 168 9 c 0,11,12
 194 49 194 49 206.5 94.5 c 128,-1,13
 219 140 219 140 227 209 c 2,14,-1
 294 795 l 1,15,-1
 41 795 l 2,16,17
 14 795 14 795 14 826 c 0,18,19
 14 841 14 841 22 850.5 c 128,-1,20
 30 860 30 860 42 860 c 2,21,-1
 343 860 l 2,22,23
 375 860 375 860 375 834 c 2,24,-1
 375 829 l 1,25,-1
 302 189 l 2,26,27
 293 108 293 108 275 51 c 128,-1,28
 257 -6 257 -6 222.5 -51.5 c 128,-1,0
 188 -97 188 -97 132 -119 c 128,-1,1
EndSplineSet
EndChar

StartChar: K
Encoding: 75 75 49
Width: 633
GlyphClass: 2
Flags: W
LayerCount: 2
Fore
SplineSet
236 848 m 1,0,-1
 192 486 l 1,1,-1
 239 486 l 2,2,3
 282 486 282 486 326.5 510 c 128,-1,4
 371 534 371 534 406.5 572.5 c 128,-1,5
 442 611 442 611 470 658 c 0,6,7
 529 755 529 755 529 841 c 0,8,9
 529 872 529 872 567 872 c 128,-1,10
 605 872 605 872 605 841 c 0,11,12
 605 734 605 734 534.5 624.5 c 128,-1,13
 464 515 464 515 365 465 c 1,14,-1
 364 458 l 1,15,16
 429 431 429 431 465 351 c 0,17,18
 485 306 485 306 499 261 c 128,-1,19
 513 216 513 216 518 202 c 2,20,-1
 580 21 l 2,21,22
 581 18 581 18 581 9.5 c 128,-1,23
 581 1 581 1 569.5 -6.5 c 128,-1,24
 558 -14 558 -14 534 -14 c 128,-1,25
 510 -14 510 -14 503 8 c 2,26,-1
 433 214 l 2,27,28
 428 228 428 228 418.5 257 c 128,-1,29
 409 286 409 286 405 297 c 128,-1,30
 401 308 401 308 392.5 329.5 c 128,-1,31
 384 351 384 351 377.5 359.5 c 128,-1,32
 371 368 371 368 360.5 382.5 c 128,-1,33
 350 397 350 397 338.5 402.5 c 128,-1,34
 327 408 327 408 311 416 c 0,35,36
 286 427 286 427 232 427 c 2,37,-1
 184 427 l 1,38,39
 182 408 182 408 164 262.5 c 128,-1,40
 146 117 146 117 134 18 c 0,41,42
 130 -14 130 -14 93.5 -14 c 128,-1,43
 57 -14 57 -14 57 14 c 0,44,45
 57 17 57 17 158 840 c 0,46,47
 162 872 162 872 199 872 c 128,-1,48
 236 872 236 872 236 848 c 1,0,-1
EndSplineSet
EndChar

StartChar: L
Encoding: 76 76 50
Width: 524
GlyphClass: 2
Flags: W
LayerCount: 2
Fore
SplineSet
490 64 m 2,0,1
 517 64 517 64 517 34 c 0,2,3
 517 19 517 19 509 9.5 c 128,-1,4
 501 0 501 0 489 0 c 2,5,-1
 88 0 l 2,6,7
 56 0 56 0 56 25 c 2,8,-1
 56 31 l 1,9,-1
 153 840 l 2,10,11
 157 872 157 872 193.5 872 c 128,-1,12
 230 872 230 872 230 847 c 2,13,-1
 230 840 l 1,14,-1
 137 64 l 1,15,-1
 490 64 l 2,0,1
EndSplineSet
EndChar

StartChar: M
Encoding: 77 77 51
Width: 878
GlyphClass: 2
Flags: W
LayerCount: 2
Fore
SplineSet
67 -14 m 0,0,1
 50 -14 50 -14 43 -9.5 c 128,-1,2
 36 -5 36 -5 36 8 c 2,3,-1
 36 15 l 1,4,-1
 172 841 l 2,5,6
 178 874 178 874 223 874 c 2,7,-1
 234 874 l 2,8,9
 250 874 250 874 263 865 c 128,-1,10
 276 856 276 856 279 841 c 2,11,-1
 409 144 l 1,12,-1
 699 841 l 2,13,14
 711 872 711 872 748 872 c 2,15,-1
 766 872 l 2,16,17
 806 872 806 872 806 841 c 1,18,-1
 743 15 l 2,19,20
 740 -14 740 -14 701 -14 c 0,21,22
 683 -14 683 -14 675.5 -8 c 128,-1,23
 668 -2 668 -2 668 15 c 1,24,-1
 724 721 l 1,25,-1
 445 28 l 2,26,27
 434 0 434 0 399 0 c 0,28,29
 385 0 385 0 371 6.5 c 128,-1,30
 357 13 357 13 354 28 c 2,31,-1
 225 724 l 1,32,-1
 112 15 l 2,33,34
 107 -14 107 -14 67 -14 c 0,0,1
EndSplineSet
EndChar

StartChar: N
Encoding: 78 78 52
Width: 760
GlyphClass: 2
Flags: W
LayerCount: 2
Fore
SplineSet
124 -4 m 128,-1,1
 116 -14 116 -14 94.5 -14 c 128,-1,2
 73 -14 73 -14 65 -8.5 c 128,-1,3
 57 -3 57 -3 57 8 c 128,-1,4
 57 19 57 19 59 39 c 2,5,-1
 155 841 l 2,6,7
 159 872 159 872 199 872 c 2,8,-1
 221 872 l 2,9,10
 253 872 253 872 262 847 c 2,11,-1
 543 139 l 1,12,-1
 624 819 l 2,13,14
 627 848 627 848 631.5 857.5 c 128,-1,15
 636 867 636 867 644 869.5 c 128,-1,16
 652 872 652 872 669.5 872 c 128,-1,17
 687 872 687 872 695 866 c 128,-1,18
 703 860 703 860 703 849.5 c 128,-1,19
 703 839 703 839 701 819 c 2,20,-1
 603 17 l 2,21,22
 600 -14 600 -14 564 -14 c 2,23,-1
 545 -14 l 2,24,25
 512 -14 512 -14 501 13 c 2,26,-1
 218 727 l 1,27,-1
 136 39 l 2,28,0
 132 6 132 6 124 -4 c 128,-1,1
EndSplineSet
EndChar

StartChar: O
Encoding: 79 79 53
Width: 734
GlyphClass: 2
Flags: W
LayerCount: 2
Fore
SplineSet
677.5 669 m 128,-1,1
 692 611 692 611 692 545.5 c 128,-1,2
 692 480 692 480 683.5 419 c 128,-1,3
 675 358 675 358 657 295 c 128,-1,4
 639 232 639 232 609 177 c 128,-1,5
 579 122 579 122 539 79 c 128,-1,6
 499 36 499 36 442 11 c 128,-1,7
 385 -14 385 -14 314 -14 c 128,-1,8
 243 -14 243 -14 188.5 12 c 128,-1,9
 134 38 134 38 102 85 c 0,10,11
 42 175 42 175 42 321 c 0,12,13
 42 476 42 476 94 612 c 0,14,15
 123 686 123 686 164.5 743 c 128,-1,16
 206 800 206 800 271 836 c 128,-1,17
 336 872 336 872 413.5 872 c 128,-1,18
 491 872 491 872 546 846 c 128,-1,19
 601 820 601 820 632 773.5 c 128,-1,0
 663 727 663 727 677.5 669 c 128,-1,1
330 50 m 0,20,21
 389 50 389 50 440 86 c 128,-1,22
 491 122 491 122 522.5 176 c 128,-1,23
 554 230 554 230 575 299 c 0,24,25
 612 421 612 421 612 546 c 0,26,27
 612 653 612 653 568 728 c 0,28,29
 546 767 546 767 505 789 c 128,-1,30
 464 811 464 811 405 811 c 128,-1,31
 346 811 346 811 295 775 c 128,-1,32
 244 739 244 739 212.5 685 c 128,-1,33
 181 631 181 631 160 562 c 0,34,35
 123 440 123 440 123 315 c 0,36,37
 123 208 123 208 166 133 c 0,38,39
 214 50 214 50 330 50 c 0,20,21
EndSplineSet
EndChar

StartChar: P
Encoding: 80 80 54
Width: 644
GlyphClass: 2
Flags: W
LayerCount: 2
Fore
SplineSet
134 18 m 2,0,1
 130 -14 130 -14 93.5 -14 c 128,-1,2
 57 -14 57 -14 57 11 c 0,3,4
 57 13 57 13 158 833 c 0,5,6
 161 853 161 853 188 857 c 0,7,8
 323 872 323 872 377 872 c 0,9,10
 498 872 498 872 569 816 c 128,-1,11
 640 760 640 760 640 654 c 0,12,13
 640 579 640 579 604.5 522 c 128,-1,14
 569 465 569 465 508 432 c 0,15,16
 388 367 388 367 215 367 c 0,17,18
 189 367 189 367 176 368 c 1,19,-1
 134 18 l 2,0,1
559 654 m 0,20,21
 559 730 559 730 510.5 769.5 c 128,-1,22
 462 809 462 809 384 809 c 128,-1,23
 306 809 306 809 230 799 c 1,24,-1
 186 437 l 1,25,26
 559 437 559 437 559 654 c 0,20,21
EndSplineSet
EndChar

StartChar: Q
Encoding: 81 81 55
Width: 729
GlyphClass: 2
Flags: W
LayerCount: 2
Fore
SplineSet
642.5 260 m 128,-1,1
 596 122 596 122 501 48 c 1,2,-1
 591 -39 l 2,3,4
 615 -62 615 -62 621 -70 c 128,-1,5
 627 -78 627 -78 627 -92 c 128,-1,6
 627 -106 627 -106 614 -116.5 c 128,-1,7
 601 -127 601 -127 587 -127 c 128,-1,8
 573 -127 573 -127 539 -94 c 2,9,-1
 433 8 l 1,10,11
 378 -14 378 -14 309 -14 c 128,-1,12
 240 -14 240 -14 185.5 12 c 128,-1,13
 131 38 131 38 100 85 c 0,14,15
 39 175 39 175 39 321 c 0,16,17
 39 476 39 476 92 612 c 0,18,19
 120 686 120 686 161.5 743 c 128,-1,20
 203 800 203 800 268 836 c 128,-1,21
 333 872 333 872 410.5 872 c 128,-1,22
 488 872 488 872 543 846 c 128,-1,23
 598 820 598 820 629 774 c 0,24,25
 689 684 689 684 689 541 c 128,-1,0
 689 398 689 398 642.5 260 c 128,-1,1
227 72 m 128,-1,27
 268 50 268 50 311 50 c 128,-1,28
 354 50 354 50 381 59 c 1,29,-1
 332 106 l 1,30,31
 294 144 294 144 294 160.5 c 128,-1,32
 294 177 294 177 306.5 188 c 128,-1,33
 319 199 319 199 331 199 c 128,-1,34
 343 199 343 199 353.5 191 c 128,-1,35
 364 183 364 183 389 158 c 2,36,-1
 452 97 l 1,37,38
 507 141 507 141 544 227 c 0,39,40
 609 375 609 375 609 546 c 0,41,42
 609 653 609 653 566 728 c 0,43,44
 543 767 543 767 502 789 c 128,-1,45
 461 811 461 811 402 811 c 128,-1,46
 343 811 343 811 292 775 c 128,-1,47
 241 739 241 739 209.5 685 c 128,-1,48
 178 631 178 631 157 562 c 0,49,50
 120 440 120 440 120 315 c 0,51,52
 120 208 120 208 164 133 c 0,53,26
 186 94 186 94 227 72 c 128,-1,27
EndSplineSet
EndChar

StartChar: R
Encoding: 82 82 56
Width: 699
GlyphClass: 2
Flags: W
LayerCount: 2
Fore
SplineSet
94 -14 m 0,0,1
 57 -14 57 -14 57 11 c 2,2,-1
 57 15 l 1,3,-1
 158 834 l 2,4,5
 161 854 161 854 185 857 c 1,6,7
 259 872 259 872 380 872 c 128,-1,8
 501 872 501 872 571 823 c 128,-1,9
 641 774 641 774 641 678 c 0,10,11
 641 597 641 597 584 537 c 128,-1,12
 527 477 527 477 428 458 c 1,13,14
 494 430 494 430 530 350 c 0,15,16
 547 310 547 310 562.5 261.5 c 128,-1,17
 578 213 578 213 582 202 c 2,18,-1
 644 21 l 2,19,20
 645 18 645 18 645 9.5 c 128,-1,21
 645 1 645 1 633.5 -6.5 c 128,-1,22
 622 -14 622 -14 605 -14 c 0,23,24
 574 -14 574 -14 567 8 c 2,25,-1
 497 214 l 2,26,27
 470 294 470 294 448.5 339.5 c 128,-1,28
 427 385 427 385 397.5 404 c 128,-1,29
 368 423 368 423 297 423 c 2,30,-1
 183 423 l 1,31,-1
 133 13 l 2,32,33
 131 -2 131 -2 122 -8 c 128,-1,34
 113 -14 113 -14 94 -14 c 0,0,1
309 489 m 2,35,36
 389 489 389 489 469 531 c 0,37,38
 509 552 509 552 534.5 590 c 128,-1,39
 560 628 560 628 560 676 c 0,40,41
 560 739 560 739 507.5 775 c 128,-1,42
 455 811 455 811 376 811 c 128,-1,43
 297 811 297 811 230 799 c 1,44,-1
 192 489 l 1,45,-1
 309 489 l 2,35,36
EndSplineSet
EndChar

StartChar: S
Encoding: 83 83 57
Width: 596
GlyphClass: 2
Flags: W
LayerCount: 2
Fore
SplineSet
368 872 m 0,0,1
 442 872 442 872 505 836 c 128,-1,2
 568 800 568 800 568 765.5 c 128,-1,3
 568 731 568 731 540 731 c 0,4,5
 522 731 522 731 478 770 c 0,6,7
 461 785 461 785 429 797 c 128,-1,8
 397 809 397 809 358 809 c 0,9,10
 284 809 284 809 238.5 768.5 c 128,-1,11
 193 728 193 728 193 659 c 0,12,13
 193 584 193 584 309 499 c 0,14,15
 357 464 357 464 405 426 c 128,-1,16
 453 388 453 388 487 336 c 128,-1,17
 521 284 521 284 521 225 c 0,18,19
 521 114 521 114 448.5 50 c 128,-1,20
 376 -14 376 -14 262 -14 c 128,-1,21
 148 -14 148 -14 76 48 c 0,22,23
 52 68 52 68 34.5 97.5 c 128,-1,24
 17 127 17 127 17 148 c 0,25,26
 17 189 17 189 49 189 c 0,27,28
 60 189 60 189 67.5 181.5 c 128,-1,29
 75 174 75 174 84.5 154 c 128,-1,30
 94 134 94 134 99 126 c 0,31,32
 152 50 152 50 255 50 c 0,33,34
 337 50 337 50 389 97.5 c 128,-1,35
 441 145 441 145 441 221 c 0,36,37
 441 300 441 300 325 387 c 0,38,39
 277 423 277 423 228.5 461 c 128,-1,40
 180 499 180 499 146 549.5 c 128,-1,41
 112 600 112 600 112 657 c 0,42,43
 112 759 112 759 184.5 815.5 c 128,-1,44
 257 872 257 872 368 872 c 0,0,1
EndSplineSet
EndChar

StartChar: T
Encoding: 84 84 58
Width: 515
GlyphClass: 2
Flags: W
LayerCount: 2
Fore
SplineSet
528 797 m 2,0,-1
 335 797 l 1,1,-1
 239 18 l 2,2,3
 235 -14 235 -14 198.5 -14 c 128,-1,4
 162 -14 162 -14 162 14 c 0,5,6
 162 18 162 18 258 797 c 1,7,-1
 69 797 l 2,8,9
 36 797 36 797 36 823 c 0,10,11
 36 860 36 860 73 860 c 2,12,-1
 532 860 l 2,13,14
 564 860 564 860 564 833 c 0,15,16
 564 797 564 797 528 797 c 2,0,-1
EndSplineSet
PairPos2: "'kern' Horizontal Kerning in Latin lookup 0 per glyph data 1" ellipsis dx=0 dy=0 dh=-60 dv=0 dx=0 dy=0 dh=0 dv=0
PairPos2: "'kern' Horizontal Kerning in Latin lookup 0 per glyph data 1" quotedblbase dx=0 dy=0 dh=-60 dv=0 dx=0 dy=0 dh=0 dv=0
PairPos2: "'kern' Horizontal Kerning in Latin lookup 0 per glyph data 1" quotesinglbase dx=0 dy=0 dh=-60 dv=0 dx=0 dy=0 dh=0 dv=0
PairPos2: "'kern' Horizontal Kerning in Latin lookup 0 per glyph data 1" scaron dx=0 dy=0 dh=-120 dv=0 dx=0 dy=0 dh=0 dv=0
PairPos2: "'kern' Horizontal Kerning in Latin lookup 0 per glyph data 1" oe dx=0 dy=0 dh=-120 dv=0 dx=0 dy=0 dh=0 dv=0
PairPos2: "'kern' Horizontal Kerning in Latin lookup 0 per glyph data 1" dotlessi dx=0 dy=0 dh=-70 dv=0 dx=0 dy=0 dh=0 dv=0
PairPos2: "'kern' Horizontal Kerning in Latin lookup 0 per glyph data 1" ydieresis dx=0 dy=0 dh=-100 dv=0 dx=0 dy=0 dh=0 dv=0
PairPos2: "'kern' Horizontal Kerning in Latin lookup 0 per glyph data 1" yacute dx=0 dy=0 dh=-100 dv=0 dx=0 dy=0 dh=0 dv=0
PairPos2: "'kern' Horizontal Kerning in Latin lookup 0 per glyph data 1" udieresis dx=0 dy=0 dh=-75 dv=0 dx=0 dy=0 dh=0 dv=0
PairPos2: "'kern' Horizontal Kerning in Latin lookup 0 per glyph data 1" ucircumflex dx=0 dy=0 dh=-75 dv=0 dx=0 dy=0 dh=0 dv=0
PairPos2: "'kern' Horizontal Kerning in Latin lookup 0 per glyph data 1" uacute dx=0 dy=0 dh=-75 dv=0 dx=0 dy=0 dh=0 dv=0
PairPos2: "'kern' Horizontal Kerning in Latin lookup 0 per glyph data 1" ugrave dx=0 dy=0 dh=-75 dv=0 dx=0 dy=0 dh=0 dv=0
PairPos2: "'kern' Horizontal Kerning in Latin lookup 0 per glyph data 1" oslash dx=0 dy=0 dh=-120 dv=0 dx=0 dy=0 dh=0 dv=0
PairPos2: "'kern' Horizontal Kerning in Latin lookup 0 per glyph data 1" odieresis dx=0 dy=0 dh=-120 dv=0 dx=0 dy=0 dh=0 dv=0
PairPos2: "'kern' Horizontal Kerning in Latin lookup 0 per glyph data 1" otilde dx=0 dy=0 dh=-120 dv=0 dx=0 dy=0 dh=0 dv=0
PairPos2: "'kern' Horizontal Kerning in Latin lookup 0 per glyph data 1" ocircumflex dx=0 dy=0 dh=-120 dv=0 dx=0 dy=0 dh=0 dv=0
PairPos2: "'kern' Horizontal Kerning in Latin lookup 0 per glyph data 1" oacute dx=0 dy=0 dh=-120 dv=0 dx=0 dy=0 dh=0 dv=0
PairPos2: "'kern' Horizontal Kerning in Latin lookup 0 per glyph data 1" ograve dx=0 dy=0 dh=-120 dv=0 dx=0 dy=0 dh=0 dv=0
PairPos2: "'kern' Horizontal Kerning in Latin lookup 0 per glyph data 1" ntilde dx=0 dy=0 dh=-70 dv=0 dx=0 dy=0 dh=0 dv=0
PairPos2: "'kern' Horizontal Kerning in Latin lookup 0 per glyph data 1" idieresis dx=0 dy=0 dh=-70 dv=0 dx=0 dy=0 dh=0 dv=0
PairPos2: "'kern' Horizontal Kerning in Latin lookup 0 per glyph data 1" icircumflex dx=0 dy=0 dh=-70 dv=0 dx=0 dy=0 dh=0 dv=0
PairPos2: "'kern' Horizontal Kerning in Latin lookup 0 per glyph data 1" iacute dx=0 dy=0 dh=-70 dv=0 dx=0 dy=0 dh=0 dv=0
PairPos2: "'kern' Horizontal Kerning in Latin lookup 0 per glyph data 1" igrave dx=0 dy=0 dh=-70 dv=0 dx=0 dy=0 dh=0 dv=0
PairPos2: "'kern' Horizontal Kerning in Latin lookup 0 per glyph data 1" edieresis dx=0 dy=0 dh=-120 dv=0 dx=0 dy=0 dh=0 dv=0
PairPos2: "'kern' Horizontal Kerning in Latin lookup 0 per glyph data 1" ecircumflex dx=0 dy=0 dh=-120 dv=0 dx=0 dy=0 dh=0 dv=0
PairPos2: "'kern' Horizontal Kerning in Latin lookup 0 per glyph data 1" eacute dx=0 dy=0 dh=-120 dv=0 dx=0 dy=0 dh=0 dv=0
PairPos2: "'kern' Horizontal Kerning in Latin lookup 0 per glyph data 1" egrave dx=0 dy=0 dh=-120 dv=0 dx=0 dy=0 dh=0 dv=0
PairPos2: "'kern' Horizontal Kerning in Latin lookup 0 per glyph data 1" ccedilla dx=0 dy=0 dh=-120 dv=0 dx=0 dy=0 dh=0 dv=0
PairPos2: "'kern' Horizontal Kerning in Latin lookup 0 per glyph data 1" ae dx=0 dy=0 dh=-120 dv=0 dx=0 dy=0 dh=0 dv=0
PairPos2: "'kern' Horizontal Kerning in Latin lookup 0 per glyph data 1" aring dx=0 dy=0 dh=-120 dv=0 dx=0 dy=0 dh=0 dv=0
PairPos2: "'kern' Horizontal Kerning in Latin lookup 0 per glyph data 1" adieresis dx=0 dy=0 dh=-120 dv=0 dx=0 dy=0 dh=0 dv=0
PairPos2: "'kern' Horizontal Kerning in Latin lookup 0 per glyph data 1" atilde dx=0 dy=0 dh=-120 dv=0 dx=0 dy=0 dh=0 dv=0
PairPos2: "'kern' Horizontal Kerning in Latin lookup 0 per glyph data 1" acircumflex dx=0 dy=0 dh=-120 dv=0 dx=0 dy=0 dh=0 dv=0
PairPos2: "'kern' Horizontal Kerning in Latin lookup 0 per glyph data 1" aacute dx=0 dy=0 dh=-120 dv=0 dx=0 dy=0 dh=0 dv=0
PairPos2: "'kern' Horizontal Kerning in Latin lookup 0 per glyph data 1" agrave dx=0 dy=0 dh=-120 dv=0 dx=0 dy=0 dh=0 dv=0
PairPos2: "'kern' Horizontal Kerning in Latin lookup 0 per glyph data 1" AE dx=0 dy=0 dh=-50 dv=0 dx=0 dy=0 dh=0 dv=0
PairPos2: "'kern' Horizontal Kerning in Latin lookup 0 per glyph data 1" Aring dx=0 dy=0 dh=-35 dv=0 dx=0 dy=0 dh=0 dv=0
PairPos2: "'kern' Horizontal Kerning in Latin lookup 0 per glyph data 1" Adieresis dx=0 dy=0 dh=-35 dv=0 dx=0 dy=0 dh=0 dv=0
PairPos2: "'kern' Horizontal Kerning in Latin lookup 0 per glyph data 1" Atilde dx=0 dy=0 dh=-35 dv=0 dx=0 dy=0 dh=0 dv=0
PairPos2: "'kern' Horizontal Kerning in Latin lookup 0 per glyph data 1" Acircumflex dx=0 dy=0 dh=-35 dv=0 dx=0 dy=0 dh=0 dv=0
PairPos2: "'kern' Horizontal Kerning in Latin lookup 0 per glyph data 1" Aacute dx=0 dy=0 dh=-35 dv=0 dx=0 dy=0 dh=0 dv=0
PairPos2: "'kern' Horizontal Kerning in Latin lookup 0 per glyph data 1" Agrave dx=0 dy=0 dh=-35 dv=0 dx=0 dy=0 dh=0 dv=0
PairPos2: "'kern' Horizontal Kerning in Latin lookup 0 per glyph data 1" mu dx=0 dy=0 dh=-75 dv=0 dx=0 dy=0 dh=0 dv=0
PairPos2: "'kern' Horizontal Kerning in Latin lookup 0 per glyph data 1" z dx=0 dy=0 dh=-70 dv=0 dx=0 dy=0 dh=0 dv=0
PairPos2: "'kern' Horizontal Kerning in Latin lookup 0 per glyph data 1" y dx=0 dy=0 dh=-100 dv=0 dx=0 dy=0 dh=0 dv=0
PairPos2: "'kern' Horizontal Kerning in Latin lookup 0 per glyph data 1" w dx=0 dy=0 dh=-100 dv=0 dx=0 dy=0 dh=0 dv=0
PairPos2: "'kern' Horizontal Kerning in Latin lookup 0 per glyph data 1" v dx=0 dy=0 dh=-100 dv=0 dx=0 dy=0 dh=0 dv=0
PairPos2: "'kern' Horizontal Kerning in Latin lookup 0 per glyph data 1" u dx=0 dy=0 dh=-75 dv=0 dx=0 dy=0 dh=0 dv=0
PairPos2: "'kern' Horizontal Kerning in Latin lookup 0 per glyph data 1" t dx=0 dy=0 dh=-70 dv=0 dx=0 dy=0 dh=0 dv=0
PairPos2: "'kern' Horizontal Kerning in Latin lookup 0 per glyph data 1" s dx=0 dy=0 dh=-120 dv=0 dx=0 dy=0 dh=0 dv=0
PairPos2: "'kern' Horizontal Kerning in Latin lookup 0 per glyph data 1" r dx=0 dy=0 dh=-70 dv=0 dx=0 dy=0 dh=0 dv=0
PairPos2: "'kern' Horizontal Kerning in Latin lookup 0 per glyph data 1" q dx=0 dy=0 dh=-120 dv=0 dx=0 dy=0 dh=0 dv=0
PairPos2: "'kern' Horizontal Kerning in Latin lookup 0 per glyph data 1" p dx=0 dy=0 dh=-70 dv=0 dx=0 dy=0 dh=0 dv=0
PairPos2: "'kern' Horizontal Kerning in Latin lookup 0 per glyph data 1" o dx=0 dy=0 dh=-120 dv=0 dx=0 dy=0 dh=0 dv=0
PairPos2: "'kern' Horizontal Kerning in Latin lookup 0 per glyph data 1" n dx=0 dy=0 dh=-70 dv=0 dx=0 dy=0 dh=0 dv=0
PairPos2: "'kern' Horizontal Kerning in Latin lookup 0 per glyph data 1" m dx=0 dy=0 dh=-70 dv=0 dx=0 dy=0 dh=0 dv=0
PairPos2: "'kern' Horizontal Kerning in Latin lookup 0 per glyph data 1" j dx=0 dy=0 dh=-70 dv=0 dx=0 dy=0 dh=0 dv=0
PairPos2: "'kern' Horizontal Kerning in Latin lookup 0 per glyph data 1" i dx=0 dy=0 dh=-70 dv=0 dx=0 dy=0 dh=0 dv=0
PairPos2: "'kern' Horizontal Kerning in Latin lookup 0 per glyph data 1" e dx=0 dy=0 dh=-120 dv=0 dx=0 dy=0 dh=0 dv=0
PairPos2: "'kern' Horizontal Kerning in Latin lookup 0 per glyph data 1" d dx=0 dy=0 dh=-120 dv=0 dx=0 dy=0 dh=0 dv=0
PairPos2: "'kern' Horizontal Kerning in Latin lookup 0 per glyph data 1" c dx=0 dy=0 dh=-120 dv=0 dx=0 dy=0 dh=0 dv=0
PairPos2: "'kern' Horizontal Kerning in Latin lookup 0 per glyph data 1" a dx=0 dy=0 dh=-120 dv=0 dx=0 dy=0 dh=0 dv=0
PairPos2: "'kern' Horizontal Kerning in Latin lookup 0 per glyph data 1" A dx=0 dy=0 dh=-35 dv=0 dx=0 dy=0 dh=0 dv=0
PairPos2: "'kern' Horizontal Kerning in Latin lookup 0 per glyph data 1" period dx=0 dy=0 dh=-60 dv=0 dx=0 dy=0 dh=0 dv=0
PairPos2: "'kern' Horizontal Kerning in Latin lookup 0 per glyph data 1" comma dx=0 dy=0 dh=-60 dv=0 dx=0 dy=0 dh=0 dv=0
EndChar

StartChar: U
Encoding: 85 85 59
Width: 741
GlyphClass: 2
Flags: W
LayerCount: 2
Fore
SplineSet
169 872 m 128,-1,1
 204 872 204 872 204 846 c 1,2,-1
 141 322 l 2,3,4
 134 262 134 262 134 228 c 0,5,6
 134 141 134 141 173.5 96.5 c 128,-1,7
 213 52 213 52 311 52 c 0,8,9
 375 52 375 52 416.5 70 c 128,-1,10
 458 88 458 88 481.5 128 c 128,-1,11
 505 168 505 168 515.5 210 c 128,-1,12
 526 252 526 252 535 322 c 2,13,-1
 599 846 l 1,14,15
 604 872 604 872 639.5 872 c 128,-1,16
 675 872 675 872 675 846 c 1,17,-1
 612 322 l 2,18,19
 601 235 601 235 584 178 c 128,-1,20
 567 121 567 121 534 75 c 0,21,22
 469 -14 469 -14 302 -14 c 0,23,24
 168 -14 168 -14 112 46.5 c 128,-1,25
 56 107 56 107 56 225 c 0,26,27
 56 261 56 261 63 322 c 2,28,-1
 129 846 l 1,29,0
 134 872 134 872 169 872 c 128,-1,1
EndSplineSet
EndChar

StartChar: V
Encoding: 86 86 60
Width: 624
GlyphClass: 2
Flags: W
LayerCount: 2
Fore
SplineSet
67 839 m 1,0,-1
 66 847 l 1,1,2
 66 872 66 872 104 872 c 0,3,4
 124 872 124 872 134 866 c 128,-1,5
 144 860 144 860 147 843 c 2,6,-1
 260 99 l 1,7,-1
 542 778 l 2,8,9
 545 786 545 786 552.5 804 c 128,-1,10
 560 822 560 822 564 832 c 128,-1,11
 568 842 568 842 574 853 c 0,12,13
 586 872 586 872 601 872 c 128,-1,14
 616 872 616 872 630.5 864 c 128,-1,15
 645 856 645 856 645 839.5 c 128,-1,16
 645 823 645 823 601 720 c 2,17,-1
 305 15 l 2,18,19
 293 -14 293 -14 249 -14 c 128,-1,20
 205 -14 205 -14 199 15 c 1,21,-1
 67 839 l 1,0,-1
EndSplineSet
EndChar

StartChar: W
Encoding: 87 87 61
Width: 963
GlyphClass: 2
Flags: W
LayerCount: 2
Fore
SplineSet
67 839 m 1,0,-1
 66 847 l 1,1,2
 66 872 66 872 104 872 c 0,3,4
 124 872 124 872 134 866 c 128,-1,5
 144 860 144 860 147 843 c 2,6,-1
 260 99 l 1,7,-1
 487 841 l 2,8,9
 496 872 496 872 521 872 c 2,10,-1
 525 872 l 2,11,12
 545 872 545 872 555 866 c 128,-1,13
 565 860 565 860 568 843 c 2,14,-1
 682 99 l 1,15,-1
 910 844 l 2,16,17
 910 845 910 845 911.5 849 c 128,-1,18
 913 853 913 853 913.5 854.5 c 128,-1,19
 914 856 914 856 916 859.5 c 128,-1,20
 918 863 918 863 919.5 864.5 c 128,-1,21
 921 866 921 866 924 868 c 0,22,23
 928 872 928 872 941.5 872 c 128,-1,24
 955 872 955 872 970.5 864 c 128,-1,25
 986 856 986 856 986 839 c 0,26,27
 986 835 986 835 949 717 c 2,28,-1
 727 15 l 1,29,30
 714 -14 714 -14 671 -14 c 128,-1,31
 628 -14 628 -14 620 15 c 1,32,-1
 512 692 l 1,33,-1
 305 15 l 1,34,35
 292 -14 292 -14 248.5 -14 c 128,-1,36
 205 -14 205 -14 199 15 c 1,37,-1
 67 839 l 1,0,-1
EndSplineSet
EndChar

StartChar: X
Encoding: 88 88 62
Width: 640
GlyphClass: 2
Flags: W
LayerCount: 2
Fore
SplineSet
108 847 m 0,0,1
 108 872 108 872 148 872 c 0,2,3
 167 872 167 872 177 866 c 128,-1,4
 187 860 187 860 195 843 c 2,5,-1
 332 521 l 1,6,-1
 571 846 l 2,7,8
 591 872 591 872 615 872 c 0,9,10
 650 872 650 872 650 839 c 0,11,12
 650 827 650 827 641 816 c 2,13,-1
 364 454 l 1,14,-1
 518 99 l 2,15,16
 547 33 547 33 547 18 c 128,-1,17
 547 3 547 3 537 -5.5 c 128,-1,18
 527 -14 527 -14 508 -14 c 128,-1,19
 489 -14 489 -14 479 -1 c 128,-1,20
 469 12 469 12 448 62 c 2,21,-1
 312 385 l 1,22,-1
 41 15 l 2,23,24
 20 -14 20 -14 -6 -14 c 0,25,26
 -20 -14 -20 -14 -30.5 -4.5 c 128,-1,27
 -41 5 -41 5 -41 19 c 128,-1,28
 -41 33 -41 33 -31 45 c 2,29,-1
 280 455 l 1,30,31
 108 843 108 843 108 847 c 0,0,1
EndSplineSet
EndChar

StartChar: Y
Encoding: 89 89 63
Width: 596
GlyphClass: 2
Flags: W
LayerCount: 2
Fore
SplineSet
60 839 m 1,0,-1
 59 847 l 1,1,2
 59 872 59 872 99 872 c 0,3,4
 118 872 118 872 127 866 c 128,-1,5
 136 860 136 860 143 843 c 2,6,-1
 284 473 l 1,7,-1
 556 854 l 2,8,9
 569 872 569 872 595 872 c 0,10,11
 634 872 634 872 634 844 c 0,12,13
 634 826 634 826 623 812 c 2,14,-1
 312 393 l 1,15,-1
 265 18 l 2,16,17
 261 -14 261 -14 224.5 -14 c 128,-1,18
 188 -14 188 -14 188 9 c 0,19,20
 188 16 188 16 189 24 c 2,21,-1
 234 396 l 1,22,-1
 60 839 l 1,0,-1
EndSplineSet
EndChar

StartChar: Z
Encoding: 90 90 64
Width: 624
GlyphClass: 2
Flags: W
LayerCount: 2
Fore
SplineSet
119 797 m 2,0,1
 87 797 87 797 87 823 c 0,2,3
 87 860 87 860 123 860 c 2,4,-1
 557 860 l 2,5,6
 589 860 589 860 589 833 c 0,7,8
 589 819 589 819 584 811 c 2,9,-1
 119 63 l 1,10,-1
 539 63 l 2,11,12
 571 63 571 63 571 36 c 0,13,14
 571 0 571 0 535 0 c 2,15,-1
 49 0 l 2,16,17
 17 0 17 0 17 27 c 0,18,19
 17 34 17 34 22 49 c 1,20,21
 388 639 388 639 438.5 717 c 128,-1,22
 489 795 489 795 490 797 c 1,23,-1
 119 797 l 2,0,1
EndSplineSet
EndChar

StartChar: bracketleft
Encoding: 91 91 65
Width: 434
GlyphClass: 2
Flags: W
LayerCount: 2
Fore
SplineSet
203 937 m 2,0,-1
 407 937 l 2,1,2
 434 937 434 937 434 906 c 0,3,4
 434 891 434 891 426 881.5 c 128,-1,5
 418 872 418 872 406 872 c 2,6,-1
 245 872 l 1,7,-1
 141 -29 l 1,8,-1
 294 -29 l 2,9,10
 321 -29 321 -29 321 -60 c 0,11,12
 321 -75 321 -75 313 -84.5 c 128,-1,13
 305 -94 305 -94 293 -94 c 2,14,-1
 92 -94 l 2,15,16
 60 -94 60 -94 60 -68 c 2,17,-1
 60 -63 l 1,18,-1
 172 911 l 2,19,20
 175 937 175 937 203 937 c 2,0,-1
EndSplineSet
EndChar

StartChar: backslash
Encoding: 92 92 66
Width: 482
GlyphClass: 2
Flags: W
LayerCount: 2
Fore
SplineSet
62 879 m 0,0,1
 62 896 62 896 89 896 c 0,2,3
 130 896 130 896 138 870 c 2,4,-1
 397 -5 l 2,5,6
 402 -20 402 -20 402 -24 c 0,7,8
 402 -38 402 -38 378 -38 c 0,9,10
 334 -38 334 -38 326 -13 c 2,11,-1
 67 858 l 2,12,13
 62 875 62 875 62 879 c 0,0,1
EndSplineSet
EndChar

StartChar: bracketright
Encoding: 93 93 67
Width: 434
GlyphClass: 2
Flags: W
LayerCount: 2
Fore
SplineSet
231 -94 m 2,0,-1
 27 -94 l 2,1,2
 0 -94 0 -94 0 -63 c 0,3,4
 0 -48 0 -48 8 -38.5 c 128,-1,5
 16 -29 16 -29 28 -29 c 2,6,-1
 189 -29 l 1,7,-1
 293 872 l 1,8,-1
 140 872 l 2,9,10
 113 872 113 872 113 903 c 0,11,12
 113 918 113 918 121 927.5 c 128,-1,13
 129 937 129 937 141 937 c 2,14,-1
 342 937 l 2,15,16
 374 937 374 937 374 911 c 2,17,-1
 374 906 l 1,18,-1
 262 -68 l 2,19,20
 259 -94 259 -94 231 -94 c 2,0,-1
EndSplineSet
EndChar

StartChar: asciicircum
Encoding: 94 94 68
Width: 589
GlyphClass: 2
Flags: W
LayerCount: 2
Fore
SplineSet
482 464 m 1,0,-1
 483 457 l 1,1,2
 483 434 483 434 451 434 c 0,3,4
 434 434 434 434 426.5 439 c 128,-1,5
 419 444 419 444 415 460 c 2,6,-1
 334 763 l 1,7,-1
 210 519 l 2,8,9
 183 465 183 465 171 449.5 c 128,-1,10
 159 434 159 434 145 434 c 0,11,12
 110 434 110 434 110 459 c 0,13,14
 110 471 110 471 162 571 c 2,15,-1
 292 823 l 2,16,17
 305 849 305 849 343.5 849 c 128,-1,18
 382 849 382 849 388 823 c 2,19,-1
 482 464 l 1,0,-1
EndSplineSet
EndChar

StartChar: underscore
Encoding: 95 95 69
Width: 481
GlyphClass: 2
Flags: W
LayerCount: 2
Fore
SplineSet
25 -30 m 2,0,-1
 459 -30 l 2,1,2
 469 -30 469 -30 475 -38 c 128,-1,3
 481 -46 481 -46 481 -57 c 0,4,5
 481 -88 481 -88 454 -88 c 2,6,-1
 18 -88 l 2,7,8
 0 -88 0 -88 0 -59 c 128,-1,9
 0 -30 0 -30 25 -30 c 2,0,-1
EndSplineSet
EndChar

StartChar: grave
Encoding: 96 96 70
Width: 302
GlyphClass: 2
Flags: W
LayerCount: 2
Fore
SplineSet
248 637 m 2,0,1
 252 631 252 631 252 622 c 128,-1,2
 252 613 252 613 244.5 605.5 c 128,-1,3
 237 598 237 598 227.5 598 c 128,-1,4
 218 598 218 598 213 603 c 2,5,-1
 63 740 l 2,6,7
 50 752 50 752 50 766.5 c 128,-1,8
 50 781 50 781 63 793.5 c 128,-1,9
 76 806 76 806 90.5 806 c 128,-1,10
 105 806 105 806 111 799 c 2,11,-1
 248 637 l 2,0,1
EndSplineSet
EndChar

StartChar: a
Encoding: 97 97 71
Width: 501
GlyphClass: 2
Flags: W
LayerCount: 2
Fore
SplineSet
117 123 m 0,0,1
 117 93 117 93 137.5 72.5 c 128,-1,2
 158 52 158 52 192 52 c 0,3,4
 254 52 254 52 297 114.5 c 128,-1,5
 340 177 340 177 353 256 c 1,6,7
 225 246 225 246 171 212 c 128,-1,8
 117 178 117 178 117 123 c 0,0,1
448 392 m 0,9,10
 448 365 448 365 429.5 258.5 c 128,-1,11
 411 152 411 152 411 112 c 128,-1,12
 411 72 411 72 416.5 46 c 128,-1,13
 422 20 422 20 422 14 c 0,14,15
 422 2 422 2 402 -6 c 128,-1,16
 382 -14 382 -14 364 -14 c 0,17,18
 342 -14 342 -14 342 76 c 2,19,-1
 342 102 l 1,20,21
 313 45 313 45 265 15.5 c 128,-1,22
 217 -14 217 -14 164 -14 c 128,-1,23
 111 -14 111 -14 74.5 18 c 128,-1,24
 38 50 38 50 38 108 c 0,25,26
 38 191 38 191 114.5 248 c 128,-1,27
 191 305 191 305 366 316 c 1,28,29
 371 346 371 346 371 378 c 0,30,31
 371 440 371 440 279 440 c 0,32,33
 233 440 233 440 185.5 421 c 128,-1,34
 138 402 138 402 136 402 c 0,35,36
 123 402 123 402 115 417.5 c 128,-1,37
 107 433 107 433 107 450 c 128,-1,38
 107 467 107 467 169 487 c 128,-1,39
 231 507 231 507 292 507 c 128,-1,40
 353 507 353 507 400.5 479.5 c 128,-1,41
 448 452 448 452 448 392 c 0,9,10
EndSplineSet
EndChar

StartChar: b
Encoding: 98 98 72
Width: 550
GlyphClass: 2
Flags: W
LayerCount: 2
Fore
SplineSet
188 48 m 0,0,1
 267 48 267 48 323.5 88.5 c 128,-1,2
 380 129 380 129 404.5 185 c 128,-1,3
 429 241 429 241 429 300.5 c 128,-1,4
 429 360 429 360 401.5 400.5 c 128,-1,5
 374 441 374 441 328 441 c 0,6,7
 194 441 194 441 163 189 c 2,8,-1
 146 50 l 1,9,10
 160 48 160 48 188 48 c 0,0,1
171 861 m 2,11,12
 174 887 174 887 210 887 c 128,-1,13
 246 887 246 887 246 866 c 1,14,-1
 191 424 l 1,15,16
 226 467 226 467 263 487 c 128,-1,17
 300 507 300 507 352 507 c 0,18,19
 426 507 426 507 468.5 450 c 128,-1,20
 511 393 511 393 511 309 c 0,21,22
 511 190 511 190 429 92 c 0,23,24
 389 45 389 45 321 15.5 c 128,-1,25
 253 -14 253 -14 161 -14 c 128,-1,26
 69 -14 69 -14 69 29 c 1,27,-1
 171 861 l 2,11,12
EndSplineSet
EndChar

StartChar: c
Encoding: 99 99 73
Width: 457
GlyphClass: 2
Flags: W
LayerCount: 2
Fore
SplineSet
319 507 m 0,0,1
 374 507 374 507 413 486 c 128,-1,2
 452 465 452 465 452 447 c 0,3,4
 452 432 452 432 440.5 418.5 c 128,-1,5
 429 405 429 405 420 405 c 128,-1,6
 411 405 411 405 400 415 c 0,7,8
 367 445 367 445 318 445 c 128,-1,9
 269 445 269 445 232.5 424 c 128,-1,10
 196 403 196 403 176 368 c 0,11,12
 135 297 135 297 135 214.5 c 128,-1,13
 135 132 135 132 169.5 90 c 128,-1,14
 204 48 204 48 270 48 c 0,15,16
 300 48 300 48 329.5 61 c 128,-1,17
 359 74 359 74 376 87.5 c 128,-1,18
 393 101 393 101 394 101 c 0,19,20
 405 101 405 101 412.5 86 c 128,-1,21
 420 71 420 71 420 56 c 0,22,23
 420 38 420 38 367.5 12 c 128,-1,24
 315 -14 315 -14 266 -14 c 0,25,26
 162 -14 162 -14 107.5 44.5 c 128,-1,27
 53 103 53 103 53 215.5 c 128,-1,28
 53 328 53 328 126 417.5 c 128,-1,29
 199 507 199 507 319 507 c 0,0,1
EndSplineSet
EndChar

StartChar: d
Encoding: 100 100 74
Width: 530
GlyphClass: 2
Flags: W
LayerCount: 2
Fore
SplineSet
450 207 m 1,0,1
 446 164 446 164 446 127.5 c 128,-1,2
 446 91 446 91 455 55 c 128,-1,3
 464 19 464 19 464 14 c 0,4,5
 464 2 464 2 445 -6 c 128,-1,6
 426 -14 426 -14 414 -14 c 128,-1,7
 402 -14 402 -14 396.5 -5 c 128,-1,8
 391 4 391 4 387.5 19.5 c 128,-1,9
 384 35 384 35 382.5 49.5 c 128,-1,10
 381 64 381 64 379.5 80.5 c 128,-1,11
 378 97 378 97 377 102 c 1,12,13
 354 48 354 48 303.5 17 c 128,-1,14
 253 -14 253 -14 193 -14 c 128,-1,15
 133 -14 133 -14 87.5 32 c 128,-1,16
 42 78 42 78 42 167 c 0,17,18
 42 263 42 263 88 344 c 0,19,20
 115 391 115 391 155.5 426.5 c 128,-1,21
 196 462 196 462 262 484.5 c 128,-1,22
 328 507 328 507 411 507 c 1,23,-1
 456 864 l 1,24,25
 457 887 457 887 502 887 c 0,26,27
 530 887 530 887 530 864 c 1,28,-1
 450 207 l 1,0,1
380 445 m 0,29,30
 270 445 270 445 197 366 c 128,-1,31
 124 287 124 287 124 176 c 0,32,33
 124 123 124 123 149 87.5 c 128,-1,34
 174 52 174 52 222 52 c 0,35,36
 356 52 356 52 387 304 c 2,37,-1
 404 442 l 1,38,39
 397 445 397 445 380 445 c 0,29,30
EndSplineSet
EndChar

StartChar: e
Encoding: 101 101 75
Width: 461
GlyphClass: 2
Flags: W
LayerCount: 2
Fore
SplineSet
378 395 m 0,0,1
 378 420 378 420 362.5 433.5 c 128,-1,2
 347 447 347 447 322 447 c 0,3,4
 268 447 268 447 210 397.5 c 128,-1,5
 152 348 152 348 138 265 c 1,6,7
 231 265 231 265 304.5 302 c 128,-1,8
 378 339 378 339 378 395 c 0,0,1
53 207 m 0,9,10
 53 280 53 280 80 340 c 128,-1,11
 107 400 107 400 148 435 c 0,12,13
 234 507 234 507 326 507 c 0,14,15
 381 507 381 507 416 480.5 c 128,-1,16
 451 454 451 454 451 405 c 0,17,18
 451 317 451 317 359.5 261.5 c 128,-1,19
 268 206 268 206 134 206 c 1,20,21
 134 131 134 131 169 89.5 c 128,-1,22
 204 48 204 48 270 48 c 0,23,24
 301 48 301 48 330 61 c 128,-1,25
 359 74 359 74 376 88 c 2,26,-1
 393 101 l 1,27,28
 404 101 404 101 412 86 c 128,-1,29
 420 71 420 71 420 56 c 0,30,31
 420 38 420 38 367.5 12 c 128,-1,32
 315 -14 315 -14 266 -14 c 0,33,34
 162 -14 162 -14 107.5 43.5 c 128,-1,35
 53 101 53 101 53 207 c 0,9,10
EndSplineSet
EndChar

StartChar: f
Encoding: 102 102 76
Width: 330
GlyphClass: 2
Flags: W
LayerCount: 2
Fore
SplineSet
323 426 m 2,0,-1
 223 426 l 1,1,-1
 163 -91 l 1,2,3
 143 -276 143 -276 50 -324 c 0,4,5
 13 -344 13 -344 -40 -344 c 128,-1,6
 -93 -344 -93 -344 -140.5 -321.5 c 128,-1,7
 -188 -299 -188 -299 -188 -281 c 0,8,9
 -188 -268 -188 -268 -174.5 -251 c 128,-1,10
 -161 -234 -161 -234 -148 -234 c 0,11,12
 -147 -234 -147 -234 -134 -244.5 c 128,-1,13
 -121 -255 -121 -255 -95 -265.5 c 128,-1,14
 -69 -276 -69 -276 -40.5 -276 c 128,-1,15
 -12 -276 -12 -276 5.5 -270 c 128,-1,16
 23 -264 23 -264 38 -245 c 128,-1,17
 53 -226 53 -226 62.5 -201.5 c 128,-1,18
 72 -177 72 -177 82 -130 c 0,19,20
 95 -65 95 -65 115 104 c 2,21,-1
 152 426 l 1,22,-1
 72 426 l 2,23,24
 59 426 59 426 52 435 c 128,-1,25
 45 444 45 444 45 456.5 c 128,-1,26
 45 469 45 469 55 481 c 128,-1,27
 65 493 65 493 76 493 c 2,28,-1
 160 493 l 1,29,-1
 173 607 l 2,30,31
 190 764 190 764 240 826 c 0,32,33
 286 882 286 882 368 882 c 0,34,35
 413 882 413 882 454 871 c 128,-1,36
 495 860 495 860 495 847 c 0,37,38
 495 832 495 832 484 813 c 128,-1,39
 473 794 473 794 460 794 c 0,40,41
 459 794 459 794 448 799 c 0,42,43
 415 813 415 813 377.5 813 c 128,-1,44
 340 813 340 813 318.5 799 c 128,-1,45
 297 785 297 785 285.5 767 c 128,-1,46
 274 749 274 749 265 715 c 0,47,48
 254 675 254 675 245 600 c 2,49,-1
 232 493 l 1,50,-1
 330 493 l 2,51,52
 353 493 353 493 353 463 c 0,53,54
 353 450 353 450 344 438 c 128,-1,55
 335 426 335 426 323 426 c 2,0,-1
EndSplineSet
EndChar

StartChar: g
Encoding: 103 103 77
Width: 524
GlyphClass: 2
Flags: W
LayerCount: 2
Fore
SplineSet
380 445 m 0,0,1
 270 445 270 445 197 366 c 128,-1,2
 124 287 124 287 124 176 c 0,3,4
 124 123 124 123 149 87.5 c 128,-1,5
 174 52 174 52 222 52 c 0,6,7
 356 52 356 52 387 304 c 2,8,-1
 404 442 l 1,9,10
 397 445 397 445 380 445 c 0,0,1
289 5 m 128,-1,12
 252 -14 252 -14 192.5 -14 c 128,-1,13
 133 -14 133 -14 87.5 32 c 128,-1,14
 42 78 42 78 42 167 c 0,15,16
 42 263 42 263 88 344 c 0,17,18
 115 391 115 391 155.5 426.5 c 128,-1,19
 196 462 196 462 262 484.5 c 128,-1,20
 328 507 328 507 404.5 507 c 128,-1,21
 481 507 481 507 481 463 c 1,22,-1
 411 -91 l 2,23,24
 396 -211 396 -211 344.5 -277 c 128,-1,25
 293 -343 293 -343 180 -343 c 0,26,27
 137 -343 137 -343 94 -332 c 128,-1,28
 51 -321 51 -321 27 -307 c 128,-1,29
 3 -293 3 -293 3 -279.5 c 128,-1,30
 3 -266 3 -266 11.5 -246.5 c 128,-1,31
 20 -227 20 -227 33 -227 c 0,32,33
 34 -227 34 -227 41.5 -232.5 c 128,-1,34
 49 -238 49 -238 62 -245.5 c 128,-1,35
 75 -253 75 -253 92 -260 c 0,36,37
 132 -279 132 -279 186.5 -279 c 128,-1,38
 241 -279 241 -279 275 -250 c 128,-1,39
 309 -221 309 -221 328 -148.5 c 128,-1,40
 347 -76 347 -76 359 69 c 1,41,11
 326 24 326 24 289 5 c 128,-1,12
EndSplineSet
EndChar

StartChar: h
Encoding: 104 104 78
Width: 569
GlyphClass: 2
Flags: W
LayerCount: 2
Fore
SplineSet
434 353 m 1,0,-1
 436 368 l 1,1,2
 436 441 436 441 346 441 c 0,3,4
 272 441 272 441 226 373.5 c 128,-1,5
 180 306 180 306 166 195 c 2,6,-1
 143 11 l 2,7,8
 140 -14 140 -14 96 -14 c 0,9,10
 81 -14 81 -14 75 -10 c 128,-1,11
 69 -6 69 -6 69 6 c 1,12,-1
 171 861 l 2,13,14
 175 887 175 887 210.5 887 c 128,-1,15
 246 887 246 887 246 866 c 1,16,-1
 194 416 l 1,17,18
 258 507 258 507 356 507 c 0,19,20
 432 507 432 507 472.5 471.5 c 128,-1,21
 513 436 513 436 513 374 c 0,22,23
 513 365 513 365 467 11 c 0,24,25
 464 -14 464 -14 418 -14 c 0,26,27
 392 -14 392 -14 392 6 c 1,28,-1
 434 353 l 1,0,-1
EndSplineSet
EndChar

StartChar: i
Encoding: 105 105 79
Width: 244
GlyphClass: 2
Flags: W
LayerCount: 2
Fore
SplineSet
96 -14 m 0,0,1
 81 -14 81 -14 75 -10 c 128,-1,2
 69 -6 69 -6 69 6 c 1,3,-1
 126 482 l 2,4,5
 129 507 129 507 165 507 c 128,-1,6
 201 507 201 507 201 487 c 1,7,-1
 143 11 l 2,8,9
 140 -14 140 -14 96 -14 c 0,0,1
241 692 m 0,10,11
 241 630 241 630 184 630 c 0,12,13
 139 630 139 630 139 668 c 0,14,15
 139 729 139 729 196 729 c 0,16,17
 241 729 241 729 241 692 c 0,10,11
EndSplineSet
EndChar

StartChar: j
Encoding: 106 106 80
Width: 242
GlyphClass: 2
Flags: W
LayerCount: 2
Fore
SplineSet
19.5 -324 m 128,-1,1
 -18 -343 -18 -343 -72.5 -343 c 128,-1,2
 -127 -343 -127 -343 -175.5 -321 c 128,-1,3
 -224 -299 -224 -299 -224 -281 c 0,4,5
 -224 -267 -224 -267 -210 -250.5 c 128,-1,6
 -196 -234 -196 -234 -183 -234 c 0,7,8
 -182 -234 -182 -234 -169 -244.5 c 128,-1,9
 -156 -255 -156 -255 -130 -265.5 c 128,-1,10
 -104 -276 -104 -276 -71 -276 c 0,11,12
 5 -276 5 -276 29 -208.5 c 128,-1,13
 53 -141 53 -141 80 105 c 2,14,-1
 122 482 l 2,15,16
 125 507 125 507 170 507 c 0,17,18
 196 507 196 507 196 487 c 1,19,-1
 128 -91 l 2,20,21
 121 -148 121 -148 110.5 -188.5 c 128,-1,22
 100 -229 100 -229 78.5 -267 c 128,-1,0
 57 -305 57 -305 19.5 -324 c 128,-1,1
241 692 m 0,23,24
 241 630 241 630 184 630 c 0,25,26
 139 630 139 630 139 668 c 0,27,28
 139 729 139 729 196 729 c 0,29,30
 241 729 241 729 241 692 c 0,23,24
EndSplineSet
EndChar

StartChar: k
Encoding: 107 107 81
Width: 471
GlyphClass: 2
Flags: W
LayerCount: 2
Fore
SplineSet
445.5 38.5 m 128,-1,1
 451 32 451 32 451 21 c 128,-1,2
 451 10 451 10 437 -6 c 128,-1,3
 423 -22 423 -22 413 -22 c 0,4,5
 379 -22 379 -22 311 77 c 2,6,-1
 201 239 l 1,7,-1
 166 210 l 1,8,-1
 142 11 l 2,9,10
 139 -14 139 -14 94 -14 c 0,11,12
 68 -14 68 -14 68 6 c 1,13,-1
 170 861 l 2,14,15
 174 887 174 887 209 887 c 128,-1,16
 244 887 244 887 244 866 c 1,17,-1
 177 300 l 1,18,19
 306 415 306 415 349.5 457 c 128,-1,20
 393 499 393 499 398.5 502.5 c 128,-1,21
 404 506 404 506 413.5 506.5 c 128,-1,22
 423 507 423 507 434.5 496.5 c 128,-1,23
 446 486 446 486 446.5 472.5 c 128,-1,24
 447 459 447 459 410.5 422.5 c 128,-1,25
 374 386 374 386 255 286 c 1,26,-1
 360 137 l 1,27,28
 404 78 404 78 422 61.5 c 128,-1,0
 440 45 440 45 445.5 38.5 c 128,-1,1
EndSplineSet
EndChar

StartChar: l
Encoding: 108 108 82
Width: 244
GlyphClass: 2
Flags: W
LayerCount: 2
Fore
SplineSet
96 -14 m 0,0,1
 81 -14 81 -14 75 -10 c 128,-1,2
 69 -6 69 -6 69 6 c 1,3,-1
 171 861 l 2,4,5
 175 887 175 887 210.5 887 c 128,-1,6
 246 887 246 887 246 866 c 1,7,-1
 143 11 l 2,8,9
 140 -14 140 -14 96 -14 c 0,0,1
EndSplineSet
EndChar

StartChar: m
Encoding: 109 109 83
Width: 838
GlyphClass: 2
Flags: W
LayerCount: 2
Fore
SplineSet
643 507 m 0,0,1
 706 507 706 507 743 471 c 128,-1,2
 780 435 780 435 780 374 c 0,3,4
 780 358 780 358 734 11 c 0,5,6
 731 -14 731 -14 689 -14 c 0,7,8
 663 -14 663 -14 663 6 c 1,9,-1
 705 371 l 1,10,11
 705 399 705 399 685 420 c 128,-1,12
 665 441 665 441 622 441 c 0,13,14
 554 441 554 441 515 373.5 c 128,-1,15
 476 306 476 306 462 195 c 2,16,-1
 439 11 l 2,17,18
 436 -14 436 -14 391 -14 c 0,19,20
 364 -14 364 -14 364 6 c 1,21,-1
 409 371 l 1,22,23
 409 399 409 399 389.5 420 c 128,-1,24
 370 441 370 441 327 441 c 0,25,26
 259 441 259 441 219 373 c 128,-1,27
 179 305 179 305 166 195 c 2,28,-1
 143 11 l 2,29,30
 140 -14 140 -14 96 -14 c 0,31,32
 81 -14 81 -14 75 -10 c 128,-1,33
 69 -6 69 -6 69 6 c 1,34,-1
 126 482 l 2,35,36
 129 507 129 507 165 507 c 128,-1,37
 201 507 201 507 201 487 c 1,38,-1
 192 417 l 1,39,-1
 198 417 l 1,40,41
 265 507 265 507 348 507 c 0,42,43
 399 507 399 507 435 482.5 c 128,-1,44
 471 458 471 458 481 416 c 1,45,-1
 486 416 l 1,46,47
 548 507 548 507 643 507 c 0,0,1
EndSplineSet
EndChar

StartChar: n
Encoding: 110 110 84
Width: 569
GlyphClass: 2
Flags: W
LayerCount: 2
Fore
SplineSet
434 353 m 1,0,-1
 436 368 l 1,1,2
 436 441 436 441 346 441 c 0,3,4
 272 441 272 441 226 373.5 c 128,-1,5
 180 306 180 306 166 195 c 2,6,-1
 143 11 l 2,7,8
 140 -14 140 -14 96 -14 c 0,9,10
 81 -14 81 -14 75 -10 c 128,-1,11
 69 -6 69 -6 69 6 c 1,12,-1
 126 482 l 2,13,14
 129 507 129 507 165 507 c 128,-1,15
 201 507 201 507 201 487 c 1,16,-1
 192 417 l 1,17,-1
 198 417 l 1,18,19
 260 507 260 507 356 507 c 0,20,21
 432 507 432 507 472.5 471.5 c 128,-1,22
 513 436 513 436 513 374 c 0,23,24
 513 365 513 365 467 11 c 0,25,26
 464 -14 464 -14 418 -14 c 0,27,28
 392 -14 392 -14 392 6 c 1,29,-1
 434 353 l 1,0,-1
EndSplineSet
EndChar

StartChar: o
Encoding: 111 111 85
Width: 545
GlyphClass: 2
Flags: W
LayerCount: 2
Fore
SplineSet
317 507 m 0,0,1
 410 507 410 507 461.5 442 c 128,-1,2
 513 377 513 377 513 283 c 0,3,4
 513 159 513 159 439.5 72.5 c 128,-1,5
 366 -14 366 -14 249 -14 c 0,6,7
 156 -14 156 -14 105.5 49.5 c 128,-1,8
 55 113 55 113 53 207 c 1,9,10
 53 316 53 316 114 407 c 0,11,12
 145 452 145 452 197.5 479.5 c 128,-1,13
 250 507 250 507 317 507 c 0,0,1
151 321.5 m 128,-1,15
 133 271 133 271 133 205.5 c 128,-1,16
 133 140 133 140 164 94 c 128,-1,17
 195 48 195 48 264.5 48 c 128,-1,18
 334 48 334 48 385 115 c 128,-1,19
 436 182 436 182 436 266 c 128,-1,20
 436 350 436 350 404 397.5 c 128,-1,21
 372 445 372 445 312.5 445 c 128,-1,22
 253 445 253 445 211 408.5 c 128,-1,14
 169 372 169 372 151 321.5 c 128,-1,15
EndSplineSet
EndChar

StartChar: p
Encoding: 112 112 86
Width: 555
GlyphClass: 2
Flags: W
LayerCount: 2
Fore
SplineSet
55 -350 m 0,0,1
 28 -350 28 -350 28 -330 c 1,2,-1
 128 482 l 1,3,4
 131 497 131 497 141.5 502 c 128,-1,5
 152 507 152 507 177 507 c 128,-1,6
 202 507 202 507 202 487 c 1,7,-1
 195 416 l 1,8,9
 260 507 260 507 357 507 c 0,10,11
 422 507 422 507 467.5 461 c 128,-1,12
 513 415 513 415 513 326 c 0,13,14
 513 229 513 229 466 148 c 1,15,16
 440 101 440 101 400 66 c 128,-1,17
 360 31 360 31 294 8.5 c 128,-1,18
 228 -14 228 -14 145 -14 c 1,19,-1
 103 -325 l 2,20,21
 100 -350 100 -350 55 -350 c 0,0,1
177 48 m 0,22,23
 286 48 286 48 359 127 c 128,-1,24
 432 206 432 206 432 316 c 0,25,26
 432 369 432 369 407 405 c 128,-1,27
 382 441 382 441 334 441 c 0,28,29
 197 441 197 441 168 189 c 2,30,-1
 152 50 l 1,31,32
 160 48 160 48 177 48 c 0,22,23
EndSplineSet
EndChar

StartChar: q
Encoding: 113 113 87
Width: 526
GlyphClass: 2
Flags: W
LayerCount: 2
Fore
SplineSet
341 -350 m 0,0,1
 311 -350 311 -350 311 -331 c 1,2,-1
 329 -172 l 1,3,4
 260 -187 260 -187 255 -187 c 0,5,6
 233 -187 233 -187 233 -162 c 128,-1,7
 233 -137 233 -137 259 -132 c 2,8,-1
 336 -115 l 1,9,-1
 359 69 l 1,10,11
 303 -14 303 -14 199 -14 c 0,12,13
 122 -14 122 -14 82 35 c 128,-1,14
 42 84 42 84 42 167 c 0,15,16
 42 312 42 312 149 417 c 1,17,18
 239 507 239 507 388 507 c 0,19,20
 438 507 438 507 459.5 500.5 c 128,-1,21
 481 494 481 494 481 469 c 0,22,23
 481 465 481 465 413 -99 c 1,24,25
 498 -81 498 -81 501 -81 c 0,26,27
 518 -81 518 -81 518 -106.5 c 128,-1,28
 518 -132 518 -132 494 -137 c 2,29,-1
 406 -155 l 1,30,-1
 387 -325 l 2,31,32
 385 -350 385 -350 341 -350 c 0,0,1
380 445 m 0,33,34
 270 445 270 445 197 366 c 128,-1,35
 124 287 124 287 124 176 c 0,36,37
 124 123 124 123 149 87.5 c 128,-1,38
 174 52 174 52 222 52 c 0,39,40
 356 52 356 52 387 304 c 2,41,-1
 404 442 l 1,42,43
 397 445 397 445 380 445 c 0,33,34
EndSplineSet
EndChar

StartChar: r
Encoding: 114 114 88
Width: 377
GlyphClass: 2
Flags: W
LayerCount: 2
Fore
SplineSet
346 441 m 0,0,1
 273 441 273 441 225.5 368.5 c 128,-1,2
 178 296 178 296 166 195 c 2,3,-1
 143 11 l 2,4,5
 140 -14 140 -14 96 -14 c 0,6,7
 81 -14 81 -14 75 -10 c 128,-1,8
 69 -6 69 -6 69 6 c 1,9,-1
 126 482 l 2,10,11
 129 507 129 507 165 507 c 128,-1,12
 201 507 201 507 201 487 c 1,13,-1
 191 412 l 1,14,-1
 196 412 l 1,15,16
 224 458 224 458 269 486 c 128,-1,17
 314 514 314 514 363 514 c 0,18,19
 392 514 392 514 392 493 c 128,-1,20
 392 472 392 472 383 460 c 0,21,22
 370 441 370 441 346 441 c 0,0,1
EndSplineSet
EndChar

StartChar: s
Encoding: 115 115 89
Width: 372
GlyphClass: 2
Flags: W
LayerCount: 2
Fore
SplineSet
296 27 m 128,-1,1
 254 -14 254 -14 189 -14 c 128,-1,2
 124 -14 124 -14 75 8 c 128,-1,3
 26 30 26 30 26 47 c 128,-1,4
 26 64 26 64 33.5 79.5 c 128,-1,5
 41 95 41 95 55 95 c 0,6,7
 56 95 56 95 71.5 83.5 c 128,-1,8
 87 72 87 72 116 60 c 128,-1,9
 145 48 145 48 177 48 c 128,-1,10
 209 48 209 48 235.5 64 c 128,-1,11
 262 80 262 80 262 110.5 c 128,-1,12
 262 141 262 141 243.5 166.5 c 128,-1,13
 225 192 225 192 198 212.5 c 128,-1,14
 171 233 171 233 144 254.5 c 128,-1,15
 117 276 117 276 98.5 306.5 c 128,-1,16
 80 337 80 337 80 372 c 0,17,18
 80 426 80 426 120.5 466.5 c 128,-1,19
 161 507 161 507 217 507 c 128,-1,20
 273 507 273 507 307 492.5 c 128,-1,21
 341 478 341 478 341 462 c 128,-1,22
 341 446 341 446 333.5 431 c 128,-1,23
 326 416 326 416 314 416 c 0,24,25
 313 416 313 416 302 423 c 0,26,27
 267 445 267 445 229 445 c 128,-1,28
 191 445 191 445 171.5 427.5 c 128,-1,29
 152 410 152 410 152 382 c 128,-1,30
 152 354 152 354 171 330 c 128,-1,31
 190 306 190 306 217.5 285 c 128,-1,32
 245 264 245 264 272.5 241.5 c 128,-1,33
 300 219 300 219 319 188 c 128,-1,34
 338 157 338 157 338 122 c 0,35,0
 338 68 338 68 296 27 c 128,-1,1
EndSplineSet
EndChar

StartChar: t
Encoding: 116 116 90
Width: 318
GlyphClass: 2
Flags: W
LayerCount: 2
Fore
SplineSet
98 493 m 2,0,-1
 157 493 l 1,1,-1
 175 647 l 2,2,3
 177 662 177 662 194 671 c 128,-1,4
 211 680 211 680 227 680 c 128,-1,5
 243 680 243 680 247 678 c 128,-1,6
 251 676 251 676 251 668 c 2,7,-1
 230 493 l 1,8,-1
 323 493 l 2,9,10
 346 493 346 493 346 463 c 0,11,12
 346 450 346 450 337 438 c 128,-1,13
 328 426 328 426 316 426 c 2,14,-1
 221 426 l 1,15,-1
 195 207 l 2,16,17
 190 167 190 167 190 129 c 128,-1,18
 190 91 190 91 198.5 55 c 128,-1,19
 207 19 207 19 207 14 c 0,20,21
 207 2 207 2 188.5 -6 c 128,-1,22
 170 -14 170 -14 153.5 -14 c 128,-1,23
 137 -14 137 -14 126.5 25.5 c 128,-1,24
 116 65 116 65 116 107.5 c 128,-1,25
 116 150 116 150 122 207 c 2,26,-1
 148 426 l 1,27,-1
 91 426 l 2,28,29
 69 426 69 426 69 455 c 0,30,31
 69 469 69 469 77.5 481 c 128,-1,32
 86 493 86 493 98 493 c 2,0,-1
EndSplineSet
EndChar

StartChar: u
Encoding: 117 117 91
Width: 524
GlyphClass: 2
Flags: W
LayerCount: 2
Fore
SplineSet
447 207 m 2,0,1
 443 175 443 175 443 133 c 128,-1,2
 443 91 443 91 451.5 55 c 128,-1,3
 460 19 460 19 460 14 c 0,4,5
 460 2 460 2 441.5 -6 c 128,-1,6
 423 -14 423 -14 411 -14 c 128,-1,7
 399 -14 399 -14 393.5 -5 c 128,-1,8
 388 4 388 4 384.5 20 c 128,-1,9
 381 36 381 36 379 49 c 0,10,11
 374 82 374 82 374 102 c 1,12,13
 318 -14 318 -14 196 -14 c 0,14,15
 130 -14 130 -14 96.5 29 c 128,-1,16
 63 72 63 72 63 141 c 0,17,18
 63 178 63 178 101 482 c 0,19,20
 104 507 104 507 140.5 507 c 128,-1,21
 177 507 177 507 177 487 c 1,22,23
 139 198 139 198 139 143 c 0,24,25
 139 52 139 52 217 52 c 0,26,27
 257 52 257 52 288 75 c 128,-1,28
 319 98 319 98 338 137 c 0,29,30
 372 210 372 210 384 304 c 2,31,-1
 406 482 l 2,32,33
 409 507 409 507 453 507 c 0,34,35
 482 507 482 507 482 487 c 1,36,-1
 447 207 l 2,0,1
EndSplineSet
EndChar

StartChar: v
Encoding: 118 118 92
Width: 469
GlyphClass: 2
Flags: W
LayerCount: 2
Fore
SplineSet
389.5 499 m 128,-1,1
 398 507 398 507 418 507 c 128,-1,2
 438 507 438 507 443.5 499 c 128,-1,3
 449 491 449 491 449 462 c 0,4,5
 449 360 449 360 403 247.5 c 128,-1,6
 357 135 357 135 287.5 60.5 c 128,-1,7
 218 -14 218 -14 155 -14 c 0,8,9
 121 -14 121 -14 119 24 c 1,10,-1
 56 484 l 1,11,12
 56 507 56 507 91 507 c 0,13,14
 113 507 113 507 120.5 499.5 c 128,-1,15
 128 492 128 492 131 469 c 2,16,-1
 187 60 l 1,17,18
 348 159 348 159 381 462 c 1,19,0
 381 491 381 491 389.5 499 c 128,-1,1
EndSplineSet
EndChar

StartChar: w
Encoding: 119 119 93
Width: 759
GlyphClass: 2
Flags: W
LayerCount: 2
Fore
SplineSet
670 470 m 0,0,1
 670 494 670 494 678.5 500.5 c 128,-1,2
 687 507 687 507 707.5 507 c 128,-1,3
 728 507 728 507 733.5 499 c 128,-1,4
 739 491 739 491 739 462 c 0,5,6
 739 360 739 360 693 247.5 c 128,-1,7
 647 135 647 135 577.5 60.5 c 128,-1,8
 508 -14 508 -14 445 -14 c 0,9,10
 414 -14 414 -14 409 24 c 2,11,-1
 383 206 l 1,12,13
 336 110 336 110 274 48 c 128,-1,14
 212 -14 212 -14 155 -14 c 0,15,16
 124 -14 124 -14 119 24 c 2,17,-1
 56 484 l 1,18,19
 56 507 56 507 91 507 c 0,20,21
 113 507 113 507 120.5 499.5 c 128,-1,22
 128 492 128 492 131 469 c 2,23,-1
 187 60 l 1,24,25
 304 130 304 130 368 319 c 1,26,-1
 346 484 l 1,27,28
 346 507 346 507 381 507 c 0,29,30
 403 507 403 507 410.5 499.5 c 128,-1,31
 418 492 418 492 421 469 c 2,32,-1
 477 60 l 1,33,34
 551 96 551 96 610.5 222 c 128,-1,35
 670 348 670 348 670 470 c 0,0,1
EndSplineSet
EndChar

StartChar: x
Encoding: 120 120 94
Width: 535
GlyphClass: 2
Flags: W
LayerCount: 2
Fore
SplineSet
475 507 m 128,-1,1
 491 507 491 507 503 494 c 128,-1,2
 515 481 515 481 515 470 c 128,-1,3
 515 459 515 459 498 444 c 0,4,5
 399 357 399 357 309 249 c 1,6,-1
 363 137 l 2,7,8
 380 103 380 103 397.5 80.5 c 128,-1,9
 415 58 415 58 426 52 c 0,10,11
 451 37 451 37 451 25 c 128,-1,12
 451 13 451 13 435.5 -4.5 c 128,-1,13
 420 -22 420 -22 410 -22 c 0,14,15
 387 -22 387 -22 358.5 4 c 128,-1,16
 330 30 330 30 308 77 c 2,17,-1
 256 186 l 1,18,19
 190 100 190 100 132.5 43 c 128,-1,20
 75 -14 75 -14 59.5 -14 c 128,-1,21
 44 -14 44 -14 32 -1.5 c 128,-1,22
 20 11 20 11 20 22 c 128,-1,23
 20 33 20 33 38 48 c 0,24,25
 136 135 136 135 228 248 c 1,26,-1
 182 347 l 2,27,28
 166 382 166 382 148.5 405 c 128,-1,29
 131 428 131 428 120 434 c 0,30,31
 95 449 95 449 95 461 c 128,-1,32
 95 473 95 473 110.5 490 c 128,-1,33
 126 507 126 507 136 507 c 0,34,35
 159 507 159 507 188 481 c 128,-1,36
 217 455 217 455 237 409 c 2,37,-1
 281 311 l 1,38,39
 348 396 348 396 403.5 451.5 c 128,-1,0
 459 507 459 507 475 507 c 128,-1,1
EndSplineSet
EndChar

StartChar: y
Encoding: 121 121 95
Width: 498
GlyphClass: 2
Flags: W
LayerCount: 2
Fore
SplineSet
461 507 m 0,0,1
 475 507 475 507 479.5 503 c 128,-1,2
 484 499 484 499 484 487 c 1,3,-1
 326 -91 l 2,4,5
 276 -274 276 -274 175 -324 c 0,6,7
 135 -343 135 -343 83 -343 c 128,-1,8
 31 -343 31 -343 -17.5 -321 c 128,-1,9
 -66 -299 -66 -299 -66 -281 c 0,10,11
 -66 -267 -66 -267 -52 -250.5 c 128,-1,12
 -38 -234 -38 -234 -25 -234 c 1,13,-1
 -12 -244 l 2,14,15
 1 -255 1 -255 27.5 -265.5 c 128,-1,16
 54 -276 54 -276 96.5 -276 c 128,-1,17
 139 -276 139 -276 171 -252 c 0,18,19
 236 -203 236 -203 301 78 c 1,20,21
 222 -14 222 -14 165 -14 c 0,22,23
 134 -14 134 -14 129 24 c 2,24,-1
 66 484 l 1,25,26
 66 507 66 507 101 507 c 0,27,28
 123 507 123 507 130.5 499.5 c 128,-1,29
 138 492 138 492 141 469 c 2,30,-1
 197 56 l 1,31,32
 234 68 234 68 283 129.5 c 128,-1,33
 332 191 332 191 352 267 c 2,34,-1
 409 482 l 2,35,36
 416 507 416 507 461 507 c 0,0,1
EndSplineSet
EndChar

StartChar: z
Encoding: 122 122 96
Width: 461
GlyphClass: 2
Flags: W
LayerCount: 2
Fore
SplineSet
454 463 m 0,0,1
 454 447 454 447 444 437 c 0,2,3
 444 436 444 436 443 434 c 2,4,-1
 119 59 l 1,5,-1
 391 59 l 2,6,7
 413 59 413 59 413 31 c 0,8,9
 413 17 413 17 404.5 5 c 128,-1,10
 396 -7 396 -7 384 -7 c 2,11,-1
 37 -7 l 2,12,13
 12 -7 12 -7 12 24 c 0,14,15
 12 40 12 40 24 52 c 1,16,-1
 345 426 l 1,17,-1
 112 426 l 2,18,19
 101 426 101 426 93.5 435.5 c 128,-1,20
 86 445 86 445 86 457 c 128,-1,21
 86 469 86 469 95.5 481 c 128,-1,22
 105 493 105 493 117 493 c 2,23,-1
 432 493 l 2,24,25
 454 493 454 493 454 463 c 0,0,1
EndSplineSet
EndChar

StartChar: braceleft
Encoding: 123 123 97
Width: 434
GlyphClass: 2
Flags: W
LayerCount: 2
Fore
SplineSet
32 391 m 2,0,1
 5 391 5 391 5 422 c 0,2,3
 5 437 5 437 13 446.5 c 128,-1,4
 21 456 21 456 33 456 c 2,5,-1
 119 456 l 1,6,-1
 144 672 l 2,7,8
 160 817 160 817 188 862 c 1,9,10
 223 921 223 921 271 937 c 0,11,12
 301 947 301 947 344.5 947 c 128,-1,13
 388 947 388 947 420 934.5 c 128,-1,14
 452 922 452 922 452 901.5 c 128,-1,15
 452 881 452 881 442.5 870.5 c 128,-1,16
 433 860 433 860 421.5 860 c 128,-1,17
 410 860 410 860 386 869 c 128,-1,18
 362 878 362 878 335.5 878 c 128,-1,19
 309 878 309 878 289.5 866 c 128,-1,20
 270 854 270 854 259 838.5 c 128,-1,21
 248 823 248 823 240 793 c 0,22,23
 230 750 230 750 223 688 c 2,24,-1
 201 493 l 2,25,26
 195 434 195 434 140 424 c 1,27,-1
 139 420 l 1,28,29
 184 410 184 410 184 352 c 0,30,31
 184 339 184 339 169.5 221.5 c 128,-1,32
 155 104 155 104 155 65 c 0,33,34
 155 -35 155 -35 231 -35 c 0,35,36
 258 -35 258 -35 283.5 -26 c 128,-1,37
 309 -17 309 -17 316 -17 c 0,38,39
 344 -17 344 -17 344 -43 c 0,40,41
 344 -72 344 -72 309 -88 c 128,-1,42
 274 -104 274 -104 219 -104 c 0,43,44
 139 -104 139 -104 108.5 -62.5 c 128,-1,45
 78 -21 78 -21 78 55 c 0,46,47
 78 99 78 99 87 171 c 2,48,-1
 112 391 l 1,49,-1
 32 391 l 2,0,1
EndSplineSet
EndChar

StartChar: bar
Encoding: 124 124 98
Width: 482
GlyphClass: 2
Flags: W
LayerCount: 2
Fore
SplineSet
177 -38 m 0,0,1
 162 -38 162 -38 156 -34 c 128,-1,2
 150 -30 150 -30 150 -18 c 1,3,-1
 257 870 l 2,4,5
 261 896 261 896 296.5 896 c 128,-1,6
 332 896 332 896 332 875 c 1,7,-1
 224 -13 l 2,8,9
 221 -38 221 -38 177 -38 c 0,0,1
EndSplineSet
EndChar

StartChar: braceright
Encoding: 125 125 99
Width: 434
GlyphClass: 2
Flags: W
LayerCount: 2
Fore
SplineSet
402 451 m 2,0,1
 429 451 429 451 429 420 c 0,2,3
 429 405 429 405 421 395.5 c 128,-1,4
 413 386 413 386 401 386 c 2,5,-1
 315 386 l 1,6,-1
 290 170 l 2,7,8
 274 25 274 25 246 -20 c 1,9,10
 211 -79 211 -79 163 -95 c 0,11,12
 133 -105 133 -105 89.5 -105 c 128,-1,13
 46 -105 46 -105 14 -92.5 c 128,-1,14
 -18 -80 -18 -80 -18 -59.5 c 128,-1,15
 -18 -39 -18 -39 -8.5 -28.5 c 128,-1,16
 1 -18 1 -18 12.5 -18 c 128,-1,17
 24 -18 24 -18 48 -27 c 128,-1,18
 72 -36 72 -36 98.5 -36 c 128,-1,19
 125 -36 125 -36 144.5 -24 c 128,-1,20
 164 -12 164 -12 175 3.5 c 128,-1,21
 186 19 186 19 194 49 c 0,22,23
 204 92 204 92 211 154 c 2,24,-1
 233 349 l 2,25,26
 239 408 239 408 294 418 c 1,27,-1
 295 422 l 1,28,29
 250 432 250 432 250 490 c 0,30,31
 250 503 250 503 264.5 620.5 c 128,-1,32
 279 738 279 738 279 777 c 0,33,34
 279 877 279 877 203 877 c 0,35,36
 176 877 176 877 150.5 868 c 128,-1,37
 125 859 125 859 118 859 c 0,38,39
 90 859 90 859 90 885 c 0,40,41
 90 914 90 914 125 930 c 128,-1,42
 160 946 160 946 215 946 c 0,43,44
 295 946 295 946 325.5 904.5 c 128,-1,45
 356 863 356 863 356 787 c 0,46,47
 356 743 356 743 347 671 c 2,48,-1
 322 451 l 1,49,-1
 402 451 l 2,0,1
EndSplineSet
EndChar

StartChar: asciitilde
Encoding: 126 126 100
Width: 672
GlyphClass: 2
Flags: W
LayerCount: 2
Fore
SplineSet
133.5 456.5 m 128,-1,1
 179 474 179 474 221.5 474 c 128,-1,2
 264 474 264 474 341 444 c 128,-1,3
 418 414 418 414 455.5 414 c 128,-1,4
 493 414 493 414 526 430.5 c 128,-1,5
 559 447 559 447 561 447 c 0,6,7
 583 447 583 447 583 411 c 0,8,9
 583 385 583 385 538 367.5 c 128,-1,10
 493 350 493 350 450.5 350 c 128,-1,11
 408 350 408 350 331 380 c 128,-1,12
 254 410 254 410 216.5 410 c 128,-1,13
 179 410 179 410 146 393.5 c 128,-1,14
 113 377 113 377 111 377 c 0,15,16
 88 377 88 377 88 413 c 0,17,0
 88 439 88 439 133.5 456.5 c 128,-1,1
EndSplineSet
EndChar

StartChar: exclamdown
Encoding: 161 161 102
Width: 295
GlyphClass: 2
Flags: W
LayerCount: 2
Fore
SplineSet
130 267 m 2,0,1
 133 291 133 291 162.5 291 c 128,-1,2
 192 291 192 291 192 273 c 0,3,4
 192 263 192 263 191 254 c 2,5,-1
 135 -312 l 2,6,7
 132 -351 132 -351 89 -351 c 128,-1,8
 46 -351 46 -351 46 -319 c 0,9,10
 46 -311 46 -311 51 -276 c 2,11,-1
 130 267 l 2,0,1
134 428 m 0,12,13
 134 490 134 490 191 490 c 0,14,15
 236 490 236 490 236 452 c 0,16,17
 236 391 236 391 179 391 c 0,18,19
 134 391 134 391 134 428 c 0,12,13
EndSplineSet
EndChar

StartChar: cent
Encoding: 162 162 103
Width: 672
GlyphClass: 2
Flags: W
LayerCount: 2
Fore
SplineSet
520 656 m 128,-1,1
 552 637 552 637 552 621.5 c 128,-1,2
 552 606 552 606 540.5 592.5 c 128,-1,3
 529 579 529 579 520 579 c 128,-1,4
 511 579 511 579 502 588 c 0,5,6
 471 615 471 615 432 618 c 1,7,-1
 374 222 l 1,8,9
 404 223 404 223 432 236 c 128,-1,10
 460 249 460 249 476.5 262 c 128,-1,11
 493 275 493 275 494 275 c 0,12,13
 505 275 505 275 512.5 260 c 128,-1,14
 520 245 520 245 520 230 c 0,15,16
 520 212 520 212 467.5 186 c 128,-1,17
 415 160 415 160 365 160 c 1,18,-1
 344 19 l 2,19,20
 340 -14 340 -14 309 -14 c 0,21,22
 284 -14 284 -14 284 6 c 0,23,24
 284 14 284 14 287 33 c 2,25,-1
 306 165 l 1,26,27
 231 181 231 181 192 237 c 128,-1,28
 153 293 153 293 153 390 c 128,-1,29
 153 487 153 487 219.5 574.5 c 128,-1,30
 286 662 286 662 382 678 c 1,31,-1
 404 824 l 2,32,33
 409 857 409 857 436 857 c 0,34,35
 452 857 452 857 458 853.5 c 128,-1,36
 464 850 464 850 464 838 c 128,-1,37
 464 826 464 826 461 811 c 2,38,-1
 441 680 l 1,39,0
 488 675 488 675 520 656 c 128,-1,1
235 381 m 0,40,41
 235 261 235 261 316 231 c 1,42,-1
 373 612 l 1,43,44
 309 593 309 593 272 526 c 128,-1,45
 235 459 235 459 235 381 c 0,40,41
EndSplineSet
EndChar

StartChar: sterling
Encoding: 163 163 104
Width: 686
GlyphClass: 2
Flags: W
LayerCount: 2
Fore
SplineSet
79 462 m 2,0,-1
 174 462 l 1,1,-1
 183 542 l 2,2,3
 192 623 192 623 210 680 c 128,-1,4
 228 737 228 737 262 782 c 0,5,6
 330 872 330 872 489 872 c 0,7,8
 531 872 531 872 564.5 860 c 128,-1,9
 598 848 598 848 598 821 c 0,10,11
 598 809 598 809 589.5 799.5 c 128,-1,12
 581 790 581 790 569 790 c 128,-1,13
 557 790 557 790 538.5 795 c 128,-1,14
 520 800 520 800 496 800 c 0,15,16
 366 800 366 800 316 722 c 0,17,18
 291 682 291 682 278.5 636.5 c 128,-1,19
 266 591 266 591 258 522 c 2,20,-1
 251 462 l 1,21,-1
 465 462 l 2,22,23
 477 462 477 462 484 453 c 128,-1,24
 491 444 491 444 491 431 c 128,-1,25
 491 418 491 418 483 408 c 128,-1,26
 475 398 475 398 461 398 c 2,27,-1
 244 398 l 1,28,-1
 206 65 l 1,29,-1
 569 65 l 2,30,31
 596 65 596 65 596 34 c 0,32,33
 596 19 596 19 588 9.5 c 128,-1,34
 580 0 580 0 568 0 c 2,35,-1
 157 0 l 2,36,37
 125 0 125 0 125 26 c 1,38,-1
 166 398 l 1,39,-1
 71 398 l 2,40,41
 62 398 62 398 56 406 c 128,-1,42
 50 414 50 414 50 427 c 128,-1,43
 50 440 50 440 57.5 451 c 128,-1,44
 65 462 65 462 79 462 c 2,0,-1
EndSplineSet
EndChar

StartChar: currency
Encoding: 164 164 105
Width: 672
GlyphClass: 2
Flags: W
LayerCount: 2
Fore
SplineSet
109 388 m 0,0,1
 109 480 109 480 157 551 c 1,2,-1
 58 672 l 2,3,4
 51 681 51 681 51 693.5 c 128,-1,5
 51 706 51 706 62 717 c 128,-1,6
 73 728 73 728 87 728 c 128,-1,7
 101 728 101 728 106 723 c 2,8,-1
 204 602 l 1,9,10
 268 653 268 653 362 653 c 0,11,12
 427 653 427 653 476 619 c 1,13,-1
 582 724 l 2,14,15
 588 730 588 730 602 730 c 128,-1,16
 616 730 616 730 627 718.5 c 128,-1,17
 638 707 638 707 638 693 c 128,-1,18
 638 679 638 679 629 674 c 1,19,-1
 523 567 l 1,20,21
 552 517 552 517 552 454 c 0,22,23
 552 362 552 362 501 292 c 1,24,-1
 603 169 l 2,25,26
 610 160 610 160 610 148 c 128,-1,27
 610 136 610 136 599 124.5 c 128,-1,28
 588 113 588 113 574 113 c 128,-1,29
 560 113 560 113 555 118 c 2,30,-1
 453 242 l 1,31,32
 388 191 388 191 298 191 c 0,33,34
 232 191 232 191 183 225 c 1,35,-1
 78 118 l 2,36,37
 73 113 73 113 60.5 113 c 128,-1,38
 48 113 48 113 35.5 125.5 c 128,-1,39
 23 138 23 138 23 149 c 128,-1,40
 23 160 23 160 30 169 c 1,41,-1
 137 276 l 1,42,43
 109 323 109 323 109 388 c 0,0,1
232.5 529.5 m 128,-1,45
 188 470 188 470 188 402 c 128,-1,46
 188 334 188 334 217 295 c 128,-1,47
 246 256 246 256 311.5 256 c 128,-1,48
 377 256 377 256 426 312.5 c 128,-1,49
 475 369 475 369 475 439.5 c 128,-1,50
 475 510 475 510 444.5 549.5 c 128,-1,51
 414 589 414 589 355 589 c 0,52,44
 277 589 277 589 232.5 529.5 c 128,-1,45
EndSplineSet
EndChar

StartChar: yen
Encoding: 165 165 106
Width: 672
GlyphClass: 2
Flags: W
LayerCount: 2
Fore
SplineSet
113 827 m 1,0,-1
 112 835 l 1,1,2
 112 860 112 860 152 860 c 0,3,4
 171 860 171 860 180 854 c 128,-1,5
 189 848 189 848 196 831 c 2,6,-1
 332 473 l 1,7,-1
 575 842 l 2,8,9
 588 860 588 860 614 860 c 0,10,11
 653 860 653 860 653 832 c 0,12,13
 653 814 653 814 642 800 c 1,14,-1
 461 539 l 1,15,-1
 563 539 l 2,16,17
 590 539 590 539 590 508 c 0,18,19
 590 495 590 495 581.5 484 c 128,-1,20
 573 473 573 473 561 473 c 2,21,-1
 415 473 l 1,22,-1
 360 393 l 1,23,-1
 354 346 l 1,24,-1
 544 346 l 2,25,26
 553 346 553 346 559.5 337.5 c 128,-1,27
 566 329 566 329 566 316 c 128,-1,28
 566 303 566 303 558 291.5 c 128,-1,29
 550 280 550 280 535 280 c 2,30,-1
 346 280 l 1,31,-1
 313 18 l 2,32,33
 309 -14 309 -14 272.5 -14 c 128,-1,34
 236 -14 236 -14 236 9 c 0,35,36
 236 16 236 16 237 24 c 2,37,-1
 268 280 l 1,38,-1
 92 280 l 2,39,40
 71 280 71 280 71 308 c 0,41,42
 71 323 71 323 79 334.5 c 128,-1,43
 87 346 87 346 100 346 c 2,44,-1
 276 346 l 1,45,-1
 282 396 l 1,46,-1
 252 473 l 1,47,-1
 115 473 l 2,48,49
 105 473 105 473 99.5 482.5 c 128,-1,50
 94 492 94 492 94 505 c 128,-1,51
 94 518 94 518 103 528.5 c 128,-1,52
 112 539 112 539 124 539 c 2,53,-1
 226 539 l 1,54,-1
 113 827 l 1,0,-1
EndSplineSet
EndChar

StartChar: brokenbar
Encoding: 166 166 107
Width: 482
GlyphClass: 2
Flags: W
LayerCount: 2
Fore
SplineSet
243 508 m 0,0,1
 228 508 228 508 222 512 c 128,-1,2
 216 516 216 516 216 528 c 1,3,-1
 257 870 l 2,4,5
 261 896 261 896 296.5 896 c 128,-1,6
 332 896 332 896 332 875 c 1,7,-1
 290 533 l 2,8,9
 287 508 287 508 243 508 c 0,0,1
177 -38 m 0,10,11
 162 -38 162 -38 156 -34 c 128,-1,12
 150 -30 150 -30 150 -18 c 1,13,-1
 191 324 l 2,14,15
 195 350 195 350 230.5 350 c 128,-1,16
 266 350 266 350 266 329 c 1,17,-1
 224 -13 l 2,18,19
 221 -38 221 -38 177 -38 c 0,10,11
EndSplineSet
EndChar

StartChar: section
Encoding: 167 167 108
Width: 507
GlyphClass: 2
Flags: W
LayerCount: 2
Fore
SplineSet
407 429 m 0,0,1
 407 333 407 333 341 280 c 1,2,3
 401 225 401 225 401 160 c 0,4,5
 401 77 401 77 347.5 31.5 c 128,-1,6
 294 -14 294 -14 193 -14 c 0,7,8
 135 -14 135 -14 85.5 15 c 128,-1,9
 36 44 36 44 36 76 c 128,-1,10
 36 108 36 108 65 108 c 0,11,12
 81 108 81 108 114 77 c 0,13,14
 126 65 126 65 150.5 55.5 c 128,-1,15
 175 46 175 46 205 46 c 0,16,17
 262 46 262 46 294.5 73 c 128,-1,18
 327 100 327 100 327 153 c 0,19,20
 327 209 327 209 250 260 c 0,21,22
 218 282 218 282 186 305.5 c 128,-1,23
 154 329 154 329 131.5 364.5 c 128,-1,24
 109 400 109 400 109 444 c 0,25,26
 109 538 109 538 176 593 c 1,27,28
 116 646 116 646 116 712 c 0,29,30
 116 795 116 795 170 841 c 128,-1,31
 224 887 224 887 324 887 c 0,32,33
 382 887 382 887 431.5 857.5 c 128,-1,34
 481 828 481 828 481 796.5 c 128,-1,35
 481 765 481 765 452 765 c 0,36,37
 436 765 436 765 404 796 c 0,38,39
 391 808 391 808 366.5 817.5 c 128,-1,40
 342 827 342 827 312 827 c 0,41,42
 255 827 255 827 222.5 800 c 128,-1,43
 190 773 190 773 190 719 c 256,44,45
 190 665 190 665 266 612 c 1,46,47
 298 591 298 591 330 567.5 c 128,-1,48
 362 544 362 544 384.5 508.5 c 128,-1,49
 407 473 407 473 407 429 c 0,0,1
334 421 m 0,50,51
 334 448 334 448 317 473.5 c 128,-1,52
 300 499 300 499 283 512.5 c 128,-1,53
 266 526 266 526 231 550 c 1,54,55
 183 515 183 515 183 452 c 0,56,57
 183 424 183 424 200 399 c 128,-1,58
 217 374 217 374 233.5 360.5 c 128,-1,59
 250 347 250 347 286 322 c 1,60,61
 334 357 334 357 334 421 c 0,50,51
EndSplineSet
EndChar

StartChar: dieresis
Encoding: 168 168 109
Width: 394
GlyphClass: 2
Flags: W
LayerCount: 2
Fore
SplineSet
152 692 m 0,0,1
 152 630 152 630 95 630 c 0,2,3
 50 630 50 630 50 668 c 0,4,5
 50 729 50 729 107 729 c 0,6,7
 152 729 152 729 152 692 c 0,0,1
344 692 m 0,8,9
 344 630 344 630 287 630 c 0,10,11
 242 630 242 630 242 668 c 0,12,13
 242 729 242 729 299 729 c 0,14,15
 344 729 344 729 344 692 c 0,8,9
EndSplineSet
EndChar

StartChar: copyright
Encoding: 169 169 110
Width: 800
GlyphClass: 2
Flags: W
LayerCount: 2
Fore
SplineSet
444 945 m 0,0,1
 593 945 593 945 681.5 865.5 c 128,-1,2
 770 786 770 786 770 632 c 0,3,4
 770 508 770 508 718 403 c 0,5,6
 689 346 689 346 646.5 303.5 c 128,-1,7
 604 261 604 261 536.5 234.5 c 128,-1,8
 469 208 469 208 383 208 c 128,-1,9
 297 208 297 208 232 233 c 128,-1,10
 167 258 167 258 130 302 c 0,11,12
 60 388 60 388 60 522 c 0,13,14
 60 646 60 646 112 750 c 0,15,16
 141 807 141 807 183.5 849.5 c 128,-1,17
 226 892 226 892 293.5 918.5 c 128,-1,18
 361 945 361 945 444 945 c 0,0,1
583 776 m 0,19,20
 605 753 605 753 605 742 c 128,-1,21
 605 731 605 731 592 721 c 128,-1,22
 579 711 579 711 571.5 711 c 128,-1,23
 564 711 564 711 555 720.5 c 128,-1,24
 546 730 546 730 536.5 741.5 c 128,-1,25
 527 753 527 753 505.5 762.5 c 128,-1,26
 484 772 484 772 447.5 772 c 128,-1,27
 411 772 411 772 376.5 746 c 128,-1,28
 342 720 342 720 324 680 c 0,29,30
 287 601 287 601 287 531.5 c 128,-1,31
 287 462 287 462 317 423 c 128,-1,32
 347 384 347 384 407 384 c 0,33,34
 441 384 441 384 467.5 395.5 c 128,-1,35
 494 407 494 407 506 422 c 1,36,37
 539 459 539 459 549.5 459 c 128,-1,38
 560 459 560 459 569 451.5 c 128,-1,39
 578 444 578 444 578 433 c 0,40,41
 578 403 578 403 524 365 c 128,-1,42
 470 327 470 327 403 327 c 0,43,44
 309 327 309 327 266 380 c 128,-1,45
 223 433 223 433 223 522 c 0,46,47
 223 633 223 633 274 723 c 0,48,49
 300 769 300 769 347 797 c 128,-1,50
 394 825 394 825 464.5 825 c 128,-1,51
 535 825 535 825 583 776 c 0,19,20
444 900 m 0,52,53
 374 900 374 900 317 876.5 c 128,-1,54
 260 853 260 853 224 815 c 128,-1,55
 188 777 188 777 164 726 c 0,56,57
 120 634 120 634 120 518 c 128,-1,58
 120 402 120 402 183 327.5 c 128,-1,59
 246 253 246 253 386 253 c 0,60,61
 456 253 456 253 513 277 c 128,-1,62
 570 301 570 301 606 339 c 128,-1,63
 642 377 642 377 666 428 c 0,64,65
 710 520 710 520 710 632 c 0,66,67
 710 764 710 764 638 832 c 128,-1,68
 566 900 566 900 444 900 c 0,52,53
EndSplineSet
EndChar

StartChar: ordfeminine
Encoding: 170 170 111
Width: 470
GlyphClass: 2
Flags: W
LayerCount: 2
Fore
SplineSet
207 534 m 0,0,1
 251 534 251 534 281.5 578 c 128,-1,2
 312 622 312 622 323 679 c 1,3,4
 155 665 155 665 155 584 c 0,5,6
 155 563 155 563 169.5 548.5 c 128,-1,7
 184 534 184 534 207 534 c 0,0,1
400 783 m 0,8,9
 400 767 400 767 386 689 c 128,-1,10
 372 611 372 611 372 576.5 c 128,-1,11
 372 542 372 542 376 523 c 128,-1,12
 380 504 380 504 380 503 c 0,13,14
 380 493 380 493 364.5 486 c 128,-1,15
 349 479 349 479 335 479 c 0,16,17
 315 479 315 479 315 556 c 1,18,19
 292 518 292 518 258 498.5 c 128,-1,20
 224 479 224 479 185 479 c 128,-1,21
 146 479 146 479 118 503.5 c 128,-1,22
 90 528 90 528 90 573 c 0,23,24
 90 635 90 635 147 678 c 128,-1,25
 204 721 204 721 334 730 c 1,26,27
 337 746 337 746 337 773 c 0,28,29
 337 816 337 816 272 816 c 0,30,31
 236 816 236 816 204 801.5 c 128,-1,32
 172 787 172 787 163.5 787 c 128,-1,33
 155 787 155 787 148 800 c 128,-1,34
 141 813 141 813 141 826.5 c 128,-1,35
 141 840 141 840 188.5 855.5 c 128,-1,36
 236 871 236 871 282 871 c 128,-1,37
 328 871 328 871 364 850.5 c 128,-1,38
 400 830 400 830 400 783 c 0,8,9
98 420 m 2,39,-1
 369 420 l 2,40,41
 380 420 380 420 386 411.5 c 128,-1,42
 392 403 392 403 392 391.5 c 128,-1,43
 392 380 392 380 384.5 371 c 128,-1,44
 377 362 377 362 365 362 c 2,45,-1
 91 362 l 2,46,47
 72 362 72 362 72 391 c 128,-1,48
 72 420 72 420 98 420 c 2,39,-1
EndSplineSet
EndChar

StartChar: guillemotleft
Encoding: 171 171 112
Width: 554
GlyphClass: 2
Flags: W
LayerCount: 2
Fore
SplineSet
262 130 m 2,0,1
 270 119 270 119 270 107 c 128,-1,2
 270 95 270 95 259 82 c 128,-1,3
 248 69 248 69 236.5 69 c 128,-1,4
 225 69 225 69 221 75 c 2,5,-1
 86 230 l 2,6,7
 65 254 65 254 65 278.5 c 128,-1,8
 65 303 65 303 81 318 c 2,9,-1
 267 487 l 2,10,11
 276 496 276 496 288 496 c 128,-1,12
 300 496 300 496 309.5 484 c 128,-1,13
 319 472 319 472 319 461.5 c 128,-1,14
 319 451 319 451 314 446 c 2,15,-1
 156 284 l 1,16,-1
 156 277 l 1,17,-1
 262 130 l 2,0,1
462 130 m 2,18,19
 470 119 470 119 470 107 c 128,-1,20
 470 95 470 95 459 82 c 128,-1,21
 448 69 448 69 436.5 69 c 128,-1,22
 425 69 425 69 421 75 c 2,23,-1
 286 230 l 2,24,25
 265 254 265 254 265 278.5 c 128,-1,26
 265 303 265 303 281 318 c 2,27,-1
 467 487 l 2,28,29
 476 496 476 496 488 496 c 128,-1,30
 500 496 500 496 509.5 484 c 128,-1,31
 519 472 519 472 519 461.5 c 128,-1,32
 519 451 519 451 514 446 c 2,33,-1
 356 284 l 1,34,-1
 356 277 l 1,35,-1
 462 130 l 2,18,19
EndSplineSet
EndChar

StartChar: logicalnot
Encoding: 172 172 113
Width: 672
GlyphClass: 2
Flags: W
LayerCount: 2
Fore
SplineSet
111 444 m 2,0,-1
 568 444 l 2,1,2
 588 444 588 444 588 416 c 0,3,4
 588 410 588 410 560 186 c 0,5,6
 559 173 559 173 547 166 c 128,-1,7
 535 159 535 159 514 159 c 128,-1,8
 493 159 493 159 493 174 c 0,9,10
 493 183 493 183 517 378 c 1,11,-1
 102 378 l 2,12,13
 84 378 84 378 84 407 c 0,14,15
 84 422 84 422 91 433 c 128,-1,16
 98 444 98 444 111 444 c 2,0,-1
EndSplineSet
EndChar

StartChar: registered
Encoding: 174 174 114
Width: 800
GlyphClass: 2
Flags: W
LayerCount: 2
Fore
SplineSet
444 945 m 0,0,1
 593 945 593 945 681.5 865.5 c 128,-1,2
 770 786 770 786 770 632 c 0,3,4
 770 508 770 508 718 403 c 0,5,6
 689 346 689 346 646.5 303.5 c 128,-1,7
 604 261 604 261 536.5 234.5 c 128,-1,8
 469 208 469 208 383 208 c 128,-1,9
 297 208 297 208 232 233 c 128,-1,10
 167 258 167 258 130 302 c 0,11,12
 60 388 60 388 60 522 c 0,13,14
 60 646 60 646 112 750 c 0,15,16
 141 807 141 807 183.5 849.5 c 128,-1,17
 226 892 226 892 293.5 918.5 c 128,-1,18
 361 945 361 945 444 945 c 0,0,1
444 900 m 0,19,20
 374 900 374 900 317 876.5 c 128,-1,21
 260 853 260 853 224 815 c 128,-1,22
 188 777 188 777 164 726 c 0,23,24
 120 634 120 634 120 518 c 128,-1,25
 120 402 120 402 183 327.5 c 128,-1,26
 246 253 246 253 386 253 c 0,27,28
 456 253 456 253 513 277 c 128,-1,29
 570 301 570 301 606 339 c 128,-1,30
 642 377 642 377 666 428 c 0,31,32
 710 520 710 520 710 632 c 0,33,34
 710 764 710 764 638 832 c 128,-1,35
 566 900 566 900 444 900 c 0,19,20
277 336 m 0,36,37
 247 336 247 336 247 363 c 1,38,-1
 300 804 l 2,39,40
 302 821 302 821 330.5 827.5 c 128,-1,41
 359 834 359 834 444 834 c 0,42,43
 602 834 602 834 602 721 c 0,44,45
 602 674 602 674 562.5 627.5 c 128,-1,46
 523 581 523 581 471 573 c 1,47,48
 488 561 488 561 501 543 c 128,-1,49
 514 525 514 525 518.5 515 c 128,-1,50
 523 505 523 505 533.5 472.5 c 128,-1,51
 544 440 544 440 557.5 401.5 c 128,-1,52
 571 363 571 363 571 356 c 128,-1,53
 571 349 571 349 561.5 342.5 c 128,-1,54
 552 336 552 336 539 336 c 0,55,56
 513 336 513 336 507 355 c 2,57,-1
 479 435 l 2,58,59
 458 495 458 495 443 517.5 c 128,-1,60
 428 540 428 540 411.5 546.5 c 128,-1,61
 395 553 395 553 371 553 c 2,62,-1
 332 553 l 1,63,-1
 309 360 l 2,64,65
 307 346 307 346 299.5 341 c 128,-1,66
 292 336 292 336 277 336 c 0,36,37
397 609 m 2,67,68
 445 609 445 609 490.5 635 c 128,-1,69
 536 661 536 661 536 710 c 0,70,71
 536 743 536 743 507.5 762 c 128,-1,72
 479 781 479 781 438.5 781 c 128,-1,73
 398 781 398 781 359 774 c 1,74,-1
 339 609 l 1,75,-1
 397 609 l 2,67,68
EndSplineSet
EndChar

StartChar: macron
Encoding: 175 175 115
Width: 408
GlyphClass: 2
Flags: W
LayerCount: 2
Fore
SplineSet
102 712 m 2,0,-1
 320 712 l 2,1,2
 343 712 343 712 343 685 c 0,3,4
 343 651 343 651 306 651 c 2,5,-1
 88 651 l 2,6,7
 65 651 65 651 65 678 c 0,8,9
 65 712 65 712 102 712 c 2,0,-1
EndSplineSet
EndChar

StartChar: degree
Encoding: 176 176 116
Width: 497
GlyphClass: 2
Flags: W
LayerCount: 2
Fore
SplineSet
111.5 527 m 128,-1,1
 70 575 70 575 70 637.5 c 128,-1,2
 70 700 70 700 91 749.5 c 128,-1,3
 112 799 112 799 162.5 835 c 128,-1,4
 213 871 213 871 287.5 871 c 128,-1,5
 362 871 362 871 404.5 822 c 128,-1,6
 447 773 447 773 447 702 c 0,7,8
 447 609 447 609 387 544 c 128,-1,9
 327 479 327 479 231 479 c 0,10,0
 153 479 153 479 111.5 527 c 128,-1,1
175 766.5 m 128,-1,12
 137 716 137 716 137 658 c 128,-1,13
 137 600 137 600 162 567 c 128,-1,14
 187 534 187 534 242.5 534 c 128,-1,15
 298 534 298 534 339.5 582 c 128,-1,16
 381 630 381 630 381 690 c 128,-1,17
 381 750 381 750 355 783.5 c 128,-1,18
 329 817 329 817 279 817 c 0,19,11
 213 817 213 817 175 766.5 c 128,-1,12
EndSplineSet
EndChar

StartChar: plusminus
Encoding: 177 177 117
Width: 672
GlyphClass: 2
Flags: W
LayerCount: 2
Fore
SplineSet
106 392 m 2,0,1
 86 392 86 392 86 425 c 128,-1,2
 86 458 86 458 113 458 c 2,3,-1
 309 458 l 1,4,-1
 332 659 l 2,5,6
 335 683 335 683 367 683 c 0,7,8
 379 683 379 683 388.5 677.5 c 128,-1,9
 398 672 398 672 398 666 c 128,-1,10
 398 660 398 660 374 458 c 1,11,-1
 568 458 l 2,12,13
 578 458 578 458 584 448.5 c 128,-1,14
 590 439 590 439 590 426 c 128,-1,15
 590 413 590 413 582 402.5 c 128,-1,16
 574 392 574 392 562 392 c 2,17,-1
 366 392 l 1,18,-1
 339 178 l 2,19,20
 336 155 336 155 305 155 c 128,-1,21
 274 155 274 155 274 175 c 0,22,23
 274 176 274 176 279 215 c 2,24,-1
 300 392 l 1,25,-1
 106 392 l 2,0,1
70 121 m 2,26,-1
 527 121 l 2,27,28
 547 121 547 121 547 93 c 0,29,30
 547 79 547 79 539 67 c 128,-1,31
 531 55 531 55 519 55 c 2,32,-1
 61 55 l 2,33,34
 43 55 43 55 43 84 c 0,35,36
 43 99 43 99 50 110 c 128,-1,37
 57 121 57 121 70 121 c 2,26,-1
EndSplineSet
EndChar

StartChar: twosuperior
Encoding: 178 178 118
Width: 463
GlyphClass: 2
Flags: W
LayerCount: 2
Fore
SplineSet
281 689.5 m 128,-1,1
 317 739 317 739 317 785 c 128,-1,2
 317 831 317 831 294.5 853 c 128,-1,3
 272 875 272 875 231 875 c 128,-1,4
 190 875 190 875 155 838 c 1,5,6
 137 816 137 816 118 816 c 0,7,8
 90 816 90 816 90 843 c 128,-1,9
 90 870 90 870 131.5 901 c 128,-1,10
 173 932 173 932 237.5 932 c 128,-1,11
 302 932 302 932 342.5 895.5 c 128,-1,12
 383 859 383 859 383 792 c 128,-1,13
 383 725 383 725 337.5 661 c 128,-1,14
 292 597 292 597 218 530 c 2,15,-1
 151 469 l 1,16,-1
 352 469 l 2,17,18
 364 469 364 469 372 461.5 c 128,-1,19
 380 454 380 454 380 442 c 0,20,21
 380 411 380 411 346 411 c 2,22,-1
 85 411 l 2,23,24
 51 411 51 411 51 440 c 0,25,26
 51 457 51 457 62 468 c 2,27,-1
 176 575 l 2,28,0
 245 640 245 640 281 689.5 c 128,-1,1
EndSplineSet
EndChar

StartChar: threesuperior
Encoding: 179 179 119
Width: 463
GlyphClass: 2
Flags: W
LayerCount: 2
Fore
SplineSet
156 685 m 0,0,1
 156 713 156 713 190.5 713 c 128,-1,2
 225 713 225 713 265 740 c 128,-1,3
 305 767 305 767 305 804 c 0,4,5
 305 875 305 875 225 875 c 0,6,7
 185 875 185 875 142 842 c 0,8,9
 127 831 127 831 118 831 c 0,10,11
 93 831 93 831 93 858.5 c 128,-1,12
 93 886 93 886 138 909 c 128,-1,13
 183 932 183 932 237.5 932 c 128,-1,14
 292 932 292 932 333 899.5 c 128,-1,15
 374 867 374 867 374 809 c 0,16,17
 374 772 374 772 348 738 c 128,-1,18
 322 704 322 704 287 692 c 1,19,20
 321 682 321 682 349 643.5 c 128,-1,21
 377 605 377 605 377 566 c 0,22,23
 377 486 377 486 324 444.5 c 128,-1,24
 271 403 271 403 185 403 c 0,25,26
 123 403 123 403 75.5 440.5 c 128,-1,27
 28 478 28 478 28 519 c 0,28,29
 28 531 28 531 36 539 c 128,-1,30
 44 547 44 547 60.5 547 c 128,-1,31
 77 547 77 547 83 531 c 0,32,33
 111 462 111 462 190 462 c 0,34,35
 240 462 240 462 275 490 c 128,-1,36
 310 518 310 518 310 564.5 c 128,-1,37
 310 611 310 611 271 637 c 128,-1,38
 232 663 232 663 184 663 c 0,39,40
 172 663 172 663 164 669 c 128,-1,41
 156 675 156 675 156 685 c 0,0,1
EndSplineSet
EndChar

StartChar: acute
Encoding: 180 180 120
Width: 302
GlyphClass: 2
Flags: W
LayerCount: 2
Fore
SplineSet
191 799 m 2,0,1
 197 806 197 806 211.5 806 c 128,-1,2
 226 806 226 806 239 793.5 c 128,-1,3
 252 781 252 781 252 766.5 c 128,-1,4
 252 752 252 752 239 740 c 2,5,-1
 89 603 l 2,6,7
 84 598 84 598 74.5 598 c 128,-1,8
 65 598 65 598 57.5 605.5 c 128,-1,9
 50 613 50 613 50 622 c 128,-1,10
 50 631 50 631 54 637 c 2,11,-1
 191 799 l 2,0,1
EndSplineSet
EndChar

StartChar: mu
Encoding: 181 181 121
Width: 524
GlyphClass: 2
Flags: W
LayerCount: 2
Fore
SplineSet
140 -255 m 128,-1,1
 140 -272 140 -272 128 -284.5 c 128,-1,2
 116 -297 116 -297 100 -297 c 0,3,4
 35 -297 35 -297 35 -113 c 0,5,6
 35 38 35 38 78 328 c 0,7,8
 98 458 98 458 101 482.5 c 128,-1,9
 104 507 104 507 140.5 507 c 128,-1,10
 177 507 177 507 177 487 c 1,11,12
 171 441 171 441 158 355 c 0,13,14
 135 193 135 193 135 143 c 0,15,16
 135 52 135 52 217 52 c 0,17,18
 257 52 257 52 287.5 75 c 128,-1,19
 318 98 318 98 337 137 c 0,20,21
 372 208 372 208 384 304 c 2,22,-1
 406 482 l 2,23,24
 409 507 409 507 453 507 c 0,25,26
 482 507 482 507 482 487 c 1,27,-1
 447 207 l 2,28,29
 443 175 443 175 443 133 c 128,-1,30
 443 91 443 91 451.5 55 c 128,-1,31
 460 19 460 19 460 14 c 0,32,33
 460 2 460 2 441.5 -6 c 128,-1,34
 423 -14 423 -14 411 -14 c 128,-1,35
 399 -14 399 -14 393.5 -5 c 128,-1,36
 388 4 388 4 384.5 20 c 128,-1,37
 381 36 381 36 379 49 c 0,38,39
 374 82 374 82 374 102 c 1,40,41
 351 47 351 47 307.5 16.5 c 128,-1,42
 264 -14 264 -14 213 -14 c 0,43,44
 149 -14 149 -14 116 43 c 1,45,46
 105 -29 105 -29 105 -111.5 c 128,-1,47
 105 -194 105 -194 128 -222 c 0,48,0
 140 -238 140 -238 140 -255 c 128,-1,1
EndSplineSet
EndChar

StartChar: paragraph
Encoding: 182 182 122
Width: 641
GlyphClass: 2
Flags: W
LayerCount: 2
Fore
SplineSet
299 -192 m 0,0,1
 262 -211 262 -211 209 -211 c 128,-1,2
 156 -211 156 -211 108.5 -188.5 c 128,-1,3
 61 -166 61 -166 61 -148 c 0,4,5
 61 -134 61 -134 72 -117.5 c 128,-1,6
 83 -101 83 -101 97 -101 c 0,7,8
 99 -101 99 -101 113 -111.5 c 128,-1,9
 127 -122 127 -122 153.5 -132.5 c 128,-1,10
 180 -143 180 -143 208.5 -143 c 128,-1,11
 237 -143 237 -143 254.5 -137 c 128,-1,12
 272 -131 272 -131 287 -112 c 128,-1,13
 302 -93 302 -93 311.5 -68.5 c 128,-1,14
 321 -44 321 -44 330 3 c 1,15,16
 344 68 344 68 364 237 c 2,17,-1
 399 546 l 2,18,19
 415 681 415 681 454 737 c 1,20,-1
 251 687 l 2,21,22
 165 665 165 665 133 624.5 c 128,-1,23
 101 584 101 584 101 532.5 c 128,-1,24
 101 481 101 481 129.5 448.5 c 128,-1,25
 158 416 158 416 206 416 c 0,26,27
 256 416 256 416 289 446 c 0,28,29
 300 456 300 456 309 456 c 128,-1,30
 318 456 318 456 329.5 442.5 c 128,-1,31
 341 429 341 429 341 414 c 0,32,33
 341 396 341 396 302 375 c 128,-1,34
 263 354 263 354 219.5 354 c 128,-1,35
 176 354 176 354 146.5 362 c 128,-1,36
 117 370 117 370 90 388 c 0,37,38
 30 429 30 429 30 525 c 0,39,40
 30 572 30 572 47.5 610.5 c 128,-1,41
 65 649 65 649 88.5 672 c 128,-1,42
 112 695 112 695 148 713 c 0,43,44
 199 739 199 739 263 753 c 0,45,46
 558 821 558 821 587 821 c 0,47,48
 637 821 637 821 679 810 c 128,-1,49
 721 799 721 799 721 786 c 0,50,51
 721 766 721 766 712 754 c 128,-1,52
 703 742 703 742 697.5 742 c 128,-1,53
 692 742 692 742 661.5 751.5 c 128,-1,54
 631 761 631 761 599 761 c 128,-1,55
 567 761 567 761 545.5 747 c 128,-1,56
 524 733 524 733 512.5 715 c 128,-1,57
 501 697 501 697 492 663 c 0,58,59
 481 623 481 623 472 548 c 2,60,-1
 412 42 l 1,61,62
 392 -143 392 -143 299 -192 c 0,0,1
EndSplineSet
EndChar

StartChar: periodcentered
Encoding: 183 183 123
Width: 302
GlyphClass: 2
Flags: W
LayerCount: 2
Fore
SplineSet
202 280 m 0,0,1
 202 218 202 218 145 218 c 0,2,3
 100 218 100 218 100 256 c 0,4,5
 100 317 100 317 157 317 c 0,6,7
 202 317 202 317 202 280 c 0,0,1
EndSplineSet
EndChar

StartChar: cedilla
Encoding: 184 184 124
Width: 457
GlyphClass: 2
Flags: W
LayerCount: 2
Fore
SplineSet
313.5 -99.5 m 128,-1,1
 352 -128 352 -128 352 -190 c 128,-1,2
 352 -252 352 -252 311.5 -286 c 128,-1,3
 271 -320 271 -320 214.5 -320 c 128,-1,4
 158 -320 158 -320 124.5 -293.5 c 128,-1,5
 91 -267 91 -267 91 -235 c 0,6,7
 91 -222 91 -222 98 -212.5 c 128,-1,8
 105 -203 105 -203 120.5 -203 c 128,-1,9
 136 -203 136 -203 145 -220 c 0,10,11
 155 -241 155 -241 170 -253 c 128,-1,12
 185 -265 185 -265 217 -265 c 128,-1,13
 249 -265 249 -265 269.5 -244.5 c 128,-1,14
 290 -224 290 -224 290 -193 c 0,15,16
 290 -124 290 -124 199 -124 c 0,17,18
 167 -124 167 -124 167 -101 c 0,19,20
 167 -90 167 -90 172 -72 c 2,21,-1
 193 0 l 1,22,-1
 241 0 l 1,23,-1
 220 -71 l 1,24,0
 275 -71 275 -71 313.5 -99.5 c 128,-1,1
EndSplineSet
EndChar

StartChar: onesuperior
Encoding: 185 185 125
Width: 463
GlyphClass: 2
Flags: W
LayerCount: 2
Fore
SplineSet
98 699 m 0,0,1
 68 699 68 699 68 726 c 0,2,3
 68 740 68 740 84 751 c 0,4,5
 132 782 132 782 166.5 814 c 128,-1,6
 201 846 201 846 213 862.5 c 128,-1,7
 225 879 225 879 236.5 899.5 c 128,-1,8
 248 920 248 920 256 927 c 128,-1,9
 264 934 264 934 280 934 c 0,10,11
 312 934 312 934 312 908 c 0,12,13
 312 900 312 900 308 864 c 2,14,-1
 261 468 l 1,15,-1
 346 468 l 2,16,17
 376 468 376 468 376 440 c 0,18,19
 376 427 376 427 367 419 c 128,-1,20
 358 411 358 411 344 411 c 2,21,-1
 107 411 l 2,22,23
 78 411 78 411 78 438 c 0,24,25
 78 452 78 452 86.5 460 c 128,-1,26
 95 468 95 468 109 468 c 2,27,-1
 197 468 l 1,28,-1
 238 804 l 1,29,30
 205 767 205 767 160.5 733 c 128,-1,31
 116 699 116 699 98 699 c 0,0,1
EndSplineSet
EndChar

StartChar: ordmasculine
Encoding: 186 186 126
Width: 497
GlyphClass: 2
Flags: W
LayerCount: 2
Fore
SplineSet
138.5 527 m 128,-1,1
 100 575 100 575 100 654 c 128,-1,2
 100 733 100 733 150.5 802 c 128,-1,3
 201 871 201 871 298 871 c 0,4,5
 369 871 369 871 408 822 c 128,-1,6
 447 773 447 773 447 702 c 0,7,8
 447 609 447 609 391.5 544 c 128,-1,9
 336 479 336 479 248 479 c 0,10,0
 177 479 177 479 138.5 527 c 128,-1,1
198.5 768.5 m 128,-1,12
 165 717 165 717 165 657.5 c 128,-1,13
 165 598 165 598 187 564.5 c 128,-1,14
 209 531 209 531 259 531 c 128,-1,15
 309 531 309 531 346 580 c 128,-1,16
 383 629 383 629 383 690 c 128,-1,17
 383 751 383 751 360 785.5 c 128,-1,18
 337 820 337 820 292 820 c 0,19,11
 232 820 232 820 198.5 768.5 c 128,-1,12
111 420 m 2,20,-1
 382 420 l 2,21,22
 393 420 393 420 399 411.5 c 128,-1,23
 405 403 405 403 405 391.5 c 128,-1,24
 405 380 405 380 397.5 371 c 128,-1,25
 390 362 390 362 378 362 c 2,26,-1
 104 362 l 2,27,28
 85 362 85 362 85 391 c 128,-1,29
 85 420 85 420 111 420 c 2,20,-1
EndSplineSet
EndChar

StartChar: guillemotright
Encoding: 187 187 127
Width: 554
GlyphClass: 2
Flags: W
LayerCount: 2
Fore
SplineSet
322 435 m 2,0,1
 314 446 314 446 314 458 c 128,-1,2
 314 470 314 470 325 483 c 128,-1,3
 336 496 336 496 347 496 c 128,-1,4
 358 496 358 496 363 490 c 2,5,-1
 498 335 l 2,6,7
 519 311 519 311 519 286.5 c 128,-1,8
 519 262 519 262 503 247 c 2,9,-1
 317 78 l 2,10,11
 308 69 308 69 296 69 c 128,-1,12
 284 69 284 69 274.5 81 c 128,-1,13
 265 93 265 93 265 103.5 c 128,-1,14
 265 114 265 114 270 119 c 2,15,-1
 428 281 l 1,16,-1
 428 288 l 1,17,-1
 322 435 l 2,0,1
122 435 m 2,18,19
 114 446 114 446 114 458 c 128,-1,20
 114 470 114 470 125 483 c 128,-1,21
 136 496 136 496 147 496 c 128,-1,22
 158 496 158 496 163 490 c 2,23,-1
 298 335 l 2,24,25
 319 311 319 311 319 286.5 c 128,-1,26
 319 262 319 262 303 247 c 2,27,-1
 117 78 l 2,28,29
 108 69 108 69 96 69 c 128,-1,30
 84 69 84 69 74.5 81 c 128,-1,31
 65 93 65 93 65 103.5 c 128,-1,32
 65 114 65 114 70 119 c 2,33,-1
 228 281 l 1,34,-1
 228 288 l 1,35,-1
 122 435 l 2,18,19
EndSplineSet
EndChar

StartChar: onequarter
Encoding: 188 188 128
Width: 1071
GlyphClass: 2
Flags: W
LayerCount: 2
Fore
SplineSet
413 -38 m 0,0,1
 389 -38 389 -38 389 -24 c 0,2,3
 389 -20 389 -20 394 -5 c 2,4,-1
 653 870 l 2,5,6
 661 896 661 896 702 896 c 0,7,8
 729 896 729 896 729 879 c 0,9,10
 729 875 729 875 724 858 c 2,11,-1
 465 -13 l 2,12,13
 457 -38 457 -38 413 -38 c 0,0,1
130 625 m 0,14,15
 100 625 100 625 100 652 c 0,16,17
 100 666 100 666 116 677 c 0,18,19
 164 708 164 708 198.5 740 c 128,-1,20
 233 772 233 772 245 788.5 c 128,-1,21
 257 805 257 805 268.5 825.5 c 128,-1,22
 280 846 280 846 288 853 c 128,-1,23
 296 860 296 860 312 860 c 0,24,25
 344 860 344 860 344 834 c 0,26,27
 344 826 344 826 340 790 c 2,28,-1
 293 394 l 1,29,-1
 378 394 l 2,30,31
 408 394 408 394 408 366 c 0,32,33
 408 353 408 353 399 345 c 128,-1,34
 390 337 390 337 376 337 c 2,35,-1
 139 337 l 2,36,37
 110 337 110 337 110 364 c 0,38,39
 110 378 110 378 118.5 386 c 128,-1,40
 127 394 127 394 141 394 c 2,41,-1
 229 394 l 1,42,-1
 270 730 l 1,43,44
 237 693 237 693 192.5 659 c 128,-1,45
 148 625 148 625 130 625 c 0,14,15
995 501 m 1,46,-1
 956 190 l 1,47,-1
 991 190 l 2,48,49
 1003 190 1003 190 1011.5 182.5 c 128,-1,50
 1020 175 1020 175 1020 163 c 0,51,52
 1020 132 1020 132 988 132 c 2,53,-1
 949 132 l 1,54,-1
 935 19 l 2,55,56
 931 -8 931 -8 902 -8 c 128,-1,57
 873 -8 873 -8 873 18 c 1,58,-1
 886 132 l 1,59,-1
 695 132 l 2,60,61
 661 132 661 132 661 159 c 0,62,63
 661 165 661 165 669 186 c 1,64,-1
 754 381 l 2,65,66
 776 429 776 429 781 449.5 c 128,-1,67
 786 470 786 470 786 496.5 c 128,-1,68
 786 523 786 523 812 523 c 0,69,70
 833 523 833 523 840 510.5 c 128,-1,71
 847 498 847 498 847 467.5 c 128,-1,72
 847 437 847 437 810 355 c 2,73,-1
 737 190 l 1,74,-1
 894 190 l 1,75,-1
 931 497 l 2,76,77
 935 523 935 523 965 523 c 128,-1,78
 995 523 995 523 995 501 c 1,46,-1
EndSplineSet
EndChar

StartChar: onehalf
Encoding: 189 189 129
Width: 1071
GlyphClass: 2
Flags: W
LayerCount: 2
Fore
SplineSet
413 -38 m 0,0,1
 389 -38 389 -38 389 -24 c 0,2,3
 389 -20 389 -20 394 -5 c 2,4,-1
 653 870 l 2,5,6
 661 896 661 896 702 896 c 0,7,8
 729 896 729 896 729 879 c 0,9,10
 729 875 729 875 724 858 c 2,11,-1
 465 -13 l 2,12,13
 457 -38 457 -38 413 -38 c 0,0,1
130 625 m 0,14,15
 100 625 100 625 100 652 c 0,16,17
 100 666 100 666 116 677 c 0,18,19
 164 708 164 708 198.5 740 c 128,-1,20
 233 772 233 772 245 788.5 c 128,-1,21
 257 805 257 805 268.5 825.5 c 128,-1,22
 280 846 280 846 288 853 c 128,-1,23
 296 860 296 860 312 860 c 0,24,25
 344 860 344 860 344 834 c 0,26,27
 344 826 344 826 340 790 c 2,28,-1
 293 394 l 1,29,-1
 378 394 l 2,30,31
 408 394 408 394 408 366 c 0,32,33
 408 353 408 353 399 345 c 128,-1,34
 390 337 390 337 376 337 c 2,35,-1
 139 337 l 2,36,37
 110 337 110 337 110 364 c 0,38,39
 110 378 110 378 118.5 386 c 128,-1,40
 127 394 127 394 141 394 c 2,41,-1
 229 394 l 1,42,-1
 270 730 l 1,43,44
 237 693 237 693 192.5 659 c 128,-1,45
 148 625 148 625 130 625 c 0,14,15
892 278.5 m 128,-1,47
 928 328 928 328 928 374 c 128,-1,48
 928 420 928 420 905.5 442 c 128,-1,49
 883 464 883 464 842 464 c 128,-1,50
 801 464 801 464 766 427 c 1,51,52
 748 405 748 405 729 405 c 0,53,54
 701 405 701 405 701 432 c 128,-1,55
 701 459 701 459 742.5 490 c 128,-1,56
 784 521 784 521 848.5 521 c 128,-1,57
 913 521 913 521 953.5 484.5 c 128,-1,58
 994 448 994 448 994 381 c 128,-1,59
 994 314 994 314 948.5 250 c 128,-1,60
 903 186 903 186 829 119 c 2,61,-1
 762 58 l 1,62,-1
 963 58 l 2,63,64
 975 58 975 58 983 50.5 c 128,-1,65
 991 43 991 43 991 31 c 0,66,67
 991 0 991 0 957 0 c 2,68,-1
 696 0 l 2,69,70
 662 0 662 0 662 29 c 0,71,72
 662 46 662 46 673 57 c 2,73,-1
 787 164 l 2,74,46
 856 229 856 229 892 278.5 c 128,-1,47
EndSplineSet
EndChar

StartChar: threequarters
Encoding: 190 190 130
Width: 1111
GlyphClass: 2
Flags: W
LayerCount: 2
Fore
SplineSet
453 -38 m 0,0,1
 429 -38 429 -38 429 -24 c 0,2,3
 429 -20 429 -20 434 -5 c 2,4,-1
 693 870 l 2,5,6
 701 896 701 896 742 896 c 0,7,8
 769 896 769 896 769 879 c 0,9,10
 769 875 769 875 764 858 c 2,11,-1
 505 -13 l 2,12,13
 497 -38 497 -38 453 -38 c 0,0,1
228 613 m 0,14,15
 228 641 228 641 262.5 641 c 128,-1,16
 297 641 297 641 337 668 c 128,-1,17
 377 695 377 695 377 732 c 0,18,19
 377 803 377 803 297 803 c 0,20,21
 257 803 257 803 214 770 c 0,22,23
 199 759 199 759 190 759 c 0,24,25
 165 759 165 759 165 786.5 c 128,-1,26
 165 814 165 814 210 837 c 128,-1,27
 255 860 255 860 309.5 860 c 128,-1,28
 364 860 364 860 405 827.5 c 128,-1,29
 446 795 446 795 446 737 c 0,30,31
 446 700 446 700 420 666 c 128,-1,32
 394 632 394 632 359 620 c 1,33,34
 393 610 393 610 421 571.5 c 128,-1,35
 449 533 449 533 449 494 c 0,36,37
 449 414 449 414 396 372.5 c 128,-1,38
 343 331 343 331 257 331 c 0,39,40
 195 331 195 331 147.5 368.5 c 128,-1,41
 100 406 100 406 100 447 c 0,42,43
 100 459 100 459 108 467 c 128,-1,44
 116 475 116 475 132.5 475 c 128,-1,45
 149 475 149 475 155 459 c 0,46,47
 183 390 183 390 262 390 c 0,48,49
 312 390 312 390 347 418 c 128,-1,50
 382 446 382 446 382 492.5 c 128,-1,51
 382 539 382 539 343 565 c 128,-1,52
 304 591 304 591 256 591 c 0,53,54
 244 591 244 591 236 597 c 128,-1,55
 228 603 228 603 228 613 c 0,14,15
1035 501 m 1,56,-1
 996 190 l 1,57,-1
 1031 190 l 2,58,59
 1043 190 1043 190 1051.5 182.5 c 128,-1,60
 1060 175 1060 175 1060 163 c 0,61,62
 1060 132 1060 132 1028 132 c 2,63,-1
 989 132 l 1,64,-1
 975 19 l 2,65,66
 971 -8 971 -8 942 -8 c 128,-1,67
 913 -8 913 -8 913 18 c 1,68,-1
 926 132 l 1,69,-1
 735 132 l 2,70,71
 701 132 701 132 701 159 c 0,72,73
 701 165 701 165 709 186 c 1,74,-1
 794 381 l 2,75,76
 816 429 816 429 821 449.5 c 128,-1,77
 826 470 826 470 826 496.5 c 128,-1,78
 826 523 826 523 852 523 c 0,79,80
 873 523 873 523 880 510.5 c 128,-1,81
 887 498 887 498 887 467.5 c 128,-1,82
 887 437 887 437 850 355 c 2,83,-1
 777 190 l 1,84,-1
 934 190 l 1,85,-1
 971 497 l 2,86,87
 975 523 975 523 1005 523 c 128,-1,88
 1035 523 1035 523 1035 501 c 1,56,-1
EndSplineSet
EndChar

StartChar: questiondown
Encoding: 191 191 131
Width: 511
GlyphClass: 2
Flags: W
LayerCount: 2
Fore
SplineSet
300 267 m 2,0,1
 303 291 303 291 332 291 c 128,-1,2
 361 291 361 291 361 269 c 0,3,4
 361 267 361 267 351 168 c 0,5,6
 347 124 347 124 322.5 86 c 128,-1,7
 298 48 298 48 266.5 21 c 128,-1,8
 235 -6 235 -6 204 -32 c 0,9,10
 130 -96 130 -96 130 -165 c 0,11,12
 130 -220 130 -220 163.5 -250.5 c 128,-1,13
 197 -281 197 -281 253 -281 c 0,14,15
 288 -281 288 -281 315.5 -264.5 c 128,-1,16
 343 -248 343 -248 357 -228.5 c 128,-1,17
 371 -209 371 -209 385.5 -192.5 c 128,-1,18
 400 -176 400 -176 412 -176 c 0,19,20
 447 -176 447 -176 447 -212 c 128,-1,21
 447 -248 447 -248 387 -299 c 128,-1,22
 327 -350 327 -350 246 -350 c 128,-1,23
 165 -350 165 -350 108.5 -302 c 128,-1,24
 52 -254 52 -254 52 -169 c 0,25,26
 52 -82 52 -82 128 -14 c 1,27,28
 161 14 161 14 194 40 c 0,29,30
 276 106 276 106 286 172 c 2,31,-1
 300 267 l 2,0,1
298 428 m 0,32,33
 298 490 298 490 355 490 c 0,34,35
 400 490 400 490 400 452 c 0,36,37
 400 391 400 391 343 391 c 0,38,39
 298 391 298 391 298 428 c 0,32,33
EndSplineSet
EndChar

StartChar: Agrave
Encoding: 192 192 132
Width: 700
GlyphClass: 2
Flags: W
LayerCount: 2
Fore
SplineSet
402 759 m 1,0,-1
 182 286 l 1,1,-1
 497 286 l 1,2,-1
 402 759 l 1,0,-1
357 843 m 2,3,4
 370 872 370 872 413.5 872 c 128,-1,5
 457 872 457 872 463 843 c 0,6,7
 636 12 636 12 636 11 c 0,8,9
 636 -14 636 -14 598 -14 c 128,-1,10
 560 -14 560 -14 554 15 c 2,11,-1
 510 225 l 1,12,-1
 153 225 l 1,13,-1
 87 80 l 1,14,15
 81 64 81 64 74.5 51 c 128,-1,16
 68 38 68 38 64 29.5 c 128,-1,17
 60 21 60 21 57.5 16.5 c 128,-1,18
 55 12 55 12 51.5 6 c 128,-1,19
 48 0 48 0 45 -3 c 128,-1,20
 42 -6 42 -6 39 -9 c 0,21,22
 34 -14 34 -14 21 -14 c 128,-1,23
 8 -14 8 -14 -6.5 -6 c 128,-1,24
 -21 2 -21 2 -21 18 c 128,-1,25
 -21 34 -21 34 28 139 c 2,26,-1
 357 843 l 2,3,4
525 944 m 2,27,28
 533 939 533 939 533 927.5 c 128,-1,29
 533 916 533 916 526 908 c 128,-1,30
 519 900 519 900 511 900 c 128,-1,31
 503 900 503 900 499 902 c 2,32,-1
 311 1001 l 2,33,34
 299 1008 299 1008 295 1013.5 c 128,-1,35
 291 1019 291 1019 291 1032.5 c 128,-1,36
 291 1046 291 1046 302 1060 c 128,-1,37
 313 1074 313 1074 325.5 1074 c 128,-1,38
 338 1074 338 1074 342 1071 c 2,39,-1
 525 944 l 2,27,28
EndSplineSet
EndChar

StartChar: Aacute
Encoding: 193 193 133
Width: 700
GlyphClass: 2
Flags: W
LayerCount: 2
Fore
SplineSet
402 759 m 1,0,-1
 182 286 l 1,1,-1
 497 286 l 1,2,-1
 402 759 l 1,0,-1
357 843 m 2,3,4
 370 872 370 872 413.5 872 c 128,-1,5
 457 872 457 872 463 843 c 0,6,7
 636 12 636 12 636 11 c 0,8,9
 636 -14 636 -14 598 -14 c 128,-1,10
 560 -14 560 -14 554 15 c 2,11,-1
 510 225 l 1,12,-1
 153 225 l 1,13,-1
 87 80 l 1,14,15
 81 64 81 64 74.5 51 c 128,-1,16
 68 38 68 38 64 29.5 c 128,-1,17
 60 21 60 21 57.5 16.5 c 128,-1,18
 55 12 55 12 51.5 6 c 128,-1,19
 48 0 48 0 45 -3 c 128,-1,20
 42 -6 42 -6 39 -9 c 0,21,22
 34 -14 34 -14 21 -14 c 128,-1,23
 8 -14 8 -14 -6.5 -6 c 128,-1,24
 -21 2 -21 2 -21 18 c 128,-1,25
 -21 34 -21 34 28 139 c 2,26,-1
 357 843 l 2,3,4
507 1071 m 2,27,28
 513 1074 513 1074 524 1074 c 128,-1,29
 535 1074 535 1074 546.5 1060 c 128,-1,30
 558 1046 558 1046 558 1032.5 c 128,-1,31
 558 1019 558 1019 554 1013.5 c 128,-1,32
 550 1008 550 1008 538 1001 c 2,33,-1
 350 902 l 2,34,35
 346 900 346 900 338 900 c 128,-1,36
 330 900 330 900 323 908 c 128,-1,37
 316 916 316 916 316 927.5 c 128,-1,38
 316 939 316 939 324 944 c 2,39,-1
 507 1071 l 2,27,28
EndSplineSet
EndChar

StartChar: Acircumflex
Encoding: 194 194 134
Width: 700
GlyphClass: 2
Flags: W
LayerCount: 2
Fore
SplineSet
402 759 m 1,0,-1
 182 286 l 1,1,-1
 497 286 l 1,2,-1
 402 759 l 1,0,-1
357 843 m 2,3,4
 370 872 370 872 413.5 872 c 128,-1,5
 457 872 457 872 463 843 c 0,6,7
 636 12 636 12 636 11 c 0,8,9
 636 -14 636 -14 598 -14 c 128,-1,10
 560 -14 560 -14 554 15 c 2,11,-1
 510 225 l 1,12,-1
 153 225 l 1,13,-1
 87 80 l 1,14,15
 81 64 81 64 74.5 51 c 128,-1,16
 68 38 68 38 64 29.5 c 128,-1,17
 60 21 60 21 57.5 16.5 c 128,-1,18
 55 12 55 12 51.5 6 c 128,-1,19
 48 0 48 0 45 -3 c 128,-1,20
 42 -6 42 -6 39 -9 c 0,21,22
 34 -14 34 -14 21 -14 c 128,-1,23
 8 -14 8 -14 -6.5 -6 c 128,-1,24
 -21 2 -21 2 -21 18 c 128,-1,25
 -21 34 -21 34 28 139 c 2,26,-1
 357 843 l 2,3,4
312 905 m 2,27,28
 307 900 307 900 297.5 900 c 128,-1,29
 288 900 288 900 280.5 907.5 c 128,-1,30
 273 915 273 915 273 924 c 128,-1,31
 273 933 273 933 277 939 c 1,32,-1
 386 1055 l 2,33,34
 414 1086 414 1086 439.5 1086 c 128,-1,35
 465 1086 465 1086 478 1063 c 2,36,-1
 547 944 l 2,37,38
 553 934 553 934 553 925.5 c 128,-1,39
 553 917 553 917 543 908 c 128,-1,40
 533 899 533 899 523 899 c 128,-1,41
 513 899 513 899 503 912 c 2,42,-1
 434 1002 l 1,43,-1
 312 905 l 2,27,28
EndSplineSet
EndChar

StartChar: Atilde
Encoding: 195 195 135
Width: 700
GlyphClass: 2
Flags: W
LayerCount: 2
Fore
SplineSet
402 759 m 1,0,-1
 182 286 l 1,1,-1
 497 286 l 1,2,-1
 402 759 l 1,0,-1
357 843 m 2,3,4
 370 872 370 872 413.5 872 c 128,-1,5
 457 872 457 872 463 843 c 0,6,7
 636 12 636 12 636 11 c 0,8,9
 636 -14 636 -14 598 -14 c 128,-1,10
 560 -14 560 -14 554 15 c 2,11,-1
 510 225 l 1,12,-1
 153 225 l 1,13,-1
 87 80 l 1,14,15
 81 64 81 64 74.5 51 c 128,-1,16
 68 38 68 38 64 29.5 c 128,-1,17
 60 21 60 21 57.5 16.5 c 128,-1,18
 55 12 55 12 51.5 6 c 128,-1,19
 48 0 48 0 45 -3 c 128,-1,20
 42 -6 42 -6 39 -9 c 0,21,22
 34 -14 34 -14 21 -14 c 128,-1,23
 8 -14 8 -14 -6.5 -6 c 128,-1,24
 -21 2 -21 2 -21 18 c 128,-1,25
 -21 34 -21 34 28 139 c 2,26,-1
 357 843 l 2,3,4
423 1011 m 128,-1,28
 461 991 461 991 482.5 991 c 128,-1,29
 504 991 504 991 529.5 1011 c 128,-1,30
 555 1031 555 1031 557 1031 c 0,31,32
 586 1031 586 1031 586 1000 c 0,33,34
 586 986 586 986 550 954 c 128,-1,35
 514 922 514 922 479 922 c 0,36,37
 460 922 460 922 422 942 c 128,-1,38
 384 962 384 962 362.5 962 c 128,-1,39
 341 962 341 962 315.5 942 c 128,-1,40
 290 922 290 922 288 922 c 0,41,42
 259 922 259 922 259 953 c 0,43,44
 259 967 259 967 295 999 c 128,-1,45
 331 1031 331 1031 366 1031 c 0,46,27
 385 1031 385 1031 423 1011 c 128,-1,28
EndSplineSet
EndChar

StartChar: Adieresis
Encoding: 196 196 136
Width: 700
GlyphClass: 2
Flags: W
LayerCount: 2
Fore
SplineSet
402 759 m 1,0,-1
 182 286 l 1,1,-1
 497 286 l 1,2,-1
 402 759 l 1,0,-1
357 843 m 2,3,4
 370 872 370 872 413.5 872 c 128,-1,5
 457 872 457 872 463 843 c 0,6,7
 636 12 636 12 636 11 c 0,8,9
 636 -14 636 -14 598 -14 c 128,-1,10
 560 -14 560 -14 554 15 c 2,11,-1
 510 225 l 1,12,-1
 153 225 l 1,13,-1
 87 80 l 1,14,15
 81 64 81 64 74.5 51 c 128,-1,16
 68 38 68 38 64 29.5 c 128,-1,17
 60 21 60 21 57.5 16.5 c 128,-1,18
 55 12 55 12 51.5 6 c 128,-1,19
 48 0 48 0 45 -3 c 128,-1,20
 42 -6 42 -6 39 -9 c 0,21,22
 34 -14 34 -14 21 -14 c 128,-1,23
 8 -14 8 -14 -6.5 -6 c 128,-1,24
 -21 2 -21 2 -21 18 c 128,-1,25
 -21 34 -21 34 28 139 c 2,26,-1
 357 843 l 2,3,4
380 992 m 0,27,28
 380 930 380 930 323 930 c 0,29,30
 278 930 278 930 278 968 c 0,31,32
 278 1029 278 1029 335 1029 c 0,33,34
 380 1029 380 1029 380 992 c 0,27,28
572 992 m 0,35,36
 572 930 572 930 515 930 c 0,37,38
 470 930 470 930 470 968 c 0,39,40
 470 1029 470 1029 527 1029 c 0,41,42
 572 1029 572 1029 572 992 c 0,35,36
EndSplineSet
EndChar

StartChar: Aring
Encoding: 197 197 137
Width: 700
GlyphClass: 2
Flags: W
LayerCount: 2
Fore
SplineSet
392 870 m 1,0,1
 321 882 321 882 321 971 c 0,2,3
 321 1014 321 1014 352.5 1054 c 128,-1,4
 384 1094 384 1094 437 1094 c 128,-1,5
 490 1094 490 1094 514.5 1065.5 c 128,-1,6
 539 1037 539 1037 539 993 c 128,-1,7
 539 949 539 949 510.5 913 c 128,-1,8
 482 877 482 877 436 869 c 1,9,10
 459 864 459 864 463 843 c 0,11,12
 636 12 636 12 636 11 c 0,13,14
 636 -14 636 -14 598 -14 c 128,-1,15
 560 -14 560 -14 554 15 c 2,16,-1
 510 225 l 1,17,-1
 153 225 l 1,18,-1
 87 80 l 1,19,20
 81 64 81 64 74.5 51 c 128,-1,21
 68 38 68 38 64 29.5 c 128,-1,22
 60 21 60 21 57.5 16.5 c 128,-1,23
 55 12 55 12 51.5 6 c 128,-1,24
 48 0 48 0 45 -3 c 128,-1,25
 42 -6 42 -6 39 -9 c 0,26,27
 34 -14 34 -14 21 -14 c 128,-1,28
 8 -14 8 -14 -6.5 -6 c 128,-1,29
 -21 2 -21 2 -21 18 c 128,-1,30
 -21 34 -21 34 28 139 c 2,31,-1
 357 843 l 2,32,33
 367 864 367 864 392 870 c 1,0,1
402 759 m 1,34,-1
 182 286 l 1,35,-1
 497 286 l 1,36,-1
 402 759 l 1,34,-1
376 970 m 0,37,38
 376 917 376 917 421 917 c 0,39,40
 448 917 448 917 466.5 938.5 c 128,-1,41
 485 960 485 960 485 989 c 0,42,43
 485 1043 485 1043 440 1043 c 0,44,45
 410 1043 410 1043 393 1020.5 c 128,-1,46
 376 998 376 998 376 970 c 0,37,38
EndSplineSet
EndChar

StartChar: AE
Encoding: 198 198 138
Width: 954
GlyphClass: 2
Flags: W
LayerCount: 2
Fore
SplineSet
-5 -14 m 0,0,1
 -51 -14 -51 -14 -51 15 c 0,2,3
 -51 34 -51 34 -26 82 c 2,4,-1
 356 831 l 2,5,6
 370 860 370 860 412 860 c 2,7,-1
 923 860 l 2,8,9
 954 860 954 860 954 833 c 0,10,11
 954 813 954 813 946 805 c 128,-1,12
 938 797 938 797 917 797 c 2,13,-1
 581 797 l 1,14,-1
 544 451 l 1,15,-1
 821 451 l 2,16,17
 856 451 856 451 856 425 c 0,18,19
 856 405 856 405 847.5 396.5 c 128,-1,20
 839 388 839 388 818 388 c 2,21,-1
 535 388 l 1,22,-1
 495 64 l 1,23,-1
 852 64 l 2,24,25
 878 64 878 64 878 34 c 0,26,27
 878 19 878 19 870 9.5 c 128,-1,28
 862 0 862 0 850 0 c 2,29,-1
 446 0 l 2,30,31
 413 0 413 0 413 26 c 0,32,33
 413 32 413 32 414 41 c 2,34,-1
 456 388 l 1,35,-1
 217 388 l 1,36,-1
 62 80 l 2,37,38
 59 74 59 74 50.5 56.5 c 128,-1,39
 42 39 42 39 36.5 29 c 128,-1,40
 31 19 31 19 24 7 c 0,41,42
 10 -14 10 -14 -5 -14 c 0,0,1
424 797 m 1,43,-1
 249 451 l 1,44,-1
 463 451 l 1,45,-1
 505 797 l 1,46,-1
 424 797 l 1,43,-1
EndSplineSet
EndChar

StartChar: Ccedilla
Encoding: 199 199 139
Width: 661
GlyphClass: 2
Flags: W
LayerCount: 2
Fore
SplineSet
424 872 m 0,0,1
 551 872 551 872 626 797 c 0,2,3
 662 761 662 761 662 741 c 0,4,5
 662 731 662 731 645.5 719.5 c 128,-1,6
 629 708 629 708 618.5 708 c 128,-1,7
 608 708 608 708 594.5 724 c 128,-1,8
 581 740 581 740 564.5 759.5 c 128,-1,9
 548 779 548 779 510 795 c 128,-1,10
 472 811 472 811 414.5 811 c 128,-1,11
 357 811 357 811 304.5 777 c 128,-1,12
 252 743 252 743 219 690.5 c 128,-1,13
 186 638 186 638 163 572 c 0,14,15
 122 453 122 453 122 325 c 0,16,17
 122 213 122 213 171 137 c 0,18,19
 196 98 196 98 239.5 75.5 c 128,-1,20
 283 53 283 53 340 53 c 0,21,22
 460 53 460 53 539 139 c 0,23,24
 542 142 542 142 552 155 c 0,25,26
 570 181 570 181 583 181 c 128,-1,27
 596 181 596 181 606 172.5 c 128,-1,28
 616 164 616 164 616 154 c 128,-1,29
 616 144 616 144 609 133 c 0,30,31
 563 61 563 61 491.5 23.5 c 128,-1,32
 420 -14 420 -14 333 -14 c 2,33,-1
 326 -14 l 1,34,-1
 309 -71 l 1,35,36
 364 -71 364 -71 402.5 -99.5 c 128,-1,37
 441 -128 441 -128 441 -190 c 128,-1,38
 441 -252 441 -252 400.5 -286 c 128,-1,39
 360 -320 360 -320 303.5 -320 c 128,-1,40
 247 -320 247 -320 213.5 -293.5 c 128,-1,41
 180 -267 180 -267 180 -235 c 0,42,43
 180 -222 180 -222 187 -212.5 c 128,-1,44
 194 -203 194 -203 210 -203 c 128,-1,45
 226 -203 226 -203 235 -222 c 128,-1,46
 244 -241 244 -241 259 -253 c 128,-1,47
 274 -265 274 -265 306 -265 c 128,-1,48
 338 -265 338 -265 358.5 -244.5 c 128,-1,49
 379 -224 379 -224 379 -193 c 0,50,51
 379 -124 379 -124 288 -124 c 0,52,53
 256 -124 256 -124 256 -101 c 0,54,55
 256 -90 256 -90 261 -72 c 2,56,-1
 279 -10 l 1,57,58
 156 6 156 6 99 97 c 128,-1,59
 42 188 42 188 42 330 c 0,60,61
 42 526 42 526 126 688 c 0,62,63
 168 771 168 771 245 821.5 c 128,-1,64
 322 872 322 872 424 872 c 0,0,1
EndSplineSet
EndChar

StartChar: Egrave
Encoding: 200 200 140
Width: 598
GlyphClass: 2
Flags: W
LayerCount: 2
Fore
SplineSet
181 860 m 2,0,-1
 567 860 l 2,1,2
 598 860 598 860 598 833 c 0,3,4
 598 813 598 813 590 805 c 128,-1,5
 582 797 582 797 561 797 c 2,6,-1
 225 797 l 1,7,-1
 192 484 l 1,8,-1
 469 484 l 2,9,10
 504 484 504 484 504 458 c 0,11,12
 504 438 504 438 495.5 429.5 c 128,-1,13
 487 421 487 421 466 421 c 2,14,-1
 183 421 l 1,15,-1
 139 64 l 1,16,-1
 496 64 l 2,17,18
 522 64 522 64 522 34 c 0,19,20
 522 19 522 19 514 9.5 c 128,-1,21
 506 0 506 0 494 0 c 2,22,-1
 90 0 l 2,23,24
 57 0 57 0 57 26 c 0,25,26
 57 32 57 32 58 41 c 2,27,-1
 153 826 l 1,28,29
 156 860 156 860 181 860 c 2,0,-1
497 944 m 2,30,31
 505 939 505 939 505 927.5 c 128,-1,32
 505 916 505 916 498 908 c 128,-1,33
 491 900 491 900 483 900 c 128,-1,34
 475 900 475 900 471 902 c 2,35,-1
 283 1001 l 2,36,37
 271 1008 271 1008 267 1013.5 c 128,-1,38
 263 1019 263 1019 263 1032.5 c 128,-1,39
 263 1046 263 1046 274 1060 c 128,-1,40
 285 1074 285 1074 297.5 1074 c 128,-1,41
 310 1074 310 1074 314 1071 c 2,42,-1
 497 944 l 2,30,31
EndSplineSet
EndChar

StartChar: Eacute
Encoding: 201 201 141
Width: 598
GlyphClass: 2
Flags: W
LayerCount: 2
Fore
SplineSet
181 860 m 2,0,-1
 567 860 l 2,1,2
 598 860 598 860 598 833 c 0,3,4
 598 813 598 813 590 805 c 128,-1,5
 582 797 582 797 561 797 c 2,6,-1
 225 797 l 1,7,-1
 192 484 l 1,8,-1
 469 484 l 2,9,10
 504 484 504 484 504 458 c 0,11,12
 504 438 504 438 495.5 429.5 c 128,-1,13
 487 421 487 421 466 421 c 2,14,-1
 183 421 l 1,15,-1
 139 64 l 1,16,-1
 496 64 l 2,17,18
 522 64 522 64 522 34 c 0,19,20
 522 19 522 19 514 9.5 c 128,-1,21
 506 0 506 0 494 0 c 2,22,-1
 90 0 l 2,23,24
 57 0 57 0 57 26 c 0,25,26
 57 32 57 32 58 41 c 2,27,-1
 153 826 l 1,28,29
 156 860 156 860 181 860 c 2,0,-1
473 1071 m 2,30,31
 479 1074 479 1074 490 1074 c 128,-1,32
 501 1074 501 1074 512.5 1060 c 128,-1,33
 524 1046 524 1046 524 1032.5 c 128,-1,34
 524 1019 524 1019 520 1013.5 c 128,-1,35
 516 1008 516 1008 504 1001 c 2,36,-1
 316 902 l 2,37,38
 312 900 312 900 304 900 c 128,-1,39
 296 900 296 900 289 908 c 128,-1,40
 282 916 282 916 282 927.5 c 128,-1,41
 282 939 282 939 290 944 c 2,42,-1
 473 1071 l 2,30,31
EndSplineSet
EndChar

StartChar: Ecircumflex
Encoding: 202 202 142
Width: 598
GlyphClass: 2
Flags: W
LayerCount: 2
Fore
SplineSet
181 860 m 2,0,-1
 567 860 l 2,1,2
 598 860 598 860 598 833 c 0,3,4
 598 813 598 813 590 805 c 128,-1,5
 582 797 582 797 561 797 c 2,6,-1
 225 797 l 1,7,-1
 192 484 l 1,8,-1
 469 484 l 2,9,10
 504 484 504 484 504 458 c 0,11,12
 504 438 504 438 495.5 429.5 c 128,-1,13
 487 421 487 421 466 421 c 2,14,-1
 183 421 l 1,15,-1
 139 64 l 1,16,-1
 496 64 l 2,17,18
 522 64 522 64 522 34 c 0,19,20
 522 19 522 19 514 9.5 c 128,-1,21
 506 0 506 0 494 0 c 2,22,-1
 90 0 l 2,23,24
 57 0 57 0 57 26 c 0,25,26
 57 32 57 32 58 41 c 2,27,-1
 153 826 l 1,28,29
 156 860 156 860 181 860 c 2,0,-1
283 905 m 2,30,31
 278 900 278 900 268.5 900 c 128,-1,32
 259 900 259 900 251.5 907.5 c 128,-1,33
 244 915 244 915 244 924 c 128,-1,34
 244 933 244 933 248 939 c 1,35,-1
 357 1055 l 2,36,37
 385 1086 385 1086 410.5 1086 c 128,-1,38
 436 1086 436 1086 449 1063 c 2,39,-1
 518 944 l 2,40,41
 524 934 524 934 524 925.5 c 128,-1,42
 524 917 524 917 514 908 c 128,-1,43
 504 899 504 899 494 899 c 128,-1,44
 484 899 484 899 474 912 c 2,45,-1
 405 1002 l 1,46,-1
 283 905 l 2,30,31
EndSplineSet
EndChar

StartChar: Edieresis
Encoding: 203 203 143
Width: 598
GlyphClass: 2
Flags: W
LayerCount: 2
Fore
SplineSet
181 860 m 2,0,-1
 567 860 l 2,1,2
 598 860 598 860 598 833 c 0,3,4
 598 813 598 813 590 805 c 128,-1,5
 582 797 582 797 561 797 c 2,6,-1
 225 797 l 1,7,-1
 192 484 l 1,8,-1
 469 484 l 2,9,10
 504 484 504 484 504 458 c 0,11,12
 504 438 504 438 495.5 429.5 c 128,-1,13
 487 421 487 421 466 421 c 2,14,-1
 183 421 l 1,15,-1
 139 64 l 1,16,-1
 496 64 l 2,17,18
 522 64 522 64 522 34 c 0,19,20
 522 19 522 19 514 9.5 c 128,-1,21
 506 0 506 0 494 0 c 2,22,-1
 90 0 l 2,23,24
 57 0 57 0 57 26 c 0,25,26
 57 32 57 32 58 41 c 2,27,-1
 153 826 l 1,28,29
 156 860 156 860 181 860 c 2,0,-1
357 992 m 0,30,31
 357 930 357 930 300 930 c 0,32,33
 255 930 255 930 255 968 c 0,34,35
 255 1029 255 1029 312 1029 c 0,36,37
 357 1029 357 1029 357 992 c 0,30,31
549 992 m 0,38,39
 549 930 549 930 492 930 c 0,40,41
 447 930 447 930 447 968 c 0,42,43
 447 1029 447 1029 504 1029 c 0,44,45
 549 1029 549 1029 549 992 c 0,38,39
EndSplineSet
EndChar

StartChar: Igrave
Encoding: 204 204 144
Width: 293
GlyphClass: 2
Flags: W
LayerCount: 2
Fore
SplineSet
134 18 m 0,0,1
 130 -14 130 -14 93.5 -14 c 128,-1,2
 57 -14 57 -14 57 14 c 0,3,4
 57 17 57 17 158 840 c 0,5,6
 162 872 162 872 199 872 c 128,-1,7
 236 872 236 872 236 848 c 0,8,9
 236 845 236 845 134 18 c 0,0,1
320 944 m 2,10,11
 328 939 328 939 328 927.5 c 128,-1,12
 328 916 328 916 321 908 c 128,-1,13
 314 900 314 900 306 900 c 128,-1,14
 298 900 298 900 294 902 c 2,15,-1
 106 1001 l 2,16,17
 94 1008 94 1008 90 1013.5 c 128,-1,18
 86 1019 86 1019 86 1032.5 c 128,-1,19
 86 1046 86 1046 97 1060 c 128,-1,20
 108 1074 108 1074 120.5 1074 c 128,-1,21
 133 1074 133 1074 137 1071 c 2,22,-1
 320 944 l 2,10,11
EndSplineSet
EndChar

StartChar: Iacute
Encoding: 205 205 145
Width: 293
GlyphClass: 2
Flags: W
LayerCount: 2
Fore
SplineSet
134 18 m 0,0,1
 130 -14 130 -14 93.5 -14 c 128,-1,2
 57 -14 57 -14 57 14 c 0,3,4
 57 17 57 17 158 840 c 0,5,6
 162 872 162 872 199 872 c 128,-1,7
 236 872 236 872 236 848 c 0,8,9
 236 845 236 845 134 18 c 0,0,1
283 1071 m 2,10,11
 289 1074 289 1074 300 1074 c 128,-1,12
 311 1074 311 1074 322.5 1060 c 128,-1,13
 334 1046 334 1046 334 1032.5 c 128,-1,14
 334 1019 334 1019 330 1013.5 c 128,-1,15
 326 1008 326 1008 314 1001 c 2,16,-1
 126 902 l 2,17,18
 122 900 122 900 114 900 c 128,-1,19
 106 900 106 900 99 908 c 128,-1,20
 92 916 92 916 92 927.5 c 128,-1,21
 92 939 92 939 100 944 c 2,22,-1
 283 1071 l 2,10,11
EndSplineSet
EndChar

StartChar: Icircumflex
Encoding: 206 206 146
Width: 293
GlyphClass: 2
Flags: W
LayerCount: 2
Fore
SplineSet
134 18 m 0,0,1
 130 -14 130 -14 93.5 -14 c 128,-1,2
 57 -14 57 -14 57 14 c 0,3,4
 57 17 57 17 158 840 c 0,5,6
 162 872 162 872 199 872 c 128,-1,7
 236 872 236 872 236 848 c 0,8,9
 236 845 236 845 134 18 c 0,0,1
101 905 m 2,10,11
 96 900 96 900 86.5 900 c 128,-1,12
 77 900 77 900 69.5 907.5 c 128,-1,13
 62 915 62 915 62 924 c 128,-1,14
 62 933 62 933 66 939 c 1,15,-1
 175 1055 l 2,16,17
 203 1086 203 1086 228.5 1086 c 128,-1,18
 254 1086 254 1086 267 1063 c 2,19,-1
 336 944 l 2,20,21
 342 934 342 934 342 925.5 c 128,-1,22
 342 917 342 917 332 908 c 128,-1,23
 322 899 322 899 312 899 c 128,-1,24
 302 899 302 899 292 912 c 2,25,-1
 223 1002 l 1,26,-1
 101 905 l 2,10,11
EndSplineSet
EndChar

StartChar: Idieresis
Encoding: 207 207 147
Width: 293
GlyphClass: 2
Flags: W
LayerCount: 2
Fore
SplineSet
134 18 m 0,0,1
 130 -14 130 -14 93.5 -14 c 128,-1,2
 57 -14 57 -14 57 14 c 0,3,4
 57 17 57 17 158 840 c 0,5,6
 162 872 162 872 199 872 c 128,-1,7
 236 872 236 872 236 848 c 0,8,9
 236 845 236 845 134 18 c 0,0,1
170 992 m 0,10,11
 170 930 170 930 113 930 c 0,12,13
 68 930 68 930 68 968 c 0,14,15
 68 1029 68 1029 125 1029 c 0,16,17
 170 1029 170 1029 170 992 c 0,10,11
362 992 m 0,18,19
 362 930 362 930 305 930 c 0,20,21
 260 930 260 930 260 968 c 0,22,23
 260 1029 260 1029 317 1029 c 0,24,25
 362 1029 362 1029 362 992 c 0,18,19
EndSplineSet
EndChar

StartChar: Eth
Encoding: 208 208 148
Width: 774
GlyphClass: 2
Flags: W
LayerCount: 2
Fore
SplineSet
27 462 m 2,0,-1
 107 462 l 1,1,-1
 152 837 l 2,2,3
 153 847 153 847 162 853.5 c 128,-1,4
 171 860 171 860 181 861 c 0,5,6
 295 872 295 872 397 872 c 0,7,8
 563 872 563 872 646.5 784.5 c 128,-1,9
 730 697 730 697 730 536 c 0,10,11
 730 304 730 304 634 151 c 0,12,13
 585 73 585 73 499.5 29.5 c 128,-1,14
 414 -14 414 -14 290 -14 c 128,-1,15
 166 -14 166 -14 94 -4 c 0,16,17
 56 1 56 1 56 24 c 0,18,19
 56 38 56 38 58 52 c 2,20,-1
 99 398 l 1,21,-1
 19 398 l 2,22,23
 10 398 10 398 4 406 c 128,-1,24
 -2 414 -2 414 -2 427 c 128,-1,25
 -2 440 -2 440 5.5 451 c 128,-1,26
 13 462 13 462 27 462 c 2,0,-1
650 547 m 0,27,28
 650 665 650 665 582 737 c 128,-1,29
 514 809 514 809 398.5 809 c 128,-1,30
 283 809 283 809 226 799 c 1,31,-1
 185 462 l 1,32,-1
 413 462 l 2,33,34
 425 462 425 462 432 453 c 128,-1,35
 439 444 439 444 439 431 c 128,-1,36
 439 418 439 418 431 408 c 128,-1,37
 423 398 423 398 409 398 c 2,38,-1
 178 398 l 1,39,-1
 138 62 l 1,40,41
 202 53 202 53 297 53 c 128,-1,42
 392 53 392 53 462.5 95.5 c 128,-1,43
 533 138 533 138 572 210 c 0,44,45
 650 353 650 353 650 547 c 0,27,28
EndSplineSet
EndChar

StartChar: Ntilde
Encoding: 209 209 149
Width: 760
GlyphClass: 2
Flags: W
LayerCount: 2
Fore
SplineSet
124 -4 m 128,-1,1
 116 -14 116 -14 94.5 -14 c 128,-1,2
 73 -14 73 -14 65 -8.5 c 128,-1,3
 57 -3 57 -3 57 8 c 128,-1,4
 57 19 57 19 59 39 c 2,5,-1
 155 841 l 2,6,7
 159 872 159 872 199 872 c 2,8,-1
 221 872 l 2,9,10
 253 872 253 872 262 847 c 2,11,-1
 543 139 l 1,12,-1
 624 819 l 2,13,14
 627 848 627 848 631.5 857.5 c 128,-1,15
 636 867 636 867 644 869.5 c 128,-1,16
 652 872 652 872 669.5 872 c 128,-1,17
 687 872 687 872 695 866 c 128,-1,18
 703 860 703 860 703 849.5 c 128,-1,19
 703 839 703 839 701 819 c 2,20,-1
 603 17 l 2,21,22
 600 -14 600 -14 564 -14 c 2,23,-1
 545 -14 l 2,24,25
 512 -14 512 -14 501 13 c 2,26,-1
 218 727 l 1,27,-1
 136 39 l 2,28,0
 132 6 132 6 124 -4 c 128,-1,1
460 1011 m 128,-1,30
 498 991 498 991 519.5 991 c 128,-1,31
 541 991 541 991 566.5 1011 c 128,-1,32
 592 1031 592 1031 594 1031 c 0,33,34
 623 1031 623 1031 623 1000 c 0,35,36
 623 986 623 986 587 954 c 128,-1,37
 551 922 551 922 516 922 c 0,38,39
 497 922 497 922 459 942 c 128,-1,40
 421 962 421 962 399.5 962 c 128,-1,41
 378 962 378 962 352.5 942 c 128,-1,42
 327 922 327 922 325 922 c 0,43,44
 296 922 296 922 296 953 c 0,45,46
 296 967 296 967 332 999 c 128,-1,47
 368 1031 368 1031 403 1031 c 0,48,29
 422 1031 422 1031 460 1011 c 128,-1,30
EndSplineSet
EndChar

StartChar: Ograve
Encoding: 210 210 150
Width: 734
GlyphClass: 2
Flags: W
LayerCount: 2
Fore
SplineSet
677.5 669 m 128,-1,1
 692 611 692 611 692 545.5 c 128,-1,2
 692 480 692 480 683.5 419 c 128,-1,3
 675 358 675 358 657 295 c 128,-1,4
 639 232 639 232 609 177 c 128,-1,5
 579 122 579 122 539 79 c 128,-1,6
 499 36 499 36 442 11 c 128,-1,7
 385 -14 385 -14 314 -14 c 128,-1,8
 243 -14 243 -14 188.5 12 c 128,-1,9
 134 38 134 38 102 85 c 0,10,11
 42 175 42 175 42 321 c 0,12,13
 42 476 42 476 94 612 c 0,14,15
 123 686 123 686 164.5 743 c 128,-1,16
 206 800 206 800 271 836 c 128,-1,17
 336 872 336 872 413.5 872 c 128,-1,18
 491 872 491 872 546 846 c 128,-1,19
 601 820 601 820 632 773.5 c 128,-1,0
 663 727 663 727 677.5 669 c 128,-1,1
330 50 m 0,20,21
 389 50 389 50 440 86 c 128,-1,22
 491 122 491 122 522.5 176 c 128,-1,23
 554 230 554 230 575 299 c 0,24,25
 612 421 612 421 612 546 c 0,26,27
 612 653 612 653 568 728 c 0,28,29
 546 767 546 767 505 789 c 128,-1,30
 464 811 464 811 405 811 c 128,-1,31
 346 811 346 811 295 775 c 128,-1,32
 244 739 244 739 212.5 685 c 128,-1,33
 181 631 181 631 160 562 c 0,34,35
 123 440 123 440 123 315 c 0,36,37
 123 208 123 208 166 133 c 0,38,39
 214 50 214 50 330 50 c 0,20,21
530 944 m 2,40,41
 538 939 538 939 538 927.5 c 128,-1,42
 538 916 538 916 531 908 c 128,-1,43
 524 900 524 900 516 900 c 128,-1,44
 508 900 508 900 504 902 c 2,45,-1
 316 1001 l 2,46,47
 304 1008 304 1008 300 1013.5 c 128,-1,48
 296 1019 296 1019 296 1032.5 c 128,-1,49
 296 1046 296 1046 307 1060 c 128,-1,50
 318 1074 318 1074 330.5 1074 c 128,-1,51
 343 1074 343 1074 347 1071 c 2,52,-1
 530 944 l 2,40,41
EndSplineSet
EndChar

StartChar: Oacute
Encoding: 211 211 151
Width: 734
GlyphClass: 2
Flags: W
LayerCount: 2
Fore
SplineSet
677.5 669 m 128,-1,1
 692 611 692 611 692 545.5 c 128,-1,2
 692 480 692 480 683.5 419 c 128,-1,3
 675 358 675 358 657 295 c 128,-1,4
 639 232 639 232 609 177 c 128,-1,5
 579 122 579 122 539 79 c 128,-1,6
 499 36 499 36 442 11 c 128,-1,7
 385 -14 385 -14 314 -14 c 128,-1,8
 243 -14 243 -14 188.5 12 c 128,-1,9
 134 38 134 38 102 85 c 0,10,11
 42 175 42 175 42 321 c 0,12,13
 42 476 42 476 94 612 c 0,14,15
 123 686 123 686 164.5 743 c 128,-1,16
 206 800 206 800 271 836 c 128,-1,17
 336 872 336 872 413.5 872 c 128,-1,18
 491 872 491 872 546 846 c 128,-1,19
 601 820 601 820 632 773.5 c 128,-1,0
 663 727 663 727 677.5 669 c 128,-1,1
330 50 m 0,20,21
 389 50 389 50 440 86 c 128,-1,22
 491 122 491 122 522.5 176 c 128,-1,23
 554 230 554 230 575 299 c 0,24,25
 612 421 612 421 612 546 c 0,26,27
 612 653 612 653 568 728 c 0,28,29
 546 767 546 767 505 789 c 128,-1,30
 464 811 464 811 405 811 c 128,-1,31
 346 811 346 811 295 775 c 128,-1,32
 244 739 244 739 212.5 685 c 128,-1,33
 181 631 181 631 160 562 c 0,34,35
 123 440 123 440 123 315 c 0,36,37
 123 208 123 208 166 133 c 0,38,39
 214 50 214 50 330 50 c 0,20,21
516 1071 m 2,40,41
 522 1074 522 1074 533 1074 c 128,-1,42
 544 1074 544 1074 555.5 1060 c 128,-1,43
 567 1046 567 1046 567 1032.5 c 128,-1,44
 567 1019 567 1019 563 1013.5 c 128,-1,45
 559 1008 559 1008 547 1001 c 2,46,-1
 359 902 l 2,47,48
 355 900 355 900 347 900 c 128,-1,49
 339 900 339 900 332 908 c 128,-1,50
 325 916 325 916 325 927.5 c 128,-1,51
 325 939 325 939 333 944 c 2,52,-1
 516 1071 l 2,40,41
EndSplineSet
EndChar

StartChar: Ocircumflex
Encoding: 212 212 152
Width: 734
GlyphClass: 2
Flags: W
LayerCount: 2
Fore
SplineSet
677.5 669 m 128,-1,1
 692 611 692 611 692 545.5 c 128,-1,2
 692 480 692 480 683.5 419 c 128,-1,3
 675 358 675 358 657 295 c 128,-1,4
 639 232 639 232 609 177 c 128,-1,5
 579 122 579 122 539 79 c 128,-1,6
 499 36 499 36 442 11 c 128,-1,7
 385 -14 385 -14 314 -14 c 128,-1,8
 243 -14 243 -14 188.5 12 c 128,-1,9
 134 38 134 38 102 85 c 0,10,11
 42 175 42 175 42 321 c 0,12,13
 42 476 42 476 94 612 c 0,14,15
 123 686 123 686 164.5 743 c 128,-1,16
 206 800 206 800 271 836 c 128,-1,17
 336 872 336 872 413.5 872 c 128,-1,18
 491 872 491 872 546 846 c 128,-1,19
 601 820 601 820 632 773.5 c 128,-1,0
 663 727 663 727 677.5 669 c 128,-1,1
330 50 m 0,20,21
 389 50 389 50 440 86 c 128,-1,22
 491 122 491 122 522.5 176 c 128,-1,23
 554 230 554 230 575 299 c 0,24,25
 612 421 612 421 612 546 c 0,26,27
 612 653 612 653 568 728 c 0,28,29
 546 767 546 767 505 789 c 128,-1,30
 464 811 464 811 405 811 c 128,-1,31
 346 811 346 811 295 775 c 128,-1,32
 244 739 244 739 212.5 685 c 128,-1,33
 181 631 181 631 160 562 c 0,34,35
 123 440 123 440 123 315 c 0,36,37
 123 208 123 208 166 133 c 0,38,39
 214 50 214 50 330 50 c 0,20,21
326 905 m 2,40,41
 321 900 321 900 311.5 900 c 128,-1,42
 302 900 302 900 294.5 907.5 c 128,-1,43
 287 915 287 915 287 924 c 128,-1,44
 287 933 287 933 291 939 c 1,45,-1
 400 1055 l 2,46,47
 428 1086 428 1086 453.5 1086 c 128,-1,48
 479 1086 479 1086 492 1063 c 2,49,-1
 561 944 l 2,50,51
 567 934 567 934 567 925.5 c 128,-1,52
 567 917 567 917 557 908 c 128,-1,53
 547 899 547 899 537 899 c 128,-1,54
 527 899 527 899 517 912 c 2,55,-1
 448 1002 l 1,56,-1
 326 905 l 2,40,41
EndSplineSet
EndChar

StartChar: Otilde
Encoding: 213 213 153
Width: 734
GlyphClass: 2
Flags: W
LayerCount: 2
Fore
SplineSet
677.5 669 m 128,-1,1
 692 611 692 611 692 545.5 c 128,-1,2
 692 480 692 480 683.5 419 c 128,-1,3
 675 358 675 358 657 295 c 128,-1,4
 639 232 639 232 609 177 c 128,-1,5
 579 122 579 122 539 79 c 128,-1,6
 499 36 499 36 442 11 c 128,-1,7
 385 -14 385 -14 314 -14 c 128,-1,8
 243 -14 243 -14 188.5 12 c 128,-1,9
 134 38 134 38 102 85 c 0,10,11
 42 175 42 175 42 321 c 0,12,13
 42 476 42 476 94 612 c 0,14,15
 123 686 123 686 164.5 743 c 128,-1,16
 206 800 206 800 271 836 c 128,-1,17
 336 872 336 872 413.5 872 c 128,-1,18
 491 872 491 872 546 846 c 128,-1,19
 601 820 601 820 632 773.5 c 128,-1,0
 663 727 663 727 677.5 669 c 128,-1,1
330 50 m 0,20,21
 389 50 389 50 440 86 c 128,-1,22
 491 122 491 122 522.5 176 c 128,-1,23
 554 230 554 230 575 299 c 0,24,25
 612 421 612 421 612 546 c 0,26,27
 612 653 612 653 568 728 c 0,28,29
 546 767 546 767 505 789 c 128,-1,30
 464 811 464 811 405 811 c 128,-1,31
 346 811 346 811 295 775 c 128,-1,32
 244 739 244 739 212.5 685 c 128,-1,33
 181 631 181 631 160 562 c 0,34,35
 123 440 123 440 123 315 c 0,36,37
 123 208 123 208 166 133 c 0,38,39
 214 50 214 50 330 50 c 0,20,21
434 1011 m 128,-1,41
 472 991 472 991 493.5 991 c 128,-1,42
 515 991 515 991 540.5 1011 c 128,-1,43
 566 1031 566 1031 568 1031 c 0,44,45
 597 1031 597 1031 597 1000 c 0,46,47
 597 986 597 986 561 954 c 128,-1,48
 525 922 525 922 490 922 c 0,49,50
 471 922 471 922 433 942 c 128,-1,51
 395 962 395 962 373.5 962 c 128,-1,52
 352 962 352 962 326.5 942 c 128,-1,53
 301 922 301 922 299 922 c 0,54,55
 270 922 270 922 270 953 c 0,56,57
 270 967 270 967 306 999 c 128,-1,58
 342 1031 342 1031 377 1031 c 0,59,40
 396 1031 396 1031 434 1011 c 128,-1,41
EndSplineSet
EndChar

StartChar: Odieresis
Encoding: 214 214 154
Width: 734
GlyphClass: 2
Flags: W
LayerCount: 2
Fore
SplineSet
677.5 669 m 128,-1,1
 692 611 692 611 692 545.5 c 128,-1,2
 692 480 692 480 683.5 419 c 128,-1,3
 675 358 675 358 657 295 c 128,-1,4
 639 232 639 232 609 177 c 128,-1,5
 579 122 579 122 539 79 c 128,-1,6
 499 36 499 36 442 11 c 128,-1,7
 385 -14 385 -14 314 -14 c 128,-1,8
 243 -14 243 -14 188.5 12 c 128,-1,9
 134 38 134 38 102 85 c 0,10,11
 42 175 42 175 42 321 c 0,12,13
 42 476 42 476 94 612 c 0,14,15
 123 686 123 686 164.5 743 c 128,-1,16
 206 800 206 800 271 836 c 128,-1,17
 336 872 336 872 413.5 872 c 128,-1,18
 491 872 491 872 546 846 c 128,-1,19
 601 820 601 820 632 773.5 c 128,-1,0
 663 727 663 727 677.5 669 c 128,-1,1
330 50 m 0,20,21
 389 50 389 50 440 86 c 128,-1,22
 491 122 491 122 522.5 176 c 128,-1,23
 554 230 554 230 575 299 c 0,24,25
 612 421 612 421 612 546 c 0,26,27
 612 653 612 653 568 728 c 0,28,29
 546 767 546 767 505 789 c 128,-1,30
 464 811 464 811 405 811 c 128,-1,31
 346 811 346 811 295 775 c 128,-1,32
 244 739 244 739 212.5 685 c 128,-1,33
 181 631 181 631 160 562 c 0,34,35
 123 440 123 440 123 315 c 0,36,37
 123 208 123 208 166 133 c 0,38,39
 214 50 214 50 330 50 c 0,20,21
391 992 m 0,40,41
 391 930 391 930 334 930 c 0,42,43
 289 930 289 930 289 968 c 0,44,45
 289 1029 289 1029 346 1029 c 0,46,47
 391 1029 391 1029 391 992 c 0,40,41
583 992 m 0,48,49
 583 930 583 930 526 930 c 0,50,51
 481 930 481 930 481 968 c 0,52,53
 481 1029 481 1029 538 1029 c 0,54,55
 583 1029 583 1029 583 992 c 0,48,49
EndSplineSet
EndChar

StartChar: multiply
Encoding: 215 215 155
Width: 672
GlyphClass: 2
Flags: W
LayerCount: 2
Fore
SplineSet
182 207 m 2,0,1
 177 202 177 202 164.5 202 c 128,-1,2
 152 202 152 202 139.5 214.5 c 128,-1,3
 127 227 127 227 127 238 c 128,-1,4
 127 249 127 249 134 258 c 1,5,-1
 286 410 l 1,6,-1
 162 561 l 2,7,8
 155 570 155 570 155 582.5 c 128,-1,9
 155 595 155 595 166 606 c 128,-1,10
 177 617 177 617 191 617 c 128,-1,11
 205 617 205 617 210 612 c 2,12,-1
 333 461 l 1,13,-1
 486 613 l 2,14,15
 492 619 492 619 506 619 c 128,-1,16
 520 619 520 619 531 607.5 c 128,-1,17
 542 596 542 596 542 582 c 128,-1,18
 542 568 542 568 533 563 c 1,19,-1
 381 410 l 1,20,-1
 507 258 l 2,21,22
 514 249 514 249 514 237 c 128,-1,23
 514 225 514 225 503 213.5 c 128,-1,24
 492 202 492 202 478 202 c 128,-1,25
 464 202 464 202 459 207 c 2,26,-1
 333 360 l 1,27,-1
 182 207 l 2,0,1
EndSplineSet
EndChar

StartChar: Oslash
Encoding: 216 216 156
Width: 734
GlyphClass: 2
Flags: W
LayerCount: 2
Fore
SplineSet
416 872 m 1,0,-1
 444 871 l 1,1,-1
 461 936 l 2,2,3
 469 966 469 966 510 966 c 0,4,5
 537 966 537 966 537 947 c 0,6,7
 537 941 537 941 532 923 c 2,8,-1
 515 858 l 1,9,10
 692 801 692 801 692 539 c 0,11,12
 692 418 692 418 657 295 c 0,13,14
 620 166 620 166 539 79 c 0,15,16
 499 36 499 36 442 11 c 128,-1,17
 385 -14 385 -14 318 -14 c 1,18,-1
 290 -13 l 1,19,-1
 273 -79 l 2,20,21
 265 -108 265 -108 221 -108 c 0,22,23
 197 -108 197 -108 197 -92 c 0,24,25
 197 -88 197 -88 202 -70 c 2,26,-1
 220 0 l 1,27,28
 42 56 42 56 42 321 c 0,29,30
 42 476 42 476 94 612 c 0,31,32
 123 686 123 686 164.5 743 c 128,-1,33
 206 800 206 800 271 836 c 128,-1,34
 336 872 336 872 416 872 c 1,0,-1
123 315 m 0,35,36
 123 123 123 123 237 68 c 1,37,-1
 428 810 l 1,38,39
 422 811 422 811 409 811 c 0,40,41
 346 811 346 811 295 775 c 128,-1,42
 244 739 244 739 212.5 685 c 128,-1,43
 181 631 181 631 160 562 c 0,44,45
 123 440 123 440 123 315 c 0,35,36
326 50 m 2,46,47
 389 50 389 50 440 86 c 128,-1,48
 491 122 491 122 522.5 176 c 128,-1,49
 554 230 554 230 575 299 c 0,50,51
 612 421 612 421 612 526 c 0,52,53
 612 736 612 736 498 792 c 1,54,-1
 306 50 l 1,55,-1
 326 50 l 2,46,47
EndSplineSet
EndChar

StartChar: Ugrave
Encoding: 217 217 157
Width: 741
GlyphClass: 2
Flags: W
LayerCount: 2
Fore
SplineSet
169 872 m 128,-1,1
 204 872 204 872 204 846 c 1,2,-1
 141 322 l 2,3,4
 134 262 134 262 134 228 c 0,5,6
 134 141 134 141 173.5 96.5 c 128,-1,7
 213 52 213 52 311 52 c 0,8,9
 375 52 375 52 416.5 70 c 128,-1,10
 458 88 458 88 481.5 128 c 128,-1,11
 505 168 505 168 515.5 210 c 128,-1,12
 526 252 526 252 535 322 c 2,13,-1
 599 846 l 1,14,15
 604 872 604 872 639.5 872 c 128,-1,16
 675 872 675 872 675 846 c 1,17,-1
 612 322 l 2,18,19
 601 235 601 235 584 178 c 128,-1,20
 567 121 567 121 534 75 c 0,21,22
 469 -14 469 -14 302 -14 c 0,23,24
 168 -14 168 -14 112 46.5 c 128,-1,25
 56 107 56 107 56 225 c 0,26,27
 56 261 56 261 63 322 c 2,28,-1
 129 846 l 1,29,0
 134 872 134 872 169 872 c 128,-1,1
513 944 m 2,30,31
 521 939 521 939 521 927.5 c 128,-1,32
 521 916 521 916 514 908 c 128,-1,33
 507 900 507 900 499 900 c 128,-1,34
 491 900 491 900 487 902 c 2,35,-1
 299 1001 l 2,36,37
 287 1008 287 1008 283 1013.5 c 128,-1,38
 279 1019 279 1019 279 1032.5 c 128,-1,39
 279 1046 279 1046 290 1060 c 128,-1,40
 301 1074 301 1074 313.5 1074 c 128,-1,41
 326 1074 326 1074 330 1071 c 2,42,-1
 513 944 l 2,30,31
EndSplineSet
EndChar

StartChar: Uacute
Encoding: 218 218 158
Width: 741
GlyphClass: 2
Flags: W
LayerCount: 2
Fore
SplineSet
169 872 m 128,-1,1
 204 872 204 872 204 846 c 1,2,-1
 141 322 l 2,3,4
 134 262 134 262 134 228 c 0,5,6
 134 141 134 141 173.5 96.5 c 128,-1,7
 213 52 213 52 311 52 c 0,8,9
 375 52 375 52 416.5 70 c 128,-1,10
 458 88 458 88 481.5 128 c 128,-1,11
 505 168 505 168 515.5 210 c 128,-1,12
 526 252 526 252 535 322 c 2,13,-1
 599 846 l 1,14,15
 604 872 604 872 639.5 872 c 128,-1,16
 675 872 675 872 675 846 c 1,17,-1
 612 322 l 2,18,19
 601 235 601 235 584 178 c 128,-1,20
 567 121 567 121 534 75 c 0,21,22
 469 -14 469 -14 302 -14 c 0,23,24
 168 -14 168 -14 112 46.5 c 128,-1,25
 56 107 56 107 56 225 c 0,26,27
 56 261 56 261 63 322 c 2,28,-1
 129 846 l 1,29,0
 134 872 134 872 169 872 c 128,-1,1
502 1071 m 2,30,31
 508 1074 508 1074 519 1074 c 128,-1,32
 530 1074 530 1074 541.5 1060 c 128,-1,33
 553 1046 553 1046 553 1032.5 c 128,-1,34
 553 1019 553 1019 549 1013.5 c 128,-1,35
 545 1008 545 1008 533 1001 c 2,36,-1
 345 902 l 2,37,38
 341 900 341 900 333 900 c 128,-1,39
 325 900 325 900 318 908 c 128,-1,40
 311 916 311 916 311 927.5 c 128,-1,41
 311 939 311 939 319 944 c 2,42,-1
 502 1071 l 2,30,31
EndSplineSet
EndChar

StartChar: Ucircumflex
Encoding: 219 219 159
Width: 741
GlyphClass: 2
Flags: W
LayerCount: 2
Fore
SplineSet
169 872 m 128,-1,1
 204 872 204 872 204 846 c 1,2,-1
 141 322 l 2,3,4
 134 262 134 262 134 228 c 0,5,6
 134 141 134 141 173.5 96.5 c 128,-1,7
 213 52 213 52 311 52 c 0,8,9
 375 52 375 52 416.5 70 c 128,-1,10
 458 88 458 88 481.5 128 c 128,-1,11
 505 168 505 168 515.5 210 c 128,-1,12
 526 252 526 252 535 322 c 2,13,-1
 599 846 l 1,14,15
 604 872 604 872 639.5 872 c 128,-1,16
 675 872 675 872 675 846 c 1,17,-1
 612 322 l 2,18,19
 601 235 601 235 584 178 c 128,-1,20
 567 121 567 121 534 75 c 0,21,22
 469 -14 469 -14 302 -14 c 0,23,24
 168 -14 168 -14 112 46.5 c 128,-1,25
 56 107 56 107 56 225 c 0,26,27
 56 261 56 261 63 322 c 2,28,-1
 129 846 l 1,29,0
 134 872 134 872 169 872 c 128,-1,1
315 905 m 2,30,31
 310 900 310 900 300.5 900 c 128,-1,32
 291 900 291 900 283.5 907.5 c 128,-1,33
 276 915 276 915 276 924 c 128,-1,34
 276 933 276 933 280 939 c 1,35,-1
 389 1055 l 2,36,37
 417 1086 417 1086 442.5 1086 c 128,-1,38
 468 1086 468 1086 481 1063 c 2,39,-1
 550 944 l 2,40,41
 556 934 556 934 556 925.5 c 128,-1,42
 556 917 556 917 546 908 c 128,-1,43
 536 899 536 899 526 899 c 128,-1,44
 516 899 516 899 506 912 c 2,45,-1
 437 1002 l 1,46,-1
 315 905 l 2,30,31
EndSplineSet
EndChar

StartChar: Udieresis
Encoding: 220 220 160
Width: 741
GlyphClass: 2
Flags: W
LayerCount: 2
Fore
SplineSet
169 872 m 128,-1,1
 204 872 204 872 204 846 c 1,2,-1
 141 322 l 2,3,4
 134 262 134 262 134 228 c 0,5,6
 134 141 134 141 173.5 96.5 c 128,-1,7
 213 52 213 52 311 52 c 0,8,9
 375 52 375 52 416.5 70 c 128,-1,10
 458 88 458 88 481.5 128 c 128,-1,11
 505 168 505 168 515.5 210 c 128,-1,12
 526 252 526 252 535 322 c 2,13,-1
 599 846 l 1,14,15
 604 872 604 872 639.5 872 c 128,-1,16
 675 872 675 872 675 846 c 1,17,-1
 612 322 l 2,18,19
 601 235 601 235 584 178 c 128,-1,20
 567 121 567 121 534 75 c 0,21,22
 469 -14 469 -14 302 -14 c 0,23,24
 168 -14 168 -14 112 46.5 c 128,-1,25
 56 107 56 107 56 225 c 0,26,27
 56 261 56 261 63 322 c 2,28,-1
 129 846 l 1,29,0
 134 872 134 872 169 872 c 128,-1,1
377 992 m 0,30,31
 377 930 377 930 320 930 c 0,32,33
 275 930 275 930 275 968 c 0,34,35
 275 1029 275 1029 332 1029 c 0,36,37
 377 1029 377 1029 377 992 c 0,30,31
569 992 m 0,38,39
 569 930 569 930 512 930 c 0,40,41
 467 930 467 930 467 968 c 0,42,43
 467 1029 467 1029 524 1029 c 0,44,45
 569 1029 569 1029 569 992 c 0,38,39
EndSplineSet
EndChar

StartChar: Yacute
Encoding: 221 221 161
Width: 596
GlyphClass: 2
Flags: W
LayerCount: 2
Fore
SplineSet
60 839 m 1,0,-1
 59 847 l 1,1,2
 59 872 59 872 99 872 c 0,3,4
 118 872 118 872 127 866 c 128,-1,5
 136 860 136 860 143 843 c 2,6,-1
 284 473 l 1,7,-1
 556 854 l 2,8,9
 569 872 569 872 595 872 c 0,10,11
 634 872 634 872 634 844 c 0,12,13
 634 826 634 826 623 812 c 2,14,-1
 312 393 l 1,15,-1
 265 18 l 2,16,17
 261 -14 261 -14 224.5 -14 c 128,-1,18
 188 -14 188 -14 188 9 c 0,19,20
 188 16 188 16 189 24 c 2,21,-1
 234 396 l 1,22,-1
 60 839 l 1,0,-1
450 1071 m 2,23,24
 456 1074 456 1074 467 1074 c 128,-1,25
 478 1074 478 1074 489.5 1060 c 128,-1,26
 501 1046 501 1046 501 1032.5 c 128,-1,27
 501 1019 501 1019 497 1013.5 c 128,-1,28
 493 1008 493 1008 481 1001 c 2,29,-1
 293 902 l 2,30,31
 289 900 289 900 281 900 c 128,-1,32
 273 900 273 900 266 908 c 128,-1,33
 259 916 259 916 259 927.5 c 128,-1,34
 259 939 259 939 267 944 c 2,35,-1
 450 1071 l 2,23,24
EndSplineSet
EndChar

StartChar: Thorn
Encoding: 222 222 162
Width: 644
GlyphClass: 2
Flags: W
LayerCount: 2
Fore
SplineSet
134 18 m 2,0,1
 130 -14 130 -14 93.5 -14 c 128,-1,2
 57 -14 57 -14 57 14 c 0,3,4
 57 17 57 17 158 840 c 0,5,6
 162 872 162 872 199 872 c 128,-1,7
 236 872 236 872 236 848 c 0,8,9
 236 843 236 843 217 694 c 1,10,11
 300 703 300 703 356 703 c 0,12,13
 477 703 477 703 548 647 c 128,-1,14
 619 591 619 591 619 485 c 0,15,16
 619 410 619 410 583.5 353 c 128,-1,17
 548 296 548 296 487 263 c 0,18,19
 367 198 367 198 194 198 c 0,20,21
 169 198 169 198 156 199 c 1,22,-1
 134 18 l 2,0,1
538 485 m 0,23,24
 538 561 538 561 489.5 600.5 c 128,-1,25
 441 640 441 640 363 640 c 128,-1,26
 285 640 285 640 209 630 c 1,27,-1
 165 268 l 1,28,29
 538 268 538 268 538 485 c 0,23,24
EndSplineSet
EndChar

StartChar: germandbls
Encoding: 223 223 163
Width: 680
GlyphClass: 2
Flags: W
LayerCount: 2
Fore
SplineSet
408 872 m 0,0,1
 490 872 490 872 545 820.5 c 128,-1,2
 600 769 600 769 600 677 c 0,3,4
 600 608 600 608 563 555.5 c 128,-1,5
 526 503 526 503 460 477 c 1,6,7
 525 454 525 454 570 386.5 c 128,-1,8
 615 319 615 319 615 249 c 0,9,10
 615 122 615 122 545.5 54 c 128,-1,11
 476 -14 476 -14 372 -14 c 0,12,13
 302 -14 302 -14 254 24.5 c 128,-1,14
 206 63 206 63 206 111 c 0,15,16
 206 141 206 141 232 141 c 0,17,18
 256 141 256 141 282 96 c 0,19,20
 292 78 292 78 317 64 c 128,-1,21
 342 50 342 50 379 50 c 0,22,23
 454 50 454 50 493.5 109 c 128,-1,24
 533 168 533 168 533 246.5 c 128,-1,25
 533 325 533 325 481 381.5 c 128,-1,26
 429 438 429 438 330 438 c 0,27,28
 318 438 318 438 309 447 c 128,-1,29
 300 456 300 456 300 470 c 0,30,31
 300 504 300 504 334 504 c 0,32,33
 403 504 403 504 458.5 550.5 c 128,-1,34
 514 597 514 597 514 677 c 0,35,36
 514 739 514 739 482.5 772 c 128,-1,37
 451 805 451 805 403 805 c 0,38,39
 321 805 321 805 271 746 c 128,-1,40
 221 687 221 687 203 541 c 2,41,-1
 117 -152 l 2,42,43
 113 -184 113 -184 76.5 -184 c 128,-1,44
 40 -184 40 -184 40 -156 c 0,45,46
 40 -154 40 -154 126 544 c 0,47,48
 148 721 148 721 219.5 796.5 c 128,-1,49
 291 872 291 872 408 872 c 0,0,1
EndSplineSet
EndChar

StartChar: agrave
Encoding: 224 224 164
Width: 531
GlyphClass: 2
Flags: W
LayerCount: 2
Fore
SplineSet
132 123 m 0,0,1
 132 93 132 93 152.5 72.5 c 128,-1,2
 173 52 173 52 207 52 c 0,3,4
 269 52 269 52 312 114.5 c 128,-1,5
 355 177 355 177 368 256 c 1,6,7
 240 246 240 246 186 212 c 128,-1,8
 132 178 132 178 132 123 c 0,0,1
463 392 m 0,9,10
 463 365 463 365 444.5 258.5 c 128,-1,11
 426 152 426 152 426 112 c 128,-1,12
 426 72 426 72 431.5 46 c 128,-1,13
 437 20 437 20 437 14 c 0,14,15
 437 2 437 2 417 -6 c 128,-1,16
 397 -14 397 -14 379 -14 c 0,17,18
 357 -14 357 -14 357 76 c 2,19,-1
 357 102 l 1,20,21
 328 45 328 45 280 15.5 c 128,-1,22
 232 -14 232 -14 179 -14 c 128,-1,23
 126 -14 126 -14 89.5 18 c 128,-1,24
 53 50 53 50 53 108 c 0,25,26
 53 191 53 191 129.5 248 c 128,-1,27
 206 305 206 305 381 316 c 1,28,29
 386 346 386 346 386 378 c 0,30,31
 386 440 386 440 294 440 c 0,32,33
 248 440 248 440 200.5 421 c 128,-1,34
 153 402 153 402 151 402 c 0,35,36
 138 402 138 402 130 417.5 c 128,-1,37
 122 433 122 433 122 450 c 128,-1,38
 122 467 122 467 184 487 c 128,-1,39
 246 507 246 507 307 507 c 128,-1,40
 368 507 368 507 415.5 479.5 c 128,-1,41
 463 452 463 452 463 392 c 0,9,10
438 637 m 2,42,43
 442 631 442 631 442 622 c 128,-1,44
 442 613 442 613 434.5 605.5 c 128,-1,45
 427 598 427 598 417.5 598 c 128,-1,46
 408 598 408 598 403 603 c 2,47,-1
 253 740 l 2,48,49
 240 752 240 752 240 766.5 c 128,-1,50
 240 781 240 781 253 793.5 c 128,-1,51
 266 806 266 806 280.5 806 c 128,-1,52
 295 806 295 806 301 799 c 2,53,-1
 438 637 l 2,42,43
EndSplineSet
EndChar

StartChar: aacute
Encoding: 225 225 165
Width: 531
GlyphClass: 2
Flags: W
LayerCount: 2
Fore
SplineSet
132 123 m 0,0,1
 132 93 132 93 152.5 72.5 c 128,-1,2
 173 52 173 52 207 52 c 0,3,4
 269 52 269 52 312 114.5 c 128,-1,5
 355 177 355 177 368 256 c 1,6,7
 240 246 240 246 186 212 c 128,-1,8
 132 178 132 178 132 123 c 0,0,1
463 392 m 0,9,10
 463 365 463 365 444.5 258.5 c 128,-1,11
 426 152 426 152 426 112 c 128,-1,12
 426 72 426 72 431.5 46 c 128,-1,13
 437 20 437 20 437 14 c 0,14,15
 437 2 437 2 417 -6 c 128,-1,16
 397 -14 397 -14 379 -14 c 0,17,18
 357 -14 357 -14 357 76 c 2,19,-1
 357 102 l 1,20,21
 328 45 328 45 280 15.5 c 128,-1,22
 232 -14 232 -14 179 -14 c 128,-1,23
 126 -14 126 -14 89.5 18 c 128,-1,24
 53 50 53 50 53 108 c 0,25,26
 53 191 53 191 129.5 248 c 128,-1,27
 206 305 206 305 381 316 c 1,28,29
 386 346 386 346 386 378 c 0,30,31
 386 440 386 440 294 440 c 0,32,33
 248 440 248 440 200.5 421 c 128,-1,34
 153 402 153 402 151 402 c 0,35,36
 138 402 138 402 130 417.5 c 128,-1,37
 122 433 122 433 122 450 c 128,-1,38
 122 467 122 467 184 487 c 128,-1,39
 246 507 246 507 307 507 c 128,-1,40
 368 507 368 507 415.5 479.5 c 128,-1,41
 463 452 463 452 463 392 c 0,9,10
358 799 m 2,42,43
 364 806 364 806 378.5 806 c 128,-1,44
 393 806 393 806 406 793.5 c 128,-1,45
 419 781 419 781 419 766.5 c 128,-1,46
 419 752 419 752 406 740 c 2,47,-1
 256 603 l 2,48,49
 251 598 251 598 241.5 598 c 128,-1,50
 232 598 232 598 224.5 605.5 c 128,-1,51
 217 613 217 613 217 622 c 128,-1,52
 217 631 217 631 221 637 c 2,53,-1
 358 799 l 2,42,43
EndSplineSet
EndChar

StartChar: acircumflex
Encoding: 226 226 166
Width: 501
GlyphClass: 2
Flags: W
LayerCount: 2
Fore
SplineSet
117 123 m 0,0,1
 117 93 117 93 137.5 72.5 c 128,-1,2
 158 52 158 52 192 52 c 0,3,4
 254 52 254 52 297 114.5 c 128,-1,5
 340 177 340 177 353 256 c 1,6,7
 225 246 225 246 171 212 c 128,-1,8
 117 178 117 178 117 123 c 0,0,1
448 392 m 0,9,10
 448 365 448 365 429.5 258.5 c 128,-1,11
 411 152 411 152 411 112 c 128,-1,12
 411 72 411 72 416.5 46 c 128,-1,13
 422 20 422 20 422 14 c 0,14,15
 422 2 422 2 402 -6 c 128,-1,16
 382 -14 382 -14 364 -14 c 0,17,18
 342 -14 342 -14 342 76 c 2,19,-1
 342 102 l 1,20,21
 313 45 313 45 265 15.5 c 128,-1,22
 217 -14 217 -14 164 -14 c 128,-1,23
 111 -14 111 -14 74.5 18 c 128,-1,24
 38 50 38 50 38 108 c 0,25,26
 38 191 38 191 114.5 248 c 128,-1,27
 191 305 191 305 366 316 c 1,28,29
 371 346 371 346 371 378 c 0,30,31
 371 440 371 440 279 440 c 0,32,33
 233 440 233 440 185.5 421 c 128,-1,34
 138 402 138 402 136 402 c 0,35,36
 123 402 123 402 115 417.5 c 128,-1,37
 107 433 107 433 107 450 c 128,-1,38
 107 467 107 467 169 487 c 128,-1,39
 231 507 231 507 292 507 c 128,-1,40
 353 507 353 507 400.5 479.5 c 128,-1,41
 448 452 448 452 448 392 c 0,9,10
184 603 m 2,42,43
 179 598 179 598 169.5 598 c 128,-1,44
 160 598 160 598 152.5 605.5 c 128,-1,45
 145 613 145 613 145 622 c 128,-1,46
 145 631 145 631 149 637 c 2,47,-1
 266 775 l 2,48,49
 267 776 267 776 270.5 780.5 c 128,-1,50
 274 785 274 785 276.5 787.5 c 128,-1,51
 279 790 279 790 283.5 794 c 128,-1,52
 288 798 288 798 292 800 c 0,53,54
 306 806 306 806 317 806 c 0,55,56
 345 806 345 806 358 783 c 2,57,-1
 443 643 l 2,58,59
 449 633 449 633 449 624.5 c 128,-1,60
 449 616 449 616 439 607 c 128,-1,61
 429 598 429 598 419 598 c 128,-1,62
 409 598 409 598 399 611 c 2,63,-1
 314 722 l 1,64,-1
 184 603 l 2,42,43
EndSplineSet
EndChar

StartChar: atilde
Encoding: 227 227 167
Width: 531
GlyphClass: 2
Flags: W
LayerCount: 2
Fore
SplineSet
132 123 m 0,0,1
 132 93 132 93 152.5 72.5 c 128,-1,2
 173 52 173 52 207 52 c 0,3,4
 269 52 269 52 312 114.5 c 128,-1,5
 355 177 355 177 368 256 c 1,6,7
 240 246 240 246 186 212 c 128,-1,8
 132 178 132 178 132 123 c 0,0,1
463 392 m 0,9,10
 463 365 463 365 444.5 258.5 c 128,-1,11
 426 152 426 152 426 112 c 128,-1,12
 426 72 426 72 431.5 46 c 128,-1,13
 437 20 437 20 437 14 c 0,14,15
 437 2 437 2 417 -6 c 128,-1,16
 397 -14 397 -14 379 -14 c 0,17,18
 357 -14 357 -14 357 76 c 2,19,-1
 357 102 l 1,20,21
 328 45 328 45 280 15.5 c 128,-1,22
 232 -14 232 -14 179 -14 c 128,-1,23
 126 -14 126 -14 89.5 18 c 128,-1,24
 53 50 53 50 53 108 c 0,25,26
 53 191 53 191 129.5 248 c 128,-1,27
 206 305 206 305 381 316 c 1,28,29
 386 346 386 346 386 378 c 0,30,31
 386 440 386 440 294 440 c 0,32,33
 248 440 248 440 200.5 421 c 128,-1,34
 153 402 153 402 151 402 c 0,35,36
 138 402 138 402 130 417.5 c 128,-1,37
 122 433 122 433 122 450 c 128,-1,38
 122 467 122 467 184 487 c 128,-1,39
 246 507 246 507 307 507 c 128,-1,40
 368 507 368 507 415.5 479.5 c 128,-1,41
 463 452 463 452 463 392 c 0,9,10
327 726 m 128,-1,43
 365 706 365 706 386.5 706 c 128,-1,44
 408 706 408 706 433.5 726 c 128,-1,45
 459 746 459 746 461 746 c 0,46,47
 490 746 490 746 490 715 c 0,48,49
 490 701 490 701 454 669 c 128,-1,50
 418 637 418 637 383 637 c 0,51,52
 364 637 364 637 326 657 c 128,-1,53
 288 677 288 677 266.5 677 c 128,-1,54
 245 677 245 677 219.5 657 c 128,-1,55
 194 637 194 637 192 637 c 0,56,57
 163 637 163 637 163 668 c 0,58,59
 163 682 163 682 199 714 c 128,-1,60
 235 746 235 746 270 746 c 0,61,42
 289 746 289 746 327 726 c 128,-1,43
EndSplineSet
EndChar

StartChar: adieresis
Encoding: 228 228 168
Width: 531
GlyphClass: 2
Flags: W
LayerCount: 2
Fore
SplineSet
132 123 m 0,0,1
 132 93 132 93 152.5 72.5 c 128,-1,2
 173 52 173 52 207 52 c 0,3,4
 269 52 269 52 312 114.5 c 128,-1,5
 355 177 355 177 368 256 c 1,6,7
 240 246 240 246 186 212 c 128,-1,8
 132 178 132 178 132 123 c 0,0,1
463 392 m 0,9,10
 463 365 463 365 444.5 258.5 c 128,-1,11
 426 152 426 152 426 112 c 128,-1,12
 426 72 426 72 431.5 46 c 128,-1,13
 437 20 437 20 437 14 c 0,14,15
 437 2 437 2 417 -6 c 128,-1,16
 397 -14 397 -14 379 -14 c 0,17,18
 357 -14 357 -14 357 76 c 2,19,-1
 357 102 l 1,20,21
 328 45 328 45 280 15.5 c 128,-1,22
 232 -14 232 -14 179 -14 c 128,-1,23
 126 -14 126 -14 89.5 18 c 128,-1,24
 53 50 53 50 53 108 c 0,25,26
 53 191 53 191 129.5 248 c 128,-1,27
 206 305 206 305 381 316 c 1,28,29
 386 346 386 346 386 378 c 0,30,31
 386 440 386 440 294 440 c 0,32,33
 248 440 248 440 200.5 421 c 128,-1,34
 153 402 153 402 151 402 c 0,35,36
 138 402 138 402 130 417.5 c 128,-1,37
 122 433 122 433 122 450 c 128,-1,38
 122 467 122 467 184 487 c 128,-1,39
 246 507 246 507 307 507 c 128,-1,40
 368 507 368 507 415.5 479.5 c 128,-1,41
 463 452 463 452 463 392 c 0,9,10
286 692 m 0,42,43
 286 630 286 630 229 630 c 0,44,45
 184 630 184 630 184 668 c 0,46,47
 184 729 184 729 241 729 c 0,48,49
 286 729 286 729 286 692 c 0,42,43
478 692 m 0,50,51
 478 630 478 630 421 630 c 0,52,53
 376 630 376 630 376 668 c 0,54,55
 376 729 376 729 433 729 c 0,56,57
 478 729 478 729 478 692 c 0,50,51
EndSplineSet
EndChar

StartChar: aring
Encoding: 229 229 169
Width: 501
GlyphClass: 2
Flags: W
LayerCount: 2
Fore
SplineSet
117 123 m 0,0,1
 117 93 117 93 137.5 72.5 c 128,-1,2
 158 52 158 52 192 52 c 0,3,4
 254 52 254 52 297 114.5 c 128,-1,5
 340 177 340 177 353 256 c 1,6,7
 225 246 225 246 171 212 c 128,-1,8
 117 178 117 178 117 123 c 0,0,1
448 392 m 0,9,10
 448 365 448 365 429.5 258.5 c 128,-1,11
 411 152 411 152 411 112 c 128,-1,12
 411 72 411 72 416.5 46 c 128,-1,13
 422 20 422 20 422 14 c 0,14,15
 422 2 422 2 402 -6 c 128,-1,16
 382 -14 382 -14 364 -14 c 0,17,18
 342 -14 342 -14 342 76 c 2,19,-1
 342 102 l 1,20,21
 313 45 313 45 265 15.5 c 128,-1,22
 217 -14 217 -14 164 -14 c 128,-1,23
 111 -14 111 -14 74.5 18 c 128,-1,24
 38 50 38 50 38 108 c 0,25,26
 38 191 38 191 114.5 248 c 128,-1,27
 191 305 191 305 366 316 c 1,28,29
 371 346 371 346 371 378 c 0,30,31
 371 440 371 440 279 440 c 0,32,33
 233 440 233 440 185.5 421 c 128,-1,34
 138 402 138 402 136 402 c 0,35,36
 123 402 123 402 115 417.5 c 128,-1,37
 107 433 107 433 107 450 c 128,-1,38
 107 467 107 467 169 487 c 128,-1,39
 231 507 231 507 292 507 c 128,-1,40
 353 507 353 507 400.5 479.5 c 128,-1,41
 448 452 448 452 448 392 c 0,9,10
237 610.5 m 128,-1,43
 213 638 213 638 213 683.5 c 128,-1,44
 213 729 213 729 244.5 769 c 128,-1,45
 276 809 276 809 329 809 c 128,-1,46
 382 809 382 809 406.5 780.5 c 128,-1,47
 431 752 431 752 431 705 c 128,-1,48
 431 658 431 658 396.5 620.5 c 128,-1,49
 362 583 362 583 311.5 583 c 128,-1,42
 261 583 261 583 237 610.5 c 128,-1,43
268 685 m 0,50,51
 268 632 268 632 313 632 c 0,52,53
 340 632 340 632 358.5 653.5 c 128,-1,54
 377 675 377 675 377 704 c 0,55,56
 377 758 377 758 332 758 c 0,57,58
 302 758 302 758 285 735.5 c 128,-1,59
 268 713 268 713 268 685 c 0,50,51
EndSplineSet
EndChar

StartChar: ae
Encoding: 230 230 170
Width: 759
GlyphClass: 2
Flags: W
LayerCount: 2
Fore
SplineSet
564 -14 m 0,0,1
 402 -14 402 -14 369 128 c 1,2,3
 330 62 330 62 277.5 24 c 128,-1,4
 225 -14 225 -14 168 -14 c 128,-1,5
 111 -14 111 -14 74.5 18 c 128,-1,6
 38 50 38 50 38 113.5 c 128,-1,7
 38 177 38 177 92.5 233.5 c 128,-1,8
 147 290 147 290 248 290 c 0,9,10
 301 290 301 290 357 276 c 1,11,12
 371 360 371 360 371 378 c 0,13,14
 371 440 371 440 279 440 c 0,15,16
 233 440 233 440 185.5 421 c 128,-1,17
 138 402 138 402 136 402 c 0,18,19
 123 402 123 402 115 417.5 c 128,-1,20
 107 433 107 433 107 450 c 128,-1,21
 107 467 107 467 169 487 c 128,-1,22
 231 507 231 507 282 507 c 0,23,24
 418 507 418 507 435 418 c 1,25,26
 474 461 474 461 524.5 484 c 128,-1,27
 575 507 575 507 627 507 c 128,-1,28
 679 507 679 507 714 480.5 c 128,-1,29
 749 454 749 454 749 405 c 0,30,31
 749 317 749 317 660 265 c 128,-1,32
 571 213 571 213 432 213 c 1,33,34
 432 137 432 137 467 92.5 c 128,-1,35
 502 48 502 48 568 48 c 0,36,37
 599 48 599 48 628 61 c 128,-1,38
 657 74 657 74 674 88 c 2,39,-1
 691 101 l 1,40,41
 702 101 702 101 710 86 c 128,-1,42
 718 71 718 71 718 56 c 0,43,44
 718 38 718 38 665.5 12 c 128,-1,45
 613 -14 613 -14 564 -14 c 0,0,1
351 223 m 1,46,47
 303 235 303 235 250.5 235 c 128,-1,48
 198 235 198 235 157.5 208.5 c 128,-1,49
 117 182 117 182 117 123 c 0,50,51
 117 93 117 93 137.5 72.5 c 128,-1,52
 158 52 158 52 192 52 c 0,53,54
 253 52 253 52 295 106.5 c 128,-1,55
 337 161 337 161 351 223 c 1,46,47
676 395 m 0,56,57
 676 420 676 420 660.5 433.5 c 128,-1,58
 645 447 645 447 620 447 c 0,59,60
 566 447 566 447 508 397.5 c 128,-1,61
 450 348 450 348 436 265 c 1,62,63
 529 265 529 265 602.5 302 c 128,-1,64
 676 339 676 339 676 395 c 0,56,57
EndSplineSet
EndChar

StartChar: ccedilla
Encoding: 231 231 171
Width: 457
GlyphClass: 2
Flags: W
LayerCount: 2
Fore
SplineSet
319 507 m 0,0,1
 374 507 374 507 413 486 c 128,-1,2
 452 465 452 465 452 447 c 0,3,4
 452 432 452 432 440.5 418.5 c 128,-1,5
 429 405 429 405 420 405 c 128,-1,6
 411 405 411 405 400 415 c 0,7,8
 367 445 367 445 318 445 c 128,-1,9
 269 445 269 445 232.5 424 c 128,-1,10
 196 403 196 403 176 368 c 0,11,12
 135 297 135 297 135 214.5 c 128,-1,13
 135 132 135 132 169.5 90 c 128,-1,14
 204 48 204 48 270 48 c 0,15,16
 300 48 300 48 329.5 61 c 128,-1,17
 359 74 359 74 376 87.5 c 128,-1,18
 393 101 393 101 394 101 c 0,19,20
 405 101 405 101 412.5 86 c 128,-1,21
 420 71 420 71 420 56 c 0,22,23
 420 38 420 38 367.5 12 c 128,-1,24
 315 -14 315 -14 266 -14 c 0,25,26
 251 -14 251 -14 244 -13 c 1,27,-1
 227 -71 l 1,28,29
 282 -71 282 -71 320.5 -99.5 c 128,-1,30
 359 -128 359 -128 359 -190 c 128,-1,31
 359 -252 359 -252 318.5 -286 c 128,-1,32
 278 -320 278 -320 221.5 -320 c 128,-1,33
 165 -320 165 -320 131.5 -293.5 c 128,-1,34
 98 -267 98 -267 98 -235 c 0,35,36
 98 -222 98 -222 105 -212.5 c 128,-1,37
 112 -203 112 -203 128 -203 c 128,-1,38
 144 -203 144 -203 153 -222 c 128,-1,39
 162 -241 162 -241 177 -253 c 128,-1,40
 192 -265 192 -265 224 -265 c 128,-1,41
 256 -265 256 -265 276.5 -244.5 c 128,-1,42
 297 -224 297 -224 297 -193 c 0,43,44
 297 -124 297 -124 206 -124 c 0,45,46
 174 -124 174 -124 174 -101 c 0,47,48
 174 -90 174 -90 179 -72 c 2,49,-1
 198 -6 l 1,50,51
 53 29 53 29 53 209 c 0,52,53
 53 328 53 328 126 417.5 c 128,-1,54
 199 507 199 507 319 507 c 0,0,1
EndSplineSet
EndChar

StartChar: egrave
Encoding: 232 232 172
Width: 461
GlyphClass: 2
Flags: W
LayerCount: 2
Fore
SplineSet
378 395 m 0,0,1
 378 420 378 420 362.5 433.5 c 128,-1,2
 347 447 347 447 322 447 c 0,3,4
 268 447 268 447 210 397.5 c 128,-1,5
 152 348 152 348 138 265 c 1,6,7
 231 265 231 265 304.5 302 c 128,-1,8
 378 339 378 339 378 395 c 0,0,1
53 207 m 0,9,10
 53 280 53 280 80 340 c 128,-1,11
 107 400 107 400 148 435 c 0,12,13
 234 507 234 507 326 507 c 0,14,15
 381 507 381 507 416 480.5 c 128,-1,16
 451 454 451 454 451 405 c 0,17,18
 451 317 451 317 359.5 261.5 c 128,-1,19
 268 206 268 206 134 206 c 1,20,21
 134 131 134 131 169 89.5 c 128,-1,22
 204 48 204 48 270 48 c 0,23,24
 301 48 301 48 330 61 c 128,-1,25
 359 74 359 74 376 88 c 2,26,-1
 393 101 l 1,27,28
 404 101 404 101 412 86 c 128,-1,29
 420 71 420 71 420 56 c 0,30,31
 420 38 420 38 367.5 12 c 128,-1,32
 315 -14 315 -14 266 -14 c 0,33,34
 162 -14 162 -14 107.5 43.5 c 128,-1,35
 53 101 53 101 53 207 c 0,9,10
418 637 m 2,36,37
 422 631 422 631 422 622 c 128,-1,38
 422 613 422 613 414.5 605.5 c 128,-1,39
 407 598 407 598 397.5 598 c 128,-1,40
 388 598 388 598 383 603 c 2,41,-1
 233 740 l 2,42,43
 220 752 220 752 220 766.5 c 128,-1,44
 220 781 220 781 233 793.5 c 128,-1,45
 246 806 246 806 260.5 806 c 128,-1,46
 275 806 275 806 281 799 c 2,47,-1
 418 637 l 2,36,37
EndSplineSet
EndChar

StartChar: eacute
Encoding: 233 233 173
Width: 461
GlyphClass: 2
Flags: W
LayerCount: 2
Fore
SplineSet
378 395 m 0,0,1
 378 420 378 420 362.5 433.5 c 128,-1,2
 347 447 347 447 322 447 c 0,3,4
 268 447 268 447 210 397.5 c 128,-1,5
 152 348 152 348 138 265 c 1,6,7
 231 265 231 265 304.5 302 c 128,-1,8
 378 339 378 339 378 395 c 0,0,1
53 207 m 0,9,10
 53 280 53 280 80 340 c 128,-1,11
 107 400 107 400 148 435 c 0,12,13
 234 507 234 507 326 507 c 0,14,15
 381 507 381 507 416 480.5 c 128,-1,16
 451 454 451 454 451 405 c 0,17,18
 451 317 451 317 359.5 261.5 c 128,-1,19
 268 206 268 206 134 206 c 1,20,21
 134 131 134 131 169 89.5 c 128,-1,22
 204 48 204 48 270 48 c 0,23,24
 301 48 301 48 330 61 c 128,-1,25
 359 74 359 74 376 88 c 2,26,-1
 393 101 l 1,27,28
 404 101 404 101 412 86 c 128,-1,29
 420 71 420 71 420 56 c 0,30,31
 420 38 420 38 367.5 12 c 128,-1,32
 315 -14 315 -14 266 -14 c 0,33,34
 162 -14 162 -14 107.5 43.5 c 128,-1,35
 53 101 53 101 53 207 c 0,9,10
335 799 m 2,36,37
 341 806 341 806 355.5 806 c 128,-1,38
 370 806 370 806 383 793.5 c 128,-1,39
 396 781 396 781 396 766.5 c 128,-1,40
 396 752 396 752 383 740 c 2,41,-1
 233 603 l 2,42,43
 228 598 228 598 218.5 598 c 128,-1,44
 209 598 209 598 201.5 605.5 c 128,-1,45
 194 613 194 613 194 622 c 128,-1,46
 194 631 194 631 198 637 c 2,47,-1
 335 799 l 2,36,37
EndSplineSet
EndChar

StartChar: ecircumflex
Encoding: 234 234 174
Width: 461
GlyphClass: 2
Flags: W
LayerCount: 2
Fore
SplineSet
378 395 m 0,0,1
 378 420 378 420 362.5 433.5 c 128,-1,2
 347 447 347 447 322 447 c 0,3,4
 268 447 268 447 210 397.5 c 128,-1,5
 152 348 152 348 138 265 c 1,6,7
 231 265 231 265 304.5 302 c 128,-1,8
 378 339 378 339 378 395 c 0,0,1
53 207 m 0,9,10
 53 280 53 280 80 340 c 128,-1,11
 107 400 107 400 148 435 c 0,12,13
 234 507 234 507 326 507 c 0,14,15
 381 507 381 507 416 480.5 c 128,-1,16
 451 454 451 454 451 405 c 0,17,18
 451 317 451 317 359.5 261.5 c 128,-1,19
 268 206 268 206 134 206 c 1,20,21
 134 131 134 131 169 89.5 c 128,-1,22
 204 48 204 48 270 48 c 0,23,24
 301 48 301 48 330 61 c 128,-1,25
 359 74 359 74 376 88 c 2,26,-1
 393 101 l 1,27,28
 404 101 404 101 412 86 c 128,-1,29
 420 71 420 71 420 56 c 0,30,31
 420 38 420 38 367.5 12 c 128,-1,32
 315 -14 315 -14 266 -14 c 0,33,34
 162 -14 162 -14 107.5 43.5 c 128,-1,35
 53 101 53 101 53 207 c 0,9,10
187 603 m 2,36,37
 182 598 182 598 172.5 598 c 128,-1,38
 163 598 163 598 155.5 605.5 c 128,-1,39
 148 613 148 613 148 622 c 128,-1,40
 148 631 148 631 152 637 c 2,41,-1
 269 775 l 2,42,43
 270 776 270 776 273.5 780.5 c 128,-1,44
 277 785 277 785 279.5 787.5 c 128,-1,45
 282 790 282 790 286.5 794 c 128,-1,46
 291 798 291 798 296 800 c 0,47,48
 309 806 309 806 320 806 c 0,49,50
 348 806 348 806 361 783 c 2,51,-1
 446 643 l 2,52,53
 452 633 452 633 452 624.5 c 128,-1,54
 452 616 452 616 442 607 c 128,-1,55
 432 598 432 598 422 598 c 128,-1,56
 412 598 412 598 402 611 c 2,57,-1
 317 722 l 1,58,-1
 187 603 l 2,36,37
EndSplineSet
EndChar

StartChar: edieresis
Encoding: 235 235 175
Width: 461
GlyphClass: 2
Flags: W
LayerCount: 2
Fore
SplineSet
378 395 m 0,0,1
 378 420 378 420 362.5 433.5 c 128,-1,2
 347 447 347 447 322 447 c 0,3,4
 268 447 268 447 210 397.5 c 128,-1,5
 152 348 152 348 138 265 c 1,6,7
 231 265 231 265 304.5 302 c 128,-1,8
 378 339 378 339 378 395 c 0,0,1
53 207 m 0,9,10
 53 280 53 280 80 340 c 128,-1,11
 107 400 107 400 148 435 c 0,12,13
 234 507 234 507 326 507 c 0,14,15
 381 507 381 507 416 480.5 c 128,-1,16
 451 454 451 454 451 405 c 0,17,18
 451 317 451 317 359.5 261.5 c 128,-1,19
 268 206 268 206 134 206 c 1,20,21
 134 131 134 131 169 89.5 c 128,-1,22
 204 48 204 48 270 48 c 0,23,24
 301 48 301 48 330 61 c 128,-1,25
 359 74 359 74 376 88 c 2,26,-1
 393 101 l 1,27,28
 404 101 404 101 412 86 c 128,-1,29
 420 71 420 71 420 56 c 0,30,31
 420 38 420 38 367.5 12 c 128,-1,32
 315 -14 315 -14 266 -14 c 0,33,34
 162 -14 162 -14 107.5 43.5 c 128,-1,35
 53 101 53 101 53 207 c 0,9,10
265 692 m 0,36,37
 265 630 265 630 208 630 c 0,38,39
 163 630 163 630 163 668 c 0,40,41
 163 729 163 729 220 729 c 0,42,43
 265 729 265 729 265 692 c 0,36,37
457 692 m 0,44,45
 457 630 457 630 400 630 c 0,46,47
 355 630 355 630 355 668 c 0,48,49
 355 729 355 729 412 729 c 0,50,51
 457 729 457 729 457 692 c 0,44,45
EndSplineSet
EndChar

StartChar: igrave
Encoding: 236 236 176
Width: 274
GlyphClass: 2
Flags: W
LayerCount: 2
Fore
SplineSet
111 -14 m 0,0,1
 96 -14 96 -14 90 -10 c 128,-1,2
 84 -6 84 -6 84 6 c 1,3,-1
 141 482 l 2,4,5
 144 507 144 507 180 507 c 128,-1,6
 216 507 216 507 216 487 c 1,7,-1
 158 11 l 2,8,9
 155 -14 155 -14 111 -14 c 0,0,1
315 637 m 2,10,11
 319 631 319 631 319 622 c 128,-1,12
 319 613 319 613 311.5 605.5 c 128,-1,13
 304 598 304 598 294.5 598 c 128,-1,14
 285 598 285 598 280 603 c 2,15,-1
 130 740 l 2,16,17
 117 752 117 752 117 766.5 c 128,-1,18
 117 781 117 781 130 793.5 c 128,-1,19
 143 806 143 806 157.5 806 c 128,-1,20
 172 806 172 806 178 799 c 2,21,-1
 315 637 l 2,10,11
EndSplineSet
EndChar

StartChar: iacute
Encoding: 237 237 177
Width: 271
GlyphClass: 2
Flags: W
LayerCount: 2
Fore
SplineSet
111 -14 m 0,0,1
 96 -14 96 -14 90 -10 c 128,-1,2
 84 -6 84 -6 84 6 c 1,3,-1
 141 482 l 2,4,5
 144 507 144 507 180 507 c 128,-1,6
 216 507 216 507 216 487 c 1,7,-1
 158 11 l 2,8,9
 155 -14 155 -14 111 -14 c 0,0,1
237 799 m 2,10,11
 243 806 243 806 257.5 806 c 128,-1,12
 272 806 272 806 285 793.5 c 128,-1,13
 298 781 298 781 298 766.5 c 128,-1,14
 298 752 298 752 285 740 c 2,15,-1
 135 603 l 2,16,17
 130 598 130 598 120.5 598 c 128,-1,18
 111 598 111 598 103.5 605.5 c 128,-1,19
 96 613 96 613 96 622 c 128,-1,20
 96 631 96 631 100 637 c 2,21,-1
 237 799 l 2,10,11
EndSplineSet
EndChar

StartChar: icircumflex
Encoding: 238 238 178
Width: 244
GlyphClass: 2
Flags: W
LayerCount: 2
Fore
SplineSet
96 -14 m 0,0,1
 81 -14 81 -14 75 -10 c 128,-1,2
 69 -6 69 -6 69 6 c 1,3,-1
 126 482 l 2,4,5
 129 507 129 507 165 507 c 128,-1,6
 201 507 201 507 201 487 c 1,7,-1
 143 11 l 2,8,9
 140 -14 140 -14 96 -14 c 0,0,1
52 603 m 2,10,11
 47 598 47 598 37.5 598 c 128,-1,12
 28 598 28 598 20.5 605.5 c 128,-1,13
 13 613 13 613 13 622 c 128,-1,14
 13 631 13 631 17 637 c 2,15,-1
 134 775 l 2,16,17
 135 776 135 776 138.5 780.5 c 128,-1,18
 142 785 142 785 144.5 787.5 c 128,-1,19
 147 790 147 790 151.5 794 c 128,-1,20
 156 798 156 798 160 800 c 0,21,22
 174 806 174 806 185 806 c 0,23,24
 213 806 213 806 226 783 c 2,25,-1
 311 643 l 2,26,27
 317 633 317 633 317 624.5 c 128,-1,28
 317 616 317 616 307 607 c 128,-1,29
 297 598 297 598 287 598 c 128,-1,30
 277 598 277 598 267 611 c 2,31,-1
 182 722 l 1,32,-1
 52 603 l 2,10,11
EndSplineSet
EndChar

StartChar: idieresis
Encoding: 239 239 179
Width: 274
GlyphClass: 2
Flags: W
LayerCount: 2
Fore
SplineSet
111 -14 m 0,0,1
 96 -14 96 -14 90 -10 c 128,-1,2
 84 -6 84 -6 84 6 c 1,3,-1
 141 482 l 2,4,5
 144 507 144 507 180 507 c 128,-1,6
 216 507 216 507 216 487 c 1,7,-1
 158 11 l 2,8,9
 155 -14 155 -14 111 -14 c 0,0,1
165 692 m 0,10,11
 165 630 165 630 108 630 c 0,12,13
 63 630 63 630 63 668 c 0,14,15
 63 729 63 729 120 729 c 0,16,17
 165 729 165 729 165 692 c 0,10,11
357 692 m 0,18,19
 357 630 357 630 300 630 c 0,20,21
 255 630 255 630 255 668 c 0,22,23
 255 729 255 729 312 729 c 0,24,25
 357 729 357 729 357 692 c 0,18,19
EndSplineSet
EndChar

StartChar: eth
Encoding: 240 240 180
Width: 553
GlyphClass: 2
Flags: W
LayerCount: 2
Fore
SplineSet
178 791 m 0,0,1
 156 791 156 791 136 783.5 c 128,-1,2
 116 776 116 776 105.5 776 c 128,-1,3
 95 776 95 776 87.5 785.5 c 128,-1,4
 80 795 80 795 80 810 c 0,5,6
 80 835 80 835 113.5 846.5 c 128,-1,7
 147 858 147 858 181 858 c 0,8,9
 305 858 305 858 396 739 c 1,10,-1
 485 784 l 2,11,12
 501 792 501 792 508 792 c 128,-1,13
 515 792 515 792 522.5 781 c 128,-1,14
 530 770 530 770 530 756 c 128,-1,15
 530 742 530 742 516 735 c 2,16,-1
 428 690 l 1,17,18
 513 543 513 543 513 348 c 0,19,20
 513 198 513 198 452 96 c 0,21,22
 421 45 421 45 369 15.5 c 128,-1,23
 317 -14 317 -14 249 -14 c 0,24,25
 156 -14 156 -14 104.5 50 c 128,-1,26
 53 114 53 114 53 207 c 0,27,28
 53 316 53 316 114 407 c 0,29,30
 145 452 145 452 197.5 479.5 c 128,-1,31
 250 507 250 507 321.5 507 c 128,-1,32
 393 507 393 507 435 460 c 1,33,34
 419 577 419 577 367 660 c 1,35,-1
 283 617 l 2,36,37
 267 609 267 609 260 609 c 128,-1,38
 253 609 253 609 245.5 620 c 128,-1,39
 238 631 238 631 238 645 c 128,-1,40
 238 659 238 659 252 666 c 2,41,-1
 333 707 l 1,42,43
 261 791 261 791 178 791 c 0,0,1
151 321.5 m 128,-1,45
 133 271 133 271 133 205.5 c 128,-1,46
 133 140 133 140 164 94 c 128,-1,47
 195 48 195 48 264.5 48 c 128,-1,48
 334 48 334 48 385 115 c 128,-1,49
 436 182 436 182 436 266 c 128,-1,50
 436 350 436 350 404 397.5 c 128,-1,51
 372 445 372 445 312.5 445 c 128,-1,52
 253 445 253 445 211 408.5 c 128,-1,44
 169 372 169 372 151 321.5 c 128,-1,45
EndSplineSet
EndChar

StartChar: ntilde
Encoding: 241 241 181
Width: 599
GlyphClass: 2
Flags: W
LayerCount: 2
Fore
SplineSet
449 353 m 1,0,-1
 451 368 l 1,1,2
 451 441 451 441 361 441 c 0,3,4
 287 441 287 441 241 373.5 c 128,-1,5
 195 306 195 306 181 195 c 2,6,-1
 158 11 l 2,7,8
 155 -14 155 -14 111 -14 c 0,9,10
 96 -14 96 -14 90 -10 c 128,-1,11
 84 -6 84 -6 84 6 c 1,12,-1
 141 482 l 2,13,14
 144 507 144 507 180 507 c 128,-1,15
 216 507 216 507 216 487 c 1,16,-1
 207 417 l 1,17,-1
 213 417 l 1,18,19
 275 507 275 507 371 507 c 0,20,21
 447 507 447 507 487.5 471.5 c 128,-1,22
 528 436 528 436 528 374 c 0,23,24
 528 365 528 365 482 11 c 0,25,26
 479 -14 479 -14 433 -14 c 0,27,28
 407 -14 407 -14 407 6 c 1,29,-1
 449 353 l 1,0,-1
374 726 m 128,-1,31
 412 706 412 706 433.5 706 c 128,-1,32
 455 706 455 706 480.5 726 c 128,-1,33
 506 746 506 746 508 746 c 0,34,35
 537 746 537 746 537 715 c 0,36,37
 537 701 537 701 501 669 c 128,-1,38
 465 637 465 637 430 637 c 0,39,40
 411 637 411 637 373 657 c 128,-1,41
 335 677 335 677 313.5 677 c 128,-1,42
 292 677 292 677 266.5 657 c 128,-1,43
 241 637 241 637 239 637 c 0,44,45
 210 637 210 637 210 668 c 0,46,47
 210 682 210 682 246 714 c 128,-1,48
 282 746 282 746 317 746 c 0,49,30
 336 746 336 746 374 726 c 128,-1,31
EndSplineSet
EndChar

StartChar: ograve
Encoding: 242 242 182
Width: 545
GlyphClass: 2
Flags: W
LayerCount: 2
Fore
SplineSet
317 507 m 0,0,1
 410 507 410 507 461.5 442 c 128,-1,2
 513 377 513 377 513 283 c 0,3,4
 513 159 513 159 439.5 72.5 c 128,-1,5
 366 -14 366 -14 249 -14 c 0,6,7
 156 -14 156 -14 105.5 49.5 c 128,-1,8
 55 113 55 113 53 207 c 1,9,10
 53 316 53 316 114 407 c 0,11,12
 145 452 145 452 197.5 479.5 c 128,-1,13
 250 507 250 507 317 507 c 0,0,1
151 321.5 m 128,-1,15
 133 271 133 271 133 205.5 c 128,-1,16
 133 140 133 140 164 94 c 128,-1,17
 195 48 195 48 264.5 48 c 128,-1,18
 334 48 334 48 385 115 c 128,-1,19
 436 182 436 182 436 266 c 128,-1,20
 436 350 436 350 404 397.5 c 128,-1,21
 372 445 372 445 312.5 445 c 128,-1,22
 253 445 253 445 211 408.5 c 128,-1,14
 169 372 169 372 151 321.5 c 128,-1,15
449 637 m 2,23,24
 453 631 453 631 453 622 c 128,-1,25
 453 613 453 613 445.5 605.5 c 128,-1,26
 438 598 438 598 428.5 598 c 128,-1,27
 419 598 419 598 414 603 c 2,28,-1
 264 740 l 2,29,30
 251 752 251 752 251 766.5 c 128,-1,31
 251 781 251 781 264 793.5 c 128,-1,32
 277 806 277 806 291.5 806 c 128,-1,33
 306 806 306 806 312 799 c 2,34,-1
 449 637 l 2,23,24
EndSplineSet
EndChar

StartChar: oacute
Encoding: 243 243 183
Width: 545
GlyphClass: 2
Flags: W
LayerCount: 2
Fore
SplineSet
317 507 m 0,0,1
 410 507 410 507 461.5 442 c 128,-1,2
 513 377 513 377 513 283 c 0,3,4
 513 159 513 159 439.5 72.5 c 128,-1,5
 366 -14 366 -14 249 -14 c 0,6,7
 156 -14 156 -14 105.5 49.5 c 128,-1,8
 55 113 55 113 53 207 c 1,9,10
 53 316 53 316 114 407 c 0,11,12
 145 452 145 452 197.5 479.5 c 128,-1,13
 250 507 250 507 317 507 c 0,0,1
151 321.5 m 128,-1,15
 133 271 133 271 133 205.5 c 128,-1,16
 133 140 133 140 164 94 c 128,-1,17
 195 48 195 48 264.5 48 c 128,-1,18
 334 48 334 48 385 115 c 128,-1,19
 436 182 436 182 436 266 c 128,-1,20
 436 350 436 350 404 397.5 c 128,-1,21
 372 445 372 445 312.5 445 c 128,-1,22
 253 445 253 445 211 408.5 c 128,-1,14
 169 372 169 372 151 321.5 c 128,-1,15
370 799 m 2,23,24
 376 806 376 806 390.5 806 c 128,-1,25
 405 806 405 806 418 793.5 c 128,-1,26
 431 781 431 781 431 766.5 c 128,-1,27
 431 752 431 752 418 740 c 2,28,-1
 268 603 l 2,29,30
 263 598 263 598 253.5 598 c 128,-1,31
 244 598 244 598 236.5 605.5 c 128,-1,32
 229 613 229 613 229 622 c 128,-1,33
 229 631 229 631 233 637 c 2,34,-1
 370 799 l 2,23,24
EndSplineSet
EndChar

StartChar: ocircumflex
Encoding: 244 244 184
Width: 545
GlyphClass: 2
Flags: W
LayerCount: 2
Fore
SplineSet
317 507 m 0,0,1
 410 507 410 507 461.5 442 c 128,-1,2
 513 377 513 377 513 283 c 0,3,4
 513 159 513 159 439.5 72.5 c 128,-1,5
 366 -14 366 -14 249 -14 c 0,6,7
 156 -14 156 -14 105.5 49.5 c 128,-1,8
 55 113 55 113 53 207 c 1,9,10
 53 316 53 316 114 407 c 0,11,12
 145 452 145 452 197.5 479.5 c 128,-1,13
 250 507 250 507 317 507 c 0,0,1
151 321.5 m 128,-1,15
 133 271 133 271 133 205.5 c 128,-1,16
 133 140 133 140 164 94 c 128,-1,17
 195 48 195 48 264.5 48 c 128,-1,18
 334 48 334 48 385 115 c 128,-1,19
 436 182 436 182 436 266 c 128,-1,20
 436 350 436 350 404 397.5 c 128,-1,21
 372 445 372 445 312.5 445 c 128,-1,22
 253 445 253 445 211 408.5 c 128,-1,14
 169 372 169 372 151 321.5 c 128,-1,15
216 603 m 2,23,24
 211 598 211 598 201.5 598 c 128,-1,25
 192 598 192 598 184.5 605.5 c 128,-1,26
 177 613 177 613 177 622 c 128,-1,27
 177 631 177 631 181 637 c 2,28,-1
 298 775 l 2,29,30
 299 776 299 776 302.5 780.5 c 128,-1,31
 306 785 306 785 308.5 787.5 c 128,-1,32
 311 790 311 790 315.5 794 c 128,-1,33
 320 798 320 798 324 800 c 0,34,35
 338 806 338 806 349 806 c 0,36,37
 377 806 377 806 390 783 c 2,38,-1
 475 643 l 2,39,40
 481 633 481 633 481 624.5 c 128,-1,41
 481 616 481 616 471 607 c 128,-1,42
 461 598 461 598 451 598 c 128,-1,43
 441 598 441 598 431 611 c 2,44,-1
 346 722 l 1,45,-1
 216 603 l 2,23,24
EndSplineSet
EndChar

StartChar: otilde
Encoding: 245 245 185
Width: 545
GlyphClass: 2
Flags: W
LayerCount: 2
Fore
SplineSet
317 507 m 0,0,1
 410 507 410 507 461.5 442 c 128,-1,2
 513 377 513 377 513 283 c 0,3,4
 513 159 513 159 439.5 72.5 c 128,-1,5
 366 -14 366 -14 249 -14 c 0,6,7
 156 -14 156 -14 105.5 49.5 c 128,-1,8
 55 113 55 113 53 207 c 1,9,10
 53 316 53 316 114 407 c 0,11,12
 145 452 145 452 197.5 479.5 c 128,-1,13
 250 507 250 507 317 507 c 0,0,1
151 321.5 m 128,-1,15
 133 271 133 271 133 205.5 c 128,-1,16
 133 140 133 140 164 94 c 128,-1,17
 195 48 195 48 264.5 48 c 128,-1,18
 334 48 334 48 385 115 c 128,-1,19
 436 182 436 182 436 266 c 128,-1,20
 436 350 436 350 404 397.5 c 128,-1,21
 372 445 372 445 312.5 445 c 128,-1,22
 253 445 253 445 211 408.5 c 128,-1,14
 169 372 169 372 151 321.5 c 128,-1,15
338 726 m 128,-1,24
 376 706 376 706 397.5 706 c 128,-1,25
 419 706 419 706 444.5 726 c 128,-1,26
 470 746 470 746 472 746 c 0,27,28
 501 746 501 746 501 715 c 0,29,30
 501 701 501 701 465 669 c 128,-1,31
 429 637 429 637 394 637 c 0,32,33
 375 637 375 637 337 657 c 128,-1,34
 299 677 299 677 277.5 677 c 128,-1,35
 256 677 256 677 230.5 657 c 128,-1,36
 205 637 205 637 203 637 c 0,37,38
 174 637 174 637 174 668 c 0,39,40
 174 682 174 682 210 714 c 128,-1,41
 246 746 246 746 281 746 c 0,42,23
 300 746 300 746 338 726 c 128,-1,24
EndSplineSet
EndChar

StartChar: odieresis
Encoding: 246 246 186
Width: 545
GlyphClass: 2
Flags: W
LayerCount: 2
Fore
SplineSet
317 507 m 0,0,1
 410 507 410 507 461.5 442 c 128,-1,2
 513 377 513 377 513 283 c 0,3,4
 513 159 513 159 439.5 72.5 c 128,-1,5
 366 -14 366 -14 249 -14 c 0,6,7
 156 -14 156 -14 105.5 49.5 c 128,-1,8
 55 113 55 113 53 207 c 1,9,10
 53 316 53 316 114 407 c 0,11,12
 145 452 145 452 197.5 479.5 c 128,-1,13
 250 507 250 507 317 507 c 0,0,1
151 321.5 m 128,-1,15
 133 271 133 271 133 205.5 c 128,-1,16
 133 140 133 140 164 94 c 128,-1,17
 195 48 195 48 264.5 48 c 128,-1,18
 334 48 334 48 385 115 c 128,-1,19
 436 182 436 182 436 266 c 128,-1,20
 436 350 436 350 404 397.5 c 128,-1,21
 372 445 372 445 312.5 445 c 128,-1,22
 253 445 253 445 211 408.5 c 128,-1,14
 169 372 169 372 151 321.5 c 128,-1,15
297 692 m 0,23,24
 297 630 297 630 240 630 c 0,25,26
 195 630 195 630 195 668 c 0,27,28
 195 729 195 729 252 729 c 0,29,30
 297 729 297 729 297 692 c 0,23,24
489 692 m 0,31,32
 489 630 489 630 432 630 c 0,33,34
 387 630 387 630 387 668 c 0,35,36
 387 729 387 729 444 729 c 0,37,38
 489 729 489 729 489 692 c 0,31,32
EndSplineSet
EndChar

StartChar: divide
Encoding: 247 247 187
Width: 672
GlyphClass: 2
Flags: W
LayerCount: 2
Fore
SplineSet
458 696 m 2,0,1
 464 707 464 707 479.5 707 c 128,-1,2
 495 707 495 707 508.5 697 c 128,-1,3
 522 687 522 687 522 674.5 c 128,-1,4
 522 662 522 662 519 659 c 1,5,-1
 213 127 l 2,6,7
 207 116 207 116 191.5 116 c 128,-1,8
 176 116 176 116 162 127 c 128,-1,9
 148 138 148 138 148 153 c 0,10,11
 148 155 148 155 151 164 c 1,12,-1
 458 696 l 2,0,1
135.5 464 m 128,-1,14
 120 480 120 480 120 502 c 128,-1,15
 120 524 120 524 136 540 c 128,-1,16
 152 556 152 556 174 556 c 128,-1,17
 196 556 196 556 212 540 c 128,-1,18
 228 524 228 524 228 502.5 c 128,-1,19
 228 481 228 481 212 464.5 c 128,-1,20
 196 448 196 448 173.5 448 c 128,-1,13
 151 448 151 448 135.5 464 c 128,-1,14
456.5 279 m 128,-1,22
 441 295 441 295 441 317 c 128,-1,23
 441 339 441 339 456.5 355 c 128,-1,24
 472 371 472 371 494.5 371 c 128,-1,25
 517 371 517 371 533 355 c 128,-1,26
 549 339 549 339 549 317 c 128,-1,27
 549 295 549 295 533 279 c 128,-1,28
 517 263 517 263 494.5 263 c 128,-1,21
 472 263 472 263 456.5 279 c 128,-1,22
EndSplineSet
EndChar

StartChar: oslash
Encoding: 248 248 188
Width: 545
GlyphClass: 2
Flags: W
LayerCount: 2
Fore
SplineSet
513 283 m 0,0,1
 513 159 513 159 439.5 72.5 c 128,-1,2
 366 -14 366 -14 249 -14 c 2,3,-1
 239 -14 l 1,4,-1
 205 -130 l 2,5,6
 198 -151 198 -151 160 -151 c 0,7,8
 140 -151 140 -151 140 -139 c 0,9,10
 140 -136 140 -136 144 -123 c 2,11,-1
 179 -2 l 1,12,13
 118 20 118 20 85.5 77 c 128,-1,14
 53 134 53 134 53 197 c 128,-1,15
 53 260 53 260 68.5 311 c 128,-1,16
 84 362 84 362 114.5 407 c 128,-1,17
 145 452 145 452 197.5 479.5 c 128,-1,18
 250 507 250 507 317 507 c 0,19,20
 326 507 326 507 330 506 c 1,21,-1
 364 620 l 2,22,23
 371 643 371 643 400 643 c 128,-1,24
 429 643 429 643 429 628 c 1,25,-1
 425 610 l 1,26,-1
 390 494 l 1,27,28
 449 471 449 471 481 413 c 128,-1,29
 513 355 513 355 513 283 c 0,0,1
133 217 m 0,30,31
 133 99 133 99 199 62 c 1,32,-1
 312 445 l 1,33,34
 227 445 227 445 180 374.5 c 128,-1,35
 133 304 133 304 133 217 c 0,30,31
436 274 m 0,36,37
 436 389 436 389 371 429 c 1,38,-1
 258 48 l 1,39,40
 334 48 334 48 385 115 c 128,-1,41
 436 182 436 182 436 274 c 0,36,37
EndSplineSet
EndChar

StartChar: ugrave
Encoding: 249 249 189
Width: 554
GlyphClass: 2
Flags: W
LayerCount: 2
Fore
SplineSet
462 207 m 2,0,1
 458 175 458 175 458 133 c 128,-1,2
 458 91 458 91 466.5 55 c 128,-1,3
 475 19 475 19 475 14 c 0,4,5
 475 2 475 2 456.5 -6 c 128,-1,6
 438 -14 438 -14 426 -14 c 128,-1,7
 414 -14 414 -14 408.5 -5 c 128,-1,8
 403 4 403 4 399.5 20 c 128,-1,9
 396 36 396 36 394 49 c 0,10,11
 389 82 389 82 389 102 c 1,12,13
 333 -14 333 -14 211 -14 c 0,14,15
 145 -14 145 -14 111.5 29 c 128,-1,16
 78 72 78 72 78 141 c 0,17,18
 78 178 78 178 116 482 c 0,19,20
 119 507 119 507 155.5 507 c 128,-1,21
 192 507 192 507 192 487 c 1,22,23
 154 198 154 198 154 143 c 0,24,25
 154 52 154 52 232 52 c 0,26,27
 272 52 272 52 303 75 c 128,-1,28
 334 98 334 98 352 137 c 0,29,30
 387 210 387 210 399 304 c 2,31,-1
 421 482 l 2,32,33
 424 507 424 507 468 507 c 0,34,35
 497 507 497 507 497 487 c 1,36,-1
 462 207 l 2,0,1
445 637 m 2,37,38
 449 631 449 631 449 622 c 128,-1,39
 449 613 449 613 441.5 605.5 c 128,-1,40
 434 598 434 598 424.5 598 c 128,-1,41
 415 598 415 598 410 603 c 2,42,-1
 260 740 l 2,43,44
 247 752 247 752 247 766.5 c 128,-1,45
 247 781 247 781 260 793.5 c 128,-1,46
 273 806 273 806 287.5 806 c 128,-1,47
 302 806 302 806 308 799 c 2,48,-1
 445 637 l 2,37,38
EndSplineSet
EndChar

